<?xml version="1.0" standalone="no"?>
<!DOCTYPE svg PUBLIC "-//W3C//DTD SVG 20010904//EN"
 "http://www.w3.org/TR/2001/REC-SVG-20010904/DTD/svg10.dtd">
<svg version="1.0" xmlns="http://www.w3.org/2000/svg"
 width="512.000000pt" height="512.000000pt" viewBox="0 0 512.000000 512.000000"
 preserveAspectRatio="xMidYMid meet">

<g transform="translate(0.000000,512.000000) scale(0.100000,-0.100000)"
fill="#000000" stroke="none">
<path d="M2420 5114 c-14 -2 -56 -9 -95 -15 -124 -19 -283 -78 -400 -147 -427
-255 -725 -755 -796 -1337 -6 -55 -11 -199 -11 -320 3 -646 118 -992 370
-1119 118 -60 304 -70 670 -36 169 15 224 17 265 8 32 -6 85 -8 142 -3 136 11
161 11 414 -4 129 -7 270 -10 313 -6 398 34 573 279 627 875 14 148 14 479 0
595 -13 119 -53 303 -89 412 -92 286 -227 509 -430 714 -196 197 -402 313
-649 364 -73 15 -283 28 -331 19z m332 -671 c168 -89 305 -220 393 -377 19
-34 52 -108 75 -165 66 -165 79 -190 108 -198 16 -4 37 1 58 12 34 18 142 126
180 180 l21 30 35 -17 c54 -25 88 -101 88 -193 0 -168 -87 -302 -210 -323
l-43 -7 -42 -125 c-193 -572 -543 -940 -891 -940 -233 1 -471 169 -669 473
-79 122 -176 329 -222 475 -37 117 -39 122 -66 122 -69 0 -148 65 -195 159
-24 50 -27 67 -27 156 0 105 11 142 56 184 21 19 21 19 57 -16 193 -193 639
-74 958 255 88 91 93 94 125 87 166 -35 352 -182 436 -340 15 -30 29 -52 31
-51 2 2 -4 33 -12 70 -44 188 -167 370 -318 471 -32 21 -58 41 -58 45 0 14 30
80 36 80 4 0 47 -21 96 -47z"/>
<path d="M1440 1952 c-370 -186 -647 -496 -751 -842 -23 -73 -23 -88 -27 -593
l-3 -517 1901 0 1901 0 -3 517 c-4 505 -4 520 -27 593 -104 343 -384 658 -748
841 l-97 48 -52 -78 c-78 -120 -156 -211 -226 -267 -83 -66 -74 -61 -389 -227
-151 -80 -293 -156 -316 -169 l-43 -23 -42 23 c-24 13 -166 89 -317 169 -314
166 -306 161 -387 225 -69 56 -152 152 -228 268 l-52 79 -94 -47z"/>
</g>
</svg>
