<svg width="15" height="18" viewBox="0 0 15 18" fill="none" xmlns="http://www.w3.org/2000/svg">
<path fill-rule="evenodd" clip-rule="evenodd" d="M7.01673 0.0205777C6.67561 0.103802 6.54631 0.140913 6.38065 0.203186C5.428 0.561318 4.77853 1.23215 4.45338 2.19387C4.31301 2.60907 4.28432 2.87128 4.28327 3.74876L4.28269 4.23899L3.74245 4.25123C1.60035 4.29976 1.47795 4.3045 1.37498 4.34266C1.21456 4.40212 1.1092 4.53527 1.0698 4.72829C1.05971 4.77772 1.02607 5.10989 0.995066 5.46644C0.964061 5.82299 0.930107 6.20351 0.919584 6.31202C0.909061 6.42054 0.892112 6.61079 0.881908 6.73481C0.871705 6.85883 0.837525 7.23934 0.805975 7.58039C0.774426 7.92144 0.740678 8.2935 0.730982 8.40718C0.721304 8.52087 0.708959 8.64771 0.703547 8.68904C0.698135 8.73038 0.685377 8.86145 0.675173 8.9803C0.664989 9.09915 0.630771 9.47121 0.599165 9.80709C0.56754 10.143 0.533604 10.5108 0.523739 10.6245C0.513855 10.7382 0.497601 10.9115 0.487605 11.0097C0.477627 11.1079 0.456224 11.3362 0.440064 11.517C0.423904 11.6979 0.402614 11.9347 0.392749 12.0432C0.382884 12.1517 0.361763 12.3927 0.34581 12.5787C0.318394 12.8987 0.303775 13.0644 0.23393 13.8471C0.113012 15.2024 0.0901062 15.4554 0.0740213 15.6134C0.00799085 16.2624 -0.0045425 16.4344 0.00126382 16.6111C0.00725805 16.7932 0.0125006 16.8173 0.0641751 16.9008C0.1017 16.9614 0.164517 17.0219 0.252082 17.0816L0.383617 17.1714L7.49768 17.1722L14.6117 17.173L14.7245 17.1002C14.8466 17.0212 14.8974 16.9611 14.96 16.8215C15.0108 16.7081 15.013 16.4875 14.9677 16.055C14.9102 15.5062 14.8995 15.399 14.8815 15.1906C14.8299 14.5942 14.746 13.6592 14.7111 13.2928C14.7013 13.1894 14.668 12.8216 14.6371 12.4754C14.6062 12.1292 14.5679 11.7106 14.552 11.5452C14.5361 11.3799 14.5059 11.0543 14.4849 10.8218C14.4639 10.5893 14.4303 10.2172 14.4103 9.995C14.3685 9.53205 14.3272 9.08008 14.2884 8.66086C14.2735 8.50067 14.2398 8.12438 14.2135 7.82467C14.1506 7.10931 14.1165 6.7276 14.0816 6.3496C14.0659 6.17908 14.0277 5.75678 13.9968 5.41118C13.9659 5.06556 13.9315 4.74847 13.9204 4.70653C13.8692 4.51416 13.7464 4.37446 13.5841 4.32398C13.5437 4.31143 12.9766 4.29086 12.1137 4.27064L10.7091 4.23774L10.7089 4.0394C10.7086 3.81164 10.694 3.25374 10.681 2.97378C10.6531 2.37439 10.5027 1.90652 10.1863 1.43495C9.95387 1.08857 9.58335 0.727333 9.21763 0.490552C8.91189 0.292611 8.50843 0.13584 8.07625 0.0470538C7.86483 0.00360967 7.79882 -0.00144499 7.46555 0.000283751C7.26003 0.00135482 7.05807 0.0104871 7.01673 0.0205777ZM7.85239 1.0787C8.50659 1.19381 9.12693 1.66136 9.42327 2.26263C9.58901 2.59891 9.61902 2.7491 9.641 3.35249C9.65117 3.63153 9.65386 3.94652 9.64696 4.05244L9.63443 4.24505H7.49409H5.35376V3.73029C5.35376 3.44717 5.3627 3.12798 5.37364 3.02094C5.41272 2.63852 5.50748 2.33289 5.6763 2.04497C5.77824 1.8711 6.06748 1.57384 6.24631 1.45917C6.75556 1.13263 7.3537 0.990929 7.85239 1.0787ZM4.27329 5.89863V6.43416L4.22472 6.53751C4.198 6.59435 4.11909 6.70292 4.0494 6.7788C3.80991 7.03947 3.73776 7.20742 3.73776 7.5041C3.73776 7.80147 3.83812 8.0322 4.06518 8.25686C4.28259 8.47196 4.52065 8.57346 4.80883 8.57395C5.10576 8.57446 5.3733 8.45414 5.59298 8.22129C5.80325 7.99843 5.89429 7.74663 5.87362 7.44512C5.85114 7.11717 5.71213 6.8624 5.42337 6.62L5.35376 6.56156V5.95755V5.35355L7.50059 5.35832L9.64743 5.36309L9.64728 5.90802L9.64711 6.45295L9.58602 6.56581C9.55242 6.62787 9.47059 6.73179 9.40418 6.79671C9.18935 7.00671 9.12155 7.17442 9.12153 7.49584C9.12152 7.74727 9.16077 7.89068 9.27936 8.07252C9.58719 8.54456 10.1571 8.69936 10.6715 8.45067C10.8399 8.36928 11.0585 8.14992 11.1379 7.98274C11.2505 7.74551 11.2774 7.53447 11.2261 7.2906C11.1792 7.06731 11.0983 6.92512 10.9122 6.73881C10.8215 6.648 10.7387 6.55767 10.7282 6.53805C10.7165 6.51614 10.7091 6.28085 10.7091 5.92805V5.3537H11.7891H12.8692L12.8966 5.39598C12.9263 5.44154 12.938 5.54209 13.0112 6.37779C13.0374 6.6775 13.071 7.05378 13.0858 7.21397C13.1006 7.37417 13.1261 7.65321 13.1425 7.83407C13.1589 8.01493 13.1848 8.2982 13.2001 8.46356C13.2155 8.62891 13.2362 8.85722 13.2462 8.97091C13.2563 9.08459 13.2769 9.3129 13.292 9.47825C13.3609 10.2291 13.3782 10.4205 13.4056 10.7372C13.4217 10.9233 13.443 11.16 13.4531 11.2634C13.4631 11.3667 13.4842 11.6035 13.5001 11.7895C13.516 11.9755 13.541 12.2588 13.5558 12.419C13.5705 12.5792 13.5957 12.8582 13.6117 13.0391C13.6837 13.8527 13.7945 15.0565 13.8381 15.5007C13.8539 15.6609 13.8721 15.8574 13.8785 15.9376L13.8903 16.0832H7.49651H1.10274L1.11457 15.9845C1.12108 15.9303 1.13455 15.7837 1.14449 15.6588C1.15443 15.5339 1.17978 15.2464 1.20082 15.0199C1.22187 14.7934 1.24754 14.5109 1.25785 14.392C1.27847 14.1546 1.33454 13.5278 1.37975 13.0297C1.39568 12.854 1.41692 12.6299 1.4269 12.5317C1.44439 12.36 1.57792 10.9003 1.61512 10.4742C1.62504 10.3605 1.64162 10.1871 1.65195 10.089C1.66229 9.99077 1.69633 9.61871 1.7276 9.26216C1.75889 8.90561 1.79251 8.53355 1.80231 8.43537C1.81212 8.33719 1.83336 8.10465 1.8495 7.91863C1.86562 7.7326 1.89125 7.44087 1.90643 7.27035C1.92162 7.09982 1.95506 6.72354 1.98075 6.43416C2.00644 6.14478 2.03695 5.80246 2.04857 5.67342C2.06018 5.54438 2.07698 5.41959 2.0859 5.39611L2.10216 5.3534L3.18771 5.35824L4.27329 5.36309V5.89863Z" fill="#747070"/>
</svg>
