<svg width="15" height="15" viewBox="0 0 15 15" fill="none" xmlns="http://www.w3.org/2000/svg">
<path fill-rule="evenodd" clip-rule="evenodd" d="M5.49748 0.019691C5.39154 0.0381825 5.09683 0.0905748 4.84257 0.136033C2.63901 0.529824 0.685386 2.43067 0.133879 4.71744C-0.0595881 5.51966 -0.0410196 6.85991 0.174329 7.64079C0.666201 9.42421 1.7807 10.7885 3.39215 11.5795C4.19861 11.9755 5.23112 12.2231 6.07533 12.2231C7.16918 12.2231 8.52037 11.8174 9.39709 11.2257L9.74681 10.9897L10.184 11.4051C11.441 12.5998 13.5793 14.4897 13.7908 14.593C14.3435 14.8628 15 14.4404 15 13.8151C15 13.5988 14.9464 13.4055 14.8524 13.2828C14.7712 13.1768 13.8686 12.3367 12.8466 11.4159L10.9886 9.74157L11.2494 9.34608C11.5551 8.88264 11.9123 7.98673 12.0524 7.3326C12.2031 6.62838 12.1675 5.28998 11.979 4.57629C11.6447 3.31055 10.7194 1.94781 9.67246 1.17934C9.12974 0.780999 8.26457 0.371491 7.61405 0.205145C7.03797 0.0577525 5.86615 -0.0448749 5.49748 0.019691ZM7.38515 1.02925C9.1903 1.47597 10.7344 3.04574 11.1677 4.87477C11.3318 5.56712 11.3294 6.72484 11.1628 7.37112C10.7646 8.91562 9.74473 10.1555 8.30972 10.84C6.80267 11.5587 5.27805 11.5428 3.74064 10.7923C2.55919 10.2154 1.59455 9.13536 1.13827 7.87825C0.452779 5.98965 0.939258 3.84788 2.38136 2.40586C3.70627 1.08087 5.54717 0.574434 7.38515 1.02925Z" fill="#747070"/>
</svg>
