<svg width="15" height="16" viewBox="0 0 15 16" fill="none" xmlns="http://www.w3.org/2000/svg">
<path fill-rule="evenodd" clip-rule="evenodd" d="M0.265625 0.896484L0 1.16211V3.13086V5.09961L0.265625 5.36523C0.553594 5.6532 0.843516 5.70594 1.21312 5.5375C1.53883 5.38914 1.64062 5.09594 1.64062 4.30664C1.64062 3.91773 1.66578 3.59961 1.69664 3.59961C1.72742 3.59961 2.40625 4.25 3.20516 5.04492C4.63703 6.46961 4.66258 6.49023 4.99297 6.49023C5.27 6.49023 5.37422 6.44414 5.59375 6.22461C5.81328 6.00508 5.85938 5.90086 5.85938 5.62383C5.85938 5.29344 5.83875 5.26789 4.41406 3.83602C3.61914 3.03711 2.96875 2.35828 2.96875 2.3275C2.96875 2.29664 3.28688 2.27148 3.67578 2.27148C4.46508 2.27148 4.75828 2.16969 4.90664 1.84398C5.07508 1.47438 5.02234 1.18445 4.73438 0.896484L4.46875 0.630859H2.5H0.53125L0.265625 0.896484ZM10.2656 0.896484C9.88203 1.28008 9.91297 1.78617 10.3412 2.13305C10.4732 2.24 10.666 2.26836 11.2695 2.26977C11.6885 2.2707 12.0312 2.29664 12.0312 2.3275C12.0312 2.35828 11.3809 3.03711 10.5859 3.83602C9.16125 5.26789 9.14062 5.29344 9.14062 5.62383C9.14062 5.90086 9.18672 6.00508 9.40625 6.22461C9.62578 6.44414 9.73 6.49023 10.007 6.49023C10.3374 6.49023 10.363 6.46961 11.7948 5.04492C12.5938 4.25 13.2726 3.59961 13.3034 3.59961C13.3342 3.59961 13.3602 3.94242 13.3611 4.36133C13.3625 4.96484 13.3909 5.15766 13.4978 5.28969C13.8447 5.71789 14.3508 5.74883 14.7344 5.36523L15 5.09961V3.13086V1.16211L14.7344 0.896484L14.4688 0.630859H12.5H10.5312L10.2656 0.896484ZM3.20516 11.2168C2.40625 12.0117 1.72742 12.6621 1.69664 12.6621C1.66578 12.6621 1.64062 12.344 1.64062 11.9551C1.64062 11.1658 1.53883 10.8726 1.21312 10.7242C0.843516 10.5558 0.553594 10.6085 0.265625 10.8965L0 11.1621V13.1309V15.0996L0.265625 15.3652L0.53125 15.6309H2.5H4.46875L4.73438 15.3652C5.03031 15.0693 5.07922 14.7607 4.88867 14.3922C4.72711 14.0797 4.45547 13.9902 3.6682 13.9902C3.28352 13.9902 2.96875 13.9651 2.96875 13.9342C2.96875 13.9034 3.61914 13.2246 4.41406 12.4257C5.83875 10.9938 5.85938 10.9683 5.85938 10.6379C5.85938 10.3609 5.81328 10.2566 5.59375 10.0371C5.37422 9.81758 5.27 9.77148 4.99297 9.77148C4.66258 9.77148 4.63703 9.79211 3.20516 11.2168ZM9.40625 10.0371C9.18672 10.2566 9.14062 10.3609 9.14062 10.6379C9.14062 10.9683 9.16125 10.9938 10.5859 12.4257C11.3809 13.2246 12.0312 13.9034 12.0312 13.9342C12.0312 13.9651 11.6885 13.991 11.2695 13.992C10.666 13.9934 10.4732 14.0217 10.3412 14.1287C9.91297 14.4755 9.88203 14.9816 10.2656 15.3652L10.5312 15.6309H12.5H14.4688L14.7344 15.3652L15 15.0996V13.1309V11.1621L14.7344 10.8965C14.3508 10.5129 13.8447 10.5438 13.4978 10.972C13.3909 11.1041 13.3625 11.2969 13.3611 11.9004C13.3602 12.3194 13.3342 12.6621 13.3034 12.6621C13.2726 12.6621 12.5938 12.0117 11.7948 11.2168C10.363 9.79211 10.3374 9.77148 10.007 9.77148C9.73 9.77148 9.62578 9.81758 9.40625 10.0371Z" fill="#007A64"/>
</svg>
