<svg width="11" height="15" viewBox="0 0 11 15" fill="none" xmlns="http://www.w3.org/2000/svg">
<path d="M4.09434 0.145537C2.12061 0.666415 0.671873 2.22237 0.306367 4.2391C0.193392 4.86683 0.253202 5.72828 0.459215 6.31594C0.984215 7.83182 2.46618 10.0823 4.38675 12.2793C4.71902 12.66 5.07124 13.0673 5.17092 13.1808L5.35035 13.3945L5.62282 13.094C7.99529 10.4429 9.67662 7.99209 10.2548 6.32929C11.0057 4.17232 9.7763 1.52787 7.54339 0.472755C6.52662 -0.0013772 5.15099 -0.134936 4.09434 0.145537ZM6.12124 0.840041C6.4801 0.90682 6.85225 1.0337 7.28421 1.24739C9.1051 2.15559 10.1086 4.31924 9.51712 6.06885C9.18485 7.04383 8.34086 8.46623 7.21776 9.94872C6.53326 10.8502 5.4301 12.1591 5.357 12.1591C5.2839 12.1591 4.18073 10.8502 3.49624 9.94872C2.35985 8.45287 1.48928 6.97705 1.17029 5.98872C1.04402 5.59472 1.02409 5.43445 1.05067 4.82008C1.10384 3.69151 1.48928 2.83006 2.30004 2.00868C3.33675 0.973599 4.63263 0.572924 6.12124 0.840041Z" fill="white"/>
<path d="M4.72181 2.6694C4.01738 2.8497 3.45915 3.31048 3.13352 3.96492C2.35598 5.54758 3.20662 7.27716 4.92782 7.61774C5.73858 7.77801 6.64902 7.46415 7.22054 6.83642C7.67908 6.33558 7.84522 5.86812 7.85187 5.11352C7.85187 4.57928 7.82529 4.46576 7.63921 4.06508C7.38003 3.51082 6.96801 3.09011 6.44965 2.84302C6.13067 2.68943 5.95124 2.64937 5.49269 2.63601C5.18035 2.62265 4.83478 2.64269 4.72181 2.6694ZM6.14396 3.58427C7.22719 4.12519 7.41326 5.64107 6.48953 6.43575C5.30662 7.45079 3.5256 6.54927 3.64522 4.99332C3.6851 4.50583 3.80472 4.24539 4.14364 3.90481C4.662 3.38394 5.4794 3.25038 6.14396 3.58427Z" fill="white"/>
<path d="M7.41619 12.0984C7.41619 12.4724 7.42283 12.4924 7.60226 12.5325C8.54593 12.7328 9.67568 13.1536 9.67568 13.3005C9.67568 13.4006 8.91808 13.7479 8.39973 13.8948C7.55574 14.1285 6.6453 14.2287 5.40922 14.2287C4.15321 14.2287 3.54847 14.1686 2.59815 13.9482C1.95353 13.8013 1.03644 13.414 1.03644 13.2938C1.03644 13.1202 2.25923 12.6794 3.18296 12.5258L3.42885 12.4858V12.1118V11.7378L3.07663 11.7779C2.01334 11.9048 0.67758 12.4591 0.391821 12.8864C-0.14647 13.6945 0.91682 14.4624 3.12979 14.8698C4.08011 15.0434 6.63201 15.0434 7.58233 14.8698C9.3434 14.5492 10.4731 13.9415 10.4731 13.3205C10.4731 12.6861 9.4896 12.0984 7.92789 11.8046L7.41619 11.7044V12.0984Z" fill="white"/>
</svg>
