<svg width="32" height="32" viewBox="0 0 32 32" fill="none" xmlns="http://www.w3.org/2000/svg">
<g filter="url(#filter0_b_2191_29)">
<circle cx="16" cy="16" r="16" fill="black" fill-opacity="0.2"/>
</g>
<path d="M20.1626 7.85864C19.0143 8.1217 18.0999 9.01111 17.7784 10.1844C17.7074 10.4308 17.6865 11.0488 17.7324 11.6376L17.7408 11.7754L15.7782 12.8276C14.7009 13.4038 13.6153 13.9842 13.3731 14.1179L12.9305 14.3559L12.776 14.1262C12.4503 13.6335 11.8907 13.1867 11.3103 12.9571C9.91987 12.4059 8.32896 12.9236 7.51054 14.1847C6.73806 15.3747 6.8508 16.8696 7.79031 17.997C8.12853 18.402 8.81751 18.8196 9.41044 18.9783C9.77789 19.0743 10.5462 19.0743 10.9137 18.9783C11.2352 18.8906 11.7112 18.6735 11.9826 18.4856C12.2457 18.306 12.5964 17.9469 12.776 17.6755L12.9305 17.4458L13.3731 17.6838C13.6153 17.8175 14.7009 18.3979 15.7782 18.9741L17.7408 20.0263L17.7324 20.1641C17.6865 20.7529 17.7074 21.3709 17.7784 21.6173C18.1124 22.8324 19.0978 23.7552 20.2837 23.9639C20.7347 24.0391 21.4278 23.9932 21.8287 23.8596C22.8601 23.5088 23.6325 22.6862 23.9248 21.6173C24.0251 21.2498 24.0251 20.4481 23.9248 20.0806C23.6284 18.995 22.8183 18.1515 21.7535 17.8133C21.3902 17.6964 20.5969 17.6671 20.1835 17.7548C19.4736 17.901 18.7137 18.4062 18.2752 19.02C18.1375 19.2163 18.0665 19.2789 18.0164 19.2622C17.9788 19.2497 16.8931 18.6693 15.5987 17.9803L13.2436 16.7193L13.2812 16.4687C13.323 16.143 13.323 15.6587 13.2812 15.3371L13.2478 15.0824L15.5987 13.8256C16.8931 13.1324 17.9788 12.552 18.0164 12.5395C18.0665 12.5228 18.1375 12.5896 18.2752 12.7817C18.8682 13.6126 19.8286 14.1053 20.8516 14.1053C22.2964 14.1053 23.5365 13.145 23.9248 11.7211C24.0251 11.3536 24.0251 10.5519 23.9248 10.1844C23.6325 9.11967 22.8601 8.28873 21.8329 7.94215C21.5531 7.84611 21.4111 7.82941 20.956 7.81688C20.5969 7.80436 20.3296 7.82106 20.1626 7.85864ZM21.4529 8.65618C22.8976 9.03198 23.6284 10.6396 22.977 12.005C22.81 12.3599 22.3214 12.861 21.9581 13.0489C21.2817 13.4038 20.4424 13.4038 19.7492 13.0531C19.386 12.8694 18.8974 12.3725 18.7262 12.005C18.0832 10.6479 18.7721 9.09044 20.2044 8.67288C20.5217 8.58102 21.1272 8.57267 21.4529 8.65618ZM10.7216 13.6043C11.6235 13.8339 12.2916 14.5271 12.4795 15.4207C12.5923 15.9635 12.5254 16.4562 12.2666 16.9823C11.9659 17.5961 11.3396 18.0722 10.6422 18.2183C10.2748 18.2935 10.0493 18.2935 9.68186 18.2183C8.78828 18.0304 8.09513 17.3623 7.86547 16.4604C7.76108 16.0512 7.76108 15.7505 7.86547 15.3413C7.97821 14.8945 8.17446 14.548 8.49181 14.2306C9.08892 13.6335 9.91987 13.3997 10.7216 13.6043ZM21.4487 18.5565C21.8704 18.6651 22.1794 18.8488 22.526 19.1954C22.8851 19.5545 23.073 19.8927 23.1691 20.3604C23.3945 21.4168 22.8809 22.4816 21.908 22.9743C21.5865 23.133 21.2566 23.2082 20.8599 23.2082C19.0853 23.2082 17.9579 21.4085 18.7262 19.7967C18.8932 19.4459 19.386 18.9323 19.7242 18.7611C20.2378 18.4981 20.9101 18.4146 21.4487 18.5565Z" fill="black"/>
<defs>
<filter id="filter0_b_2191_29" x="-4" y="-4" width="40" height="40" filterUnits="userSpaceOnUse" color-interpolation-filters="sRGB">
<feFlood flood-opacity="0" result="BackgroundImageFix"/>
<feGaussianBlur in="BackgroundImageFix" stdDeviation="2"/>
<feComposite in2="SourceAlpha" operator="in" result="effect1_backgroundBlur_2191_29"/>
<feBlend mode="normal" in="SourceGraphic" in2="effect1_backgroundBlur_2191_29" result="shape"/>
</filter>
</defs>
</svg>
