<svg width="25" height="17" viewBox="0 0 25 17" fill="none" xmlns="http://www.w3.org/2000/svg">
<path fill-rule="evenodd" clip-rule="evenodd" d="M2.83313 2.82222L0.0935059 4.89444L0.840766 5.59995C1.2517 5.98801 3.42288 7.97393 5.66564 10.013C13.0737 16.7485 12.4694 16.2316 12.7262 16.0517C12.9289 15.9098 19.2827 10.1508 23.4553 6.32725L25.007 4.9054L22.2602 2.8277L19.5134 0.75H12.543H5.57264L2.83313 2.82222ZM21.0072 3.07273C22.2433 4.01548 23.2547 4.83163 23.2547 4.88665C23.2547 4.9962 12.956 14.3755 12.8306 14.3801C12.6831 14.3856 2.12556 4.73632 2.16146 4.62872C2.18118 4.56932 3.12685 3.80928 4.2629 2.93968L6.32842 1.35862H12.544H18.7597L21.0072 3.07273ZM5.8789 3.80356L3.962 5.25937L8.23558 9.16146L12.5092 13.0637L12.8304 12.7653C13.0071 12.6012 14.9866 10.8107 17.2294 8.78643C19.4721 6.76205 21.3183 5.07058 21.3319 5.02761C21.3454 4.98464 20.5658 4.36068 19.5992 3.64093L17.8418 2.33241L12.8187 2.3402L7.7958 2.34786L5.8789 3.80356ZM18.7901 3.92832C19.6054 4.53828 20.2724 5.07922 20.2724 5.13046C20.2724 5.25231 12.9667 11.8877 12.8326 11.8877C12.6778 11.8877 5.41197 5.22261 5.45007 5.11561C5.4682 5.06473 6.13306 4.5272 6.92742 3.92114L8.37179 2.8193H12.8398H17.3079L18.7901 3.92832ZM8.25725 4.61618C7.57377 5.13424 7.01652 5.58547 7.01896 5.61894C7.02334 5.68151 12.1317 10.3396 12.4125 10.5372C12.5245 10.6159 13.4036 9.88791 15.4942 7.98537L18.4193 5.32352L17.3164 4.49738L16.2133 3.67136L12.8567 3.67283L9.49993 3.67429L8.25725 4.61618ZM16.6896 4.72391C17.1919 5.10198 17.5873 5.45413 17.5682 5.50659C17.5271 5.62004 12.8484 9.87926 12.7649 9.87926C12.7333 9.87926 11.6468 8.91229 10.3503 7.73048L7.99323 5.58181L8.56399 5.13679C8.87792 4.89201 9.32647 4.54497 9.56079 4.36555L9.98682 4.03921L12.8816 4.03787L15.7763 4.03654L16.6896 4.72391Z" fill="black"/>
</svg>
