<svg width="20" height="20" viewBox="0 0 20 20" fill="none" xmlns="http://www.w3.org/2000/svg">
<path d="M9.33526 0.0435219C8.72144 0.129535 8.04897 0.336749 7.53289 0.590879C7.15365 0.786365 6.6102 1.17342 6.26224 1.49793C5.18707 2.51836 4.56543 3.94149 4.56543 5.37635C4.56543 5.94717 4.64753 6.36941 4.90166 7.12008C5.45684 8.76606 6.90734 11.6006 8.60024 14.3413C8.96775 14.9395 9.24925 15.1584 9.75751 15.2522C10.211 15.3344 10.774 15.1467 11.0712 14.8222C11.1415 14.744 11.4191 14.31 11.6889 13.8604C13.632 10.6193 14.8401 8.15224 15.2897 6.50234C15.4109 6.06446 15.4148 6.01363 15.4148 5.34116C15.4109 4.71561 15.3992 4.59441 15.3093 4.2269C15.0317 3.12045 14.5156 2.23295 13.7141 1.47838C12.9869 0.794184 12.0955 0.32893 11.1024 0.121716C10.6685 0.0278826 9.73405 -0.0112143 9.33526 0.0435219ZM10.5043 2.95625C11.5247 3.19865 12.2402 4.16043 12.1776 5.20823C12.1033 6.37723 11.1728 7.25691 9.99991 7.25691C8.827 7.25691 7.89649 6.37723 7.82221 5.20823C7.75574 4.15261 8.45949 3.20647 9.49947 2.95625C9.78488 2.88587 10.2032 2.88587 10.5043 2.95625Z" fill="black"/>
<path d="M5.83467 13.489C4.7986 13.7588 4.22388 14.0286 3.79772 14.4508C3.48104 14.7636 3.39111 14.963 3.39111 15.35C3.39111 16.5034 5.25995 17.3127 8.50109 17.5629C9.2713 17.6216 11.5702 17.5864 12.227 17.5043C15.1319 17.1368 16.6059 16.4135 16.6059 15.35C16.6059 14.963 16.516 14.7636 16.1993 14.4508C15.8982 14.1498 15.5385 13.9386 14.9755 13.7314C14.5807 13.5868 13.5485 13.3248 13.4351 13.3444C13.3765 13.3522 13.2709 13.4968 13.0481 13.8722C12.7587 14.3609 12.747 14.3922 12.8252 14.4078C12.8721 14.4195 13.1067 14.4625 13.3413 14.5094C14.2249 14.6776 15.1671 15.0216 15.3743 15.2523C15.4486 15.3344 15.4486 15.3383 15.3548 15.4126C14.784 15.8622 13.3217 16.2375 11.5233 16.3861C10.843 16.4447 9.15401 16.4447 8.47372 16.3861C6.67526 16.2375 5.21303 15.8622 4.64222 15.4126C4.54838 15.3383 4.54838 15.3344 4.61485 15.2601C4.70477 15.1624 5.07228 14.9669 5.4007 14.8418C5.69002 14.7323 6.45241 14.5368 6.83165 14.4703C7.30863 14.3922 7.2969 14.4586 6.94894 13.8722C6.67917 13.4147 6.63225 13.3561 6.53451 13.3483C6.47196 13.3404 6.15918 13.4069 5.83467 13.489Z" fill="black"/>
<path d="M1.60494 14.1027C1.00676 14.4155 0.435942 14.9511 0.20136 15.4281C-0.0644992 15.9676 -0.0684089 16.5072 0.19745 17.0467C0.353838 17.3673 0.897286 17.9303 1.31953 18.204C2.67229 19.0837 5.0572 19.7131 7.94647 19.9516C8.72841 20.0181 11.2541 20.0142 12.0517 19.9516C14.9331 19.717 17.3219 19.0876 18.6786 18.204C19.1008 17.9303 19.6443 17.3673 19.8007 17.0467C20.1799 16.2726 20.0157 15.4906 19.3276 14.8025C18.9992 14.4741 18.5144 14.1262 18.2251 14.0167C17.9905 13.9268 17.8028 13.9698 17.6191 14.1535C17.4314 14.3373 17.3923 14.5249 17.4861 14.7673C17.5448 14.9237 17.5956 14.9707 17.9397 15.1935C18.53 15.5767 18.835 15.9285 18.835 16.2296C18.835 16.6323 18.2876 17.1444 17.4158 17.5589C14.9096 18.7513 10.218 19.1775 6.21447 18.5715C3.67708 18.1883 1.67532 17.3556 1.24134 16.5072C1.03413 16.0966 1.28044 15.6979 2.05847 15.1935C2.40252 14.9707 2.45335 14.9237 2.51199 14.7673C2.62928 14.4624 2.49244 14.1418 2.1914 14.0167C1.99982 13.9346 1.89817 13.9502 1.60494 14.1027Z" fill="black"/>
</svg>
