<svg width="28" height="21" viewBox="0 0 28 21" fill="none" xmlns="http://www.w3.org/2000/svg">
<path fill-rule="evenodd" clip-rule="evenodd" d="M9.06731 0.260918C8.8092 0.45968 8.7058 0.710066 8.68359 1.19075C8.65809 1.73988 8.33177 2.36488 6.7085 4.97288L4.76392 8.09713L2.60346 8.17151C0.0103247 8.26078 0 8.26762 0 9.91083C0 11.0742 0.283295 11.5933 0.917931 11.5933C1.13615 11.5933 1.23204 11.7346 1.29602 12.1512C1.60263 14.1467 2.54199 19.0283 2.68575 19.3727C3.04851 20.2421 2.85766 20.2222 10.7937 20.2222C18.6314 20.2222 18.5025 20.2344 18.9423 19.4529C19.0375 19.2837 19.4101 17.4629 19.7702 15.4065L20.4251 11.6677L21.182 11.5844C21.6673 11.531 22.0164 11.4006 22.1542 11.2212C22.5303 10.7321 22.4185 10.5519 21.7388 10.5519C20.5852 10.5519 19.106 9.76235 18.3718 8.75471C18.0958 8.37578 17.8265 8.17151 17.6032 8.17151C17.3209 8.17151 16.9055 7.59695 15.278 4.95399C13.8009 2.55516 13.2965 1.60866 13.2965 1.23464C13.2965 0.604586 12.8304 0.137734 12.2015 0.137734C11.6384 0.137734 11.1065 0.597742 11.1065 1.08468C11.1065 1.47551 11.6522 2.22027 11.9392 2.22116C12.0404 2.22161 12.9411 3.54376 13.9407 5.15944L15.758 8.09713L11.0621 8.13655C8.47929 8.15827 6.34011 8.15113 6.30835 8.12093C6.17711 7.99611 9.9502 2.10303 10.2396 1.98104C11.0219 1.65106 11.0067 0.412817 10.2168 0.127171C9.67081 -0.0704003 9.46652 -0.0465968 9.06731 0.260918ZM21.9232 0.587179C20.5189 0.866279 19.0677 2.00841 18.4296 3.33637C17.9388 4.35829 17.9267 6.15905 18.4043 7.14825C19.2382 8.87551 20.9795 9.9565 22.9283 9.95665C24.3787 9.9568 25.3188 9.63485 26.2881 8.80618C28.3046 7.08175 28.5744 4.24582 26.9122 2.24586C25.8202 0.931888 23.7132 0.231461 21.9232 0.587179ZM23.6209 3.70116V4.58681L24.5986 4.631L25.5763 4.67533L25.6243 5.30762L25.6725 5.93991H24.6466H23.6209V6.90694V7.87397H22.9952H22.3695V6.90694V5.93991H21.3527H20.3359V5.27043V4.60094H21.3527H22.3695V3.7083V2.81566H22.9952H23.6209V3.70116ZM5.75662 13.4083C5.88771 13.533 5.94434 14.3395 5.94434 16.0811C5.94434 18.3946 5.92244 18.5864 5.6418 18.7292C5.25042 18.9284 5.22961 18.9261 4.93865 18.6495C4.57526 18.3037 4.57526 13.8093 4.93865 13.4635C5.23258 13.184 5.50164 13.1658 5.75662 13.4083ZM8.51433 13.4635C8.87772 13.8093 8.87772 18.3037 8.51433 18.6495C8.22337 18.9261 8.20256 18.9284 7.81117 18.7292C7.53054 18.5864 7.50864 18.3946 7.50864 16.0811C7.50864 13.5925 7.58091 13.2298 8.07632 13.2298C8.18191 13.2298 8.37902 13.335 8.51433 13.4635ZM11.1169 13.3838C11.3976 13.5268 11.4194 13.7187 11.4194 16.0565C11.4194 18.3944 11.3976 18.5863 11.1169 18.7292C10.7255 18.9284 10.7047 18.9261 10.4137 18.6495C10.0503 18.3037 10.0503 13.8093 10.4137 13.4635C10.7047 13.187 10.7255 13.1846 11.1169 13.3838ZM13.9894 13.4635C14.3528 13.8093 14.3528 18.3037 13.9894 18.6495C13.6954 18.929 13.4264 18.9472 13.1714 18.7047C12.908 18.4542 12.908 13.6589 13.1714 13.4083C13.4264 13.1658 13.6954 13.184 13.9894 13.4635ZM16.5919 13.3838C16.8727 13.5268 16.8944 13.7187 16.8944 16.0565C16.8944 18.3944 16.8727 18.5863 16.5919 18.7292C16.2005 18.9284 16.1797 18.9261 15.8888 18.6495C15.6854 18.4559 15.643 17.9958 15.643 15.9789C15.643 13.8151 15.6737 13.5251 15.9168 13.3905C16.2603 13.2002 16.2318 13.2005 16.5919 13.3838Z" fill="white"/>
</svg>
