<svg width="30" height="30" viewBox="0 0 30 30" fill="none" xmlns="http://www.w3.org/2000/svg">
<path d="M1 15C1 8.39978 1 5.10044 3.05022 3.05022C5.10044 1 8.40133 1 15 1C21.6002 1 24.8996 1 26.9498 3.05022C29 5.10044 29 8.40133 29 15C29 21.6002 29 24.8996 26.9498 26.9498C24.8996 29 21.5987 29 15 29C8.39978 29 5.10044 29 3.05022 26.9498C1 24.8996 1 21.5987 1 15Z" stroke="#012433" stroke-width="1.5" stroke-linecap="round" stroke-linejoin="round"/>
<path d="M10.3335 8H19.6668M10.3335 12.3213H19.6668M16.9446 23.5556L10.3335 16.6427H12.6668C17.8531 16.6427 17.8531 8 12.6668 8" stroke="#012433" stroke-width="1.5" stroke-linecap="round" stroke-linejoin="round"/>
</svg>
