<svg width="42" height="36" viewBox="0 0 42 36" fill="none" xmlns="http://www.w3.org/2000/svg">
<mask id="path-1-inside-1_22800_2934" fill="white">
<path fill-rule="evenodd" clip-rule="evenodd" d="M18.6837 0.11817C15.8113 0.488338 12.7659 1.58596 10.3243 3.13083C7.86558 4.68646 5.1905 7.58169 4.02527 9.94819C3.57278 10.8673 3.55902 10.9739 3.85791 11.2576C4.31688 11.6937 4.73375 11.4704 5.24574 10.5144C7.77755 5.78562 12.8221 2.32515 18.3801 1.50428C20.232 1.23079 23.4614 1.37839 25.2606 1.81852C30.1322 3.01013 34.4632 6.34049 36.7453 10.6491C37.2296 11.5634 38.2121 14.1502 38.2121 14.5107C38.2121 14.5511 37.812 14.3994 37.3229 14.1738C36.307 13.705 35.7234 13.8046 35.8201 14.43C35.894 14.9076 38.4387 16.497 39.1436 16.5057C39.6788 16.5124 41.8547 14.1086 41.8547 13.5105C41.8547 13.0625 41.3597 12.771 40.9788 12.9945C40.8511 13.0694 40.5324 13.3723 40.2707 13.6677C39.6444 14.3746 39.4987 14.3462 39.3314 13.484C39.2545 13.0877 38.9199 12.1146 38.5881 11.3218C36.6804 6.76467 32.3865 2.8064 27.5461 1.14295C24.7407 0.178903 21.2997 -0.219133 18.6837 0.11817ZM14.0293 11.5009L9.98193 13.9662L9.83015 18.2658C9.74658 20.6304 9.70104 23.949 9.72897 25.6404L9.77956 28.7155L17.773 28.757L25.7665 28.7987L29.0467 25.4897L32.327 22.1808L32.3351 15.9099C32.3414 11.1152 32.2839 9.59436 32.0905 9.44886C31.9417 9.33701 29.003 9.21266 24.9571 9.14693L18.0766 9.03545L14.0293 11.5009ZM19.8878 10.5173C19.7819 10.6034 18.6839 11.3818 17.4472 12.247C15.2943 13.7537 15.1532 13.8203 14.1183 13.8203C13.4369 13.8203 13.1087 13.7531 13.2299 13.6381C13.3355 13.5378 14.5605 12.7619 15.9517 11.9138C18.0064 10.661 18.6315 10.3704 19.2807 10.3662C19.7204 10.3633 19.9936 10.4312 19.8878 10.5173ZM24.0369 10.505C24.0318 10.5842 23.1161 11.2978 22.0021 12.0906C18.8917 14.3041 19.1896 13.7736 19.1896 17.1002V19.9804L18.5566 19.6696C17.9558 19.3744 17.6688 19.3773 16.6094 19.6892L16.1541 19.8232V17.3081V14.793L19.2402 12.5922C22.0096 10.6174 22.4145 10.3899 23.1864 10.3762C23.6595 10.3678 24.0422 10.4258 24.0369 10.505ZM29.399 10.72C29.2934 10.8119 28.3101 11.5471 27.2143 12.3537L25.2218 13.8203H23.7234C22.8994 13.8203 22.2288 13.7554 22.2334 13.6762C22.2381 13.597 23.1714 12.8628 24.3077 12.0448L26.3736 10.5576L27.9824 10.5553C28.9054 10.554 29.5093 10.6241 29.399 10.72ZM30.9269 16.4751V21.6285L28.4985 24.0632L26.0701 26.4979L26.0707 23.5706C26.0711 21.9606 26.13 19.3018 26.2016 17.6623L26.3317 14.6814L28.5788 13.0102C29.8145 12.0912 30.8486 11.3355 30.8763 11.3305C30.904 11.3257 30.9269 13.6408 30.9269 16.4751ZM14.8942 18.2968C14.9587 22.0473 14.9842 22.0895 16.6554 21.231L17.6965 20.6961L18.759 21.2074C20.5691 22.0786 20.6062 22.0205 20.6062 18.3241V15.1657H22.7634H24.9204L24.7871 19.5212C24.7136 21.9166 24.6535 24.7274 24.6535 25.7676V27.6584H17.8742H11.0949L11.096 23.4782C11.0964 21.1789 11.1561 18.3218 11.2283 17.1286L11.36 14.9595L13.0994 15.0145L14.8387 15.0696L14.8942 18.2968ZM1.29271 16.5266C0.337542 17.4884 -0.0406815 18.0094 0.00343442 18.3025C0.0947018 18.9078 0.731752 18.9279 1.37143 18.346L1.92875 17.839L2.06859 19.4332C2.76614 27.3861 8.75134 33.8869 17.0156 35.6679C19.3622 36.1736 23.2685 36.0925 25.6783 35.4877C32.5296 33.7687 37.7254 28.7549 39.421 22.2264C39.9605 20.1497 39.9192 19.7031 39.1804 19.6221C38.7206 19.5718 38.6105 19.6502 38.5061 20.1026C37.9186 22.6485 37.4718 23.9658 36.6832 25.477C34.4879 29.6838 30.2386 32.9651 25.3618 34.2196C23.0611 34.8115 18.9595 34.8113 16.66 34.2194C13.3928 33.3781 10.6845 31.8592 8.34155 29.5538C5.33418 26.5948 3.75491 23.2418 3.46755 19.207L3.33803 17.3861L3.99957 18.1019C4.70279 18.8624 5.22085 18.9985 5.63024 18.5301C5.832 18.2991 5.82026 18.1578 5.56973 17.8094C5.03589 17.0665 3.08811 15.1657 2.86085 15.1657C2.74186 15.1657 2.03621 15.7782 1.29271 16.5266Z"/>
</mask>
<path fill-rule="evenodd" clip-rule="evenodd" d="M18.6837 0.11817C15.8113 0.488338 12.7659 1.58596 10.3243 3.13083C7.86558 4.68646 5.1905 7.58169 4.02527 9.94819C3.57278 10.8673 3.55902 10.9739 3.85791 11.2576C4.31688 11.6937 4.73375 11.4704 5.24574 10.5144C7.77755 5.78562 12.8221 2.32515 18.3801 1.50428C20.232 1.23079 23.4614 1.37839 25.2606 1.81852C30.1322 3.01013 34.4632 6.34049 36.7453 10.6491C37.2296 11.5634 38.2121 14.1502 38.2121 14.5107C38.2121 14.5511 37.812 14.3994 37.3229 14.1738C36.307 13.705 35.7234 13.8046 35.8201 14.43C35.894 14.9076 38.4387 16.497 39.1436 16.5057C39.6788 16.5124 41.8547 14.1086 41.8547 13.5105C41.8547 13.0625 41.3597 12.771 40.9788 12.9945C40.8511 13.0694 40.5324 13.3723 40.2707 13.6677C39.6444 14.3746 39.4987 14.3462 39.3314 13.484C39.2545 13.0877 38.9199 12.1146 38.5881 11.3218C36.6804 6.76467 32.3865 2.8064 27.5461 1.14295C24.7407 0.178903 21.2997 -0.219133 18.6837 0.11817ZM14.0293 11.5009L9.98193 13.9662L9.83015 18.2658C9.74658 20.6304 9.70104 23.949 9.72897 25.6404L9.77956 28.7155L17.773 28.757L25.7665 28.7987L29.0467 25.4897L32.327 22.1808L32.3351 15.9099C32.3414 11.1152 32.2839 9.59436 32.0905 9.44886C31.9417 9.33701 29.003 9.21266 24.9571 9.14693L18.0766 9.03545L14.0293 11.5009ZM19.8878 10.5173C19.7819 10.6034 18.6839 11.3818 17.4472 12.247C15.2943 13.7537 15.1532 13.8203 14.1183 13.8203C13.4369 13.8203 13.1087 13.7531 13.2299 13.6381C13.3355 13.5378 14.5605 12.7619 15.9517 11.9138C18.0064 10.661 18.6315 10.3704 19.2807 10.3662C19.7204 10.3633 19.9936 10.4312 19.8878 10.5173ZM24.0369 10.505C24.0318 10.5842 23.1161 11.2978 22.0021 12.0906C18.8917 14.3041 19.1896 13.7736 19.1896 17.1002V19.9804L18.5566 19.6696C17.9558 19.3744 17.6688 19.3773 16.6094 19.6892L16.1541 19.8232V17.3081V14.793L19.2402 12.5922C22.0096 10.6174 22.4145 10.3899 23.1864 10.3762C23.6595 10.3678 24.0422 10.4258 24.0369 10.505ZM29.399 10.72C29.2934 10.8119 28.3101 11.5471 27.2143 12.3537L25.2218 13.8203H23.7234C22.8994 13.8203 22.2288 13.7554 22.2334 13.6762C22.2381 13.597 23.1714 12.8628 24.3077 12.0448L26.3736 10.5576L27.9824 10.5553C28.9054 10.554 29.5093 10.6241 29.399 10.72ZM30.9269 16.4751V21.6285L28.4985 24.0632L26.0701 26.4979L26.0707 23.5706C26.0711 21.9606 26.13 19.3018 26.2016 17.6623L26.3317 14.6814L28.5788 13.0102C29.8145 12.0912 30.8486 11.3355 30.8763 11.3305C30.904 11.3257 30.9269 13.6408 30.9269 16.4751ZM14.8942 18.2968C14.9587 22.0473 14.9842 22.0895 16.6554 21.231L17.6965 20.6961L18.759 21.2074C20.5691 22.0786 20.6062 22.0205 20.6062 18.3241V15.1657H22.7634H24.9204L24.7871 19.5212C24.7136 21.9166 24.6535 24.7274 24.6535 25.7676V27.6584H17.8742H11.0949L11.096 23.4782C11.0964 21.1789 11.1561 18.3218 11.2283 17.1286L11.36 14.9595L13.0994 15.0145L14.8387 15.0696L14.8942 18.2968ZM1.29271 16.5266C0.337542 17.4884 -0.0406815 18.0094 0.00343442 18.3025C0.0947018 18.9078 0.731752 18.9279 1.37143 18.346L1.92875 17.839L2.06859 19.4332C2.76614 27.3861 8.75134 33.8869 17.0156 35.6679C19.3622 36.1736 23.2685 36.0925 25.6783 35.4877C32.5296 33.7687 37.7254 28.7549 39.421 22.2264C39.9605 20.1497 39.9192 19.7031 39.1804 19.6221C38.7206 19.5718 38.6105 19.6502 38.5061 20.1026C37.9186 22.6485 37.4718 23.9658 36.6832 25.477C34.4879 29.6838 30.2386 32.9651 25.3618 34.2196C23.0611 34.8115 18.9595 34.8113 16.66 34.2194C13.3928 33.3781 10.6845 31.8592 8.34155 29.5538C5.33418 26.5948 3.75491 23.2418 3.46755 19.207L3.33803 17.3861L3.99957 18.1019C4.70279 18.8624 5.22085 18.9985 5.63024 18.5301C5.832 18.2991 5.82026 18.1578 5.56973 17.8094C5.03589 17.0665 3.08811 15.1657 2.86085 15.1657C2.74186 15.1657 2.03621 15.7782 1.29271 16.5266Z" fill="url(#paint0_linear_22800_2934)" stroke="#012433" stroke-width="2" mask="url(#path-1-inside-1_22800_2934)"/>
<defs>
<linearGradient id="paint0_linear_22800_2934" x1="20.9273" y1="0" x2="20.9273" y2="36" gradientUnits="userSpaceOnUse">
<stop stop-color="#FF5500"/>
<stop offset="1" stop-color="#FF9900"/>
</linearGradient>
</defs>
</svg>
