<svg width="12" height="14" viewBox="0 0 12 14" fill="none" xmlns="http://www.w3.org/2000/svg">
<path fill-rule="evenodd" clip-rule="evenodd" d="M5.6555 0.526317C5.4174 0.587915 5.26542 0.673063 4.74815 1.03468C4.32396 1.33115 4.27108 1.3519 3.7552 1.42381C3.10197 1.51486 2.78802 1.65576 2.46919 2.00093C2.16144 2.33413 2.06945 2.56167 1.97701 3.21816C1.90433 3.73489 1.8902 3.76893 1.58325 4.16888C1.1752 4.70057 1.07604 4.94088 1.07374 5.40398C1.0715 5.86181 1.16314 6.08597 1.59996 6.69105C1.8879 7.08992 1.94216 7.20739 2.00509 7.56792L2.07772 7.98414L1.71732 8.54202C1.51906 8.8488 1.05158 9.55697 0.678431 10.1158C0.305282 10.6745 0 11.1446 0 11.1603C0 11.176 0.531617 11.1959 1.1814 11.2045L2.36274 11.2199L2.70666 12.0221C2.89585 12.4633 3.10151 12.9392 3.16369 13.0797L3.27675 13.3349L4.31466 11.7799C5.34046 10.2432 5.35441 10.2256 5.5041 10.2847C5.71326 10.3673 6.37522 10.3681 6.52633 10.2859C6.6445 10.2217 6.7026 10.2964 7.67466 11.7639C8.2378 12.6141 8.71148 13.3099 8.72727 13.3101C8.74306 13.3104 8.95946 12.8337 9.20819 12.2509L9.66035 11.1913H10.8302C11.4736 11.1913 12 11.177 12 11.1595C12 11.142 11.5447 10.4399 10.9882 9.5992L9.97631 8.07067L10.0414 7.61164C10.1006 7.19317 10.1367 7.10785 10.4492 6.64716C10.7911 6.14292 10.9668 5.71214 10.9662 5.37923C10.9656 5.0501 10.8443 4.76572 10.4692 4.21357C10.1188 3.69776 10.0874 3.62482 9.98429 3.0862C9.84879 2.3786 9.78913 2.22681 9.53661 1.94793C9.25171 1.63318 9.00299 1.52827 8.31669 1.43355C7.72898 1.35235 7.69631 1.34009 7.25707 1.0348C7.00777 0.86158 6.72207 0.678391 6.62216 0.627738C6.40507 0.517665 5.89539 0.464204 5.6555 0.526317ZM6.77512 1.90616L7.32057 2.28852L8.00957 2.38192C8.88448 2.50053 8.88976 2.5058 9.03629 3.39945L9.14411 4.05743L9.54643 4.62344C10.0732 5.36462 10.0767 5.44799 9.60815 6.10276C9.4208 6.3645 9.24419 6.61679 9.21554 6.66344C9.18695 6.71008 9.11874 7.05577 9.06402 7.4316C8.98978 7.94146 8.93598 8.14344 8.85215 8.2271C8.77166 8.30743 8.53608 8.37533 8.02163 8.46632C7.30616 8.5929 7.30157 8.59473 6.80245 8.95103C6.52691 9.14774 6.23724 9.33304 6.15881 9.36278C5.93173 9.44896 5.67531 9.34244 5.17166 8.9528L4.70704 8.59342L4.00427 8.49165C3.10668 8.36164 3.10559 8.36055 2.96038 7.43653L2.85307 6.7538L2.48612 6.24767C1.89439 5.43143 1.89399 5.39584 2.46695 4.63043L2.85301 4.11473L2.92031 3.5513C3.03192 2.61742 3.16186 2.48609 4.09079 2.36834L4.67943 2.29374L5.22488 1.90673C6.00149 1.35573 5.98995 1.35573 6.77512 1.90616ZM10.1459 10.1417C10.1688 10.2011 10.0486 10.2172 9.58031 10.2176L8.98565 10.218L8.78894 10.7075C8.68071 10.9767 8.57116 11.21 8.54543 11.2258C8.51977 11.2417 8.26731 10.8992 7.98448 10.4648L7.4702 9.67484L7.62505 9.57966C7.7102 9.52729 8.03828 9.4422 8.35407 9.39057C8.66986 9.33895 9.04346 9.2385 9.18431 9.16739L9.44044 9.03806L9.77868 9.55216C9.96471 9.83488 10.13 10.1002 10.1459 10.1417ZM2.82695 9.21489C3.0112 9.31769 3.26119 9.38181 3.70387 9.43979C4.64767 9.5635 4.64446 9.55141 3.99215 10.5207L3.46008 11.3112L3.23724 10.765L3.01435 10.2188L2.42584 10.218C2.10212 10.2175 1.83732 10.1991 1.83732 10.1771C1.83732 10.1368 2.52924 9.07118 2.55537 9.07118C2.563 9.07118 2.68524 9.13587 2.82695 9.21489Z" fill="black"/>
</svg>
