<svg width="12" height="11" viewBox="0 0 12 11" fill="none" xmlns="http://www.w3.org/2000/svg">
<path fill-rule="evenodd" clip-rule="evenodd" d="M1.66688 1.43059C1.40995 1.82875 0.929885 2.58792 0.599898 3.11766L0 4.08088L0.299413 4.40239C0.464084 4.57925 1.79186 6.06086 3.24988 7.69493C4.70789 9.32889 5.94481 10.6659 5.99844 10.6659C6.05208 10.6659 7.289 9.32889 8.74701 7.69493C10.205 6.06086 11.5334 4.57861 11.699 4.40078L12 4.07767L10.956 2.42016L9.91205 0.76275L6.0229 0.7347L2.13386 0.706543L1.66688 1.43059ZM4.72431 2.19362C3.70066 3.31261 3.57053 3.42899 3.48932 3.29784C3.38119 3.12322 2.67283 1.41432 2.67283 1.32803C2.67283 1.2821 3.3298 1.24452 4.13267 1.24452H5.59251L4.72431 2.19362ZM9.32406 1.29527C9.32406 1.37214 8.68265 2.96734 8.55906 3.19785C8.42443 3.4489 8.41188 3.43916 7.27258 2.19362L6.40438 1.24452H7.86422C8.66709 1.24452 9.32406 1.26733 9.32406 1.29527ZM6.88756 2.57497C7.34264 3.07109 7.71489 3.50468 7.71489 3.53851C7.71489 3.57224 6.94249 3.59986 5.99844 3.59986C5.0544 3.59986 4.282 3.57224 4.282 3.53851C4.282 3.45458 5.9212 1.67277 5.99844 1.67277C6.03245 1.67277 6.43249 2.07874 6.88756 2.57497ZM2.64977 2.65162C2.84362 3.12976 2.98254 3.54065 2.9583 3.56474C2.93416 3.58883 2.50086 3.59461 1.99558 3.57748L1.07664 3.54633L1.62172 2.66308C1.92146 2.17734 2.19609 1.78036 2.23202 1.78111C2.26796 1.78175 2.45591 2.17349 2.64977 2.65162ZM10.3906 2.68984L10.9227 3.54633L10.0026 3.57748C9.49656 3.59461 9.06198 3.58808 9.03677 3.56303C8.96522 3.49151 9.68988 1.77662 9.77903 1.80659C9.82279 1.82126 10.098 2.21878 10.3906 2.68984ZM3.34632 4.32252C3.37647 4.42562 3.8133 5.50961 4.31708 6.73139C4.82086 7.95316 5.21628 8.9529 5.1959 8.9529C5.13432 8.9529 0.956383 4.26803 0.956383 4.19897C0.956383 4.16386 1.48183 4.13516 2.12389 4.13516C3.14346 4.13516 3.29847 4.15893 3.34632 4.32252ZM8.11536 4.26899C7.70331 5.33703 6.03824 9.27322 5.99844 9.27322C5.95864 9.27322 4.29358 5.33703 3.88153 4.26899C3.8413 4.1646 4.30764 4.13516 5.99844 4.13516C7.68925 4.13516 8.15559 4.1646 8.11536 4.26899ZM11.0405 4.19897C11.0405 4.26803 6.86257 8.9529 6.80099 8.9529C6.78061 8.9529 7.17603 7.95316 7.67981 6.73139C8.18359 5.50961 8.62042 4.42562 8.65057 4.32252C8.69842 4.15893 8.85343 4.13516 9.873 4.13516C10.5151 4.13516 11.0405 4.16386 11.0405 4.19897Z" fill="black"/>
</svg>
