<svg width="10" height="12" viewBox="0 0 10 12" fill="none" xmlns="http://www.w3.org/2000/svg">
<path fill-rule="evenodd" clip-rule="evenodd" d="M2.5183 1.75434C1.08511 2.47204 0.100168 2.99896 0.0632993 3.06767C-0.00120703 3.18792 -0.0266685 8.68262 0.0361914 8.91624C0.0595947 9.00315 0.767282 9.43635 2.50466 10.4273C3.8443 11.1914 4.96719 11.8165 5 11.8165C5.03281 11.8165 6.1557 11.1914 7.49534 10.4273C9.23272 9.43635 9.9404 9.00315 9.96381 8.91624C10.0267 8.68262 10.0012 3.18792 9.9367 3.06762C9.87572 2.95395 5.1356 0.546048 4.98559 0.552503C4.94502 0.554264 3.83471 1.09509 2.5183 1.75434ZM6.41126 2.51523L7.79217 3.89429H5H2.20782L3.58874 2.51523C4.34823 1.75675 4.9833 1.13617 5 1.13617C5.0167 1.13617 5.65177 1.75675 6.41126 2.51523ZM2.69965 2.75665L1.6051 3.84898L1.18566 3.53573C0.95498 3.36344 0.766224 3.20834 0.766224 3.19108C0.766224 3.16298 3.6937 1.67576 3.76497 1.66766C3.78103 1.66584 3.30161 2.15585 2.69965 2.75665ZM9.23378 3.19108C9.23378 3.20834 9.04502 3.36344 8.81434 3.53573L8.3949 3.84898L7.30018 2.75213L6.20545 1.65534L7.71961 2.40749C8.55237 2.8212 9.23378 3.17383 9.23378 3.19108ZM1.18731 4.14375L1.34378 4.27573L0.941631 5.65479L0.539481 7.03385L0.535248 5.34306L0.531014 3.65228L0.780924 3.83203C0.918346 3.93091 1.10122 4.07116 1.18731 4.14375ZM9.46475 5.3467L9.46058 7.03385L9.1705 6.03623C9.01091 5.48754 8.82939 4.85951 8.76706 4.64062L8.65375 4.24263L9.04667 3.95315C9.26276 3.79388 9.44623 3.66272 9.45429 3.66161C9.46234 3.66049 9.4671 4.4188 9.46475 5.3467ZM7.71079 4.78921C7.58366 4.99096 6.93407 6.02743 6.26731 7.09253C5.60061 8.15764 5.03028 9.02909 5 9.02909C4.96972 9.02909 4.39939 8.15764 3.73269 7.09253C3.06593 6.02743 2.41634 4.99096 2.28921 4.78921L2.05805 4.42244H5H7.94195L7.71079 4.78921ZM3.1369 7.01918C3.89934 8.23756 4.49154 9.2346 4.45284 9.23471C4.33136 9.23518 0.620629 8.69794 0.59946 8.67687C0.57882 8.65621 1.63973 4.90077 1.69054 4.81462C1.72682 4.75318 1.55606 4.49286 3.1369 7.01918ZM8.8799 6.75968C9.17727 7.80307 9.41159 8.66584 9.40054 8.67687C9.37943 8.69794 5.6687 9.23518 5.54745 9.23471C5.50893 9.2346 6.10431 8.23269 6.87051 7.00832C7.63664 5.78395 8.28053 4.80024 8.30135 4.82237C8.32216 4.84449 8.58248 5.71629 8.8799 6.75968ZM3.31449 9.55389C4.08533 9.66345 4.72792 9.76492 4.74239 9.77935C4.75685 9.79379 4.76114 10.111 4.75203 10.4843L4.73539 11.163L3.15995 10.2647C2.29344 9.77067 1.56576 9.34762 1.54289 9.32462C1.52001 9.30155 1.59387 9.29891 1.70706 9.31869C1.82026 9.33846 2.54359 9.44433 3.31449 9.55389ZM8.45223 9.32984C8.432 9.34997 7.70656 9.77067 6.84005 10.2647L5.26461 11.163L5.24797 10.4843C5.23886 10.111 5.2435 9.79344 5.25844 9.77859C5.28108 9.756 8.15028 9.31928 8.40566 9.29956C8.45147 9.29604 8.4724 9.30965 8.45223 9.32984Z" fill="black"/>
</svg>
