<svg width="15" height="14" viewBox="0 0 15 14" fill="none" xmlns="http://www.w3.org/2000/svg">
<path fill-rule="evenodd" clip-rule="evenodd" d="M5.26954 0.894061C5.13848 1.14462 4.63429 3.73774 4.68069 3.92245L4.72709 4.10686H7.50538H10.2837L10.3306 3.92009C10.3778 3.73257 9.87441 1.1453 9.74183 0.894061C9.67744 0.772089 9.49091 0.760986 7.50538 0.760986C5.51962 0.760986 5.33331 0.772089 5.26954 0.894061ZM9.25577 1.61646C9.4279 2.37453 9.60079 3.24917 9.60079 3.36187C9.60079 3.49007 9.47103 3.49852 7.50538 3.49852C5.53973 3.49852 5.40997 3.49007 5.40997 3.36187C5.40997 3.24917 5.58286 2.37453 5.75499 1.61646L5.79385 1.44537H7.50538H9.21691L9.25577 1.61646ZM1.91604 5.0764C1.87726 5.14963 1.71427 5.84709 1.5538 6.62645C1.30655 7.82693 1.27759 8.06213 1.36415 8.16631C1.45475 8.2752 1.7715 8.28919 4.14678 8.28919C6.97909 8.28919 7.0101 8.28539 7.0101 7.9362C7.0101 7.7115 6.49791 5.33441 6.40213 5.11442L6.32761 4.94332H4.15707C2.16749 4.94332 1.98058 4.95442 1.91604 5.0764ZM8.62159 5.0764C8.53952 5.23213 8.00066 7.72899 8.00066 7.95377C8.00066 8.25018 8.13873 8.28919 9.18765 8.28919C10.2865 8.28919 10.424 8.239 10.3317 7.87195C10.2844 7.68382 10.2719 7.68085 9.52315 7.68085C8.81124 7.68085 8.76263 7.67104 8.76263 7.52747C8.76263 7.38687 9.02505 6.07263 9.11534 5.76078C9.15009 5.64078 9.28053 5.6277 10.4391 5.6277C11.8503 5.6277 12.1153 5.5763 12.1153 5.30262C12.1153 4.96066 12.0283 4.94332 10.3121 4.94332C8.84644 4.94332 8.68506 4.95602 8.62159 5.0764ZM5.90311 5.7988C6.07524 6.55687 6.24813 7.43151 6.24813 7.5442C6.24813 7.67241 6.11837 7.68085 4.15272 7.68085C2.18708 7.68085 2.05731 7.67241 2.05731 7.5442C2.05731 7.43151 2.2302 6.55687 2.40233 5.7988L2.44119 5.6277H4.15272H5.86425L5.90311 5.7988ZM12.8378 5.85735C12.7278 5.97856 12.7169 6.04396 12.7822 6.18715C12.8465 6.3279 12.9638 6.38532 13.3372 6.45862C13.5976 6.5098 13.7806 6.58021 13.744 6.61512C13.6282 6.72538 8.69397 9.96213 8.6417 9.96213C8.61427 9.96213 7.95532 9.72138 7.17735 9.42709C6.39938 9.13281 5.71597 8.91 5.65875 8.9319C5.60145 8.9538 4.30481 9.79734 2.7773 10.8063C0.48423 12.321 0 12.6709 0 12.813C0 13.0248 0.180967 13.1861 0.36483 13.1381C0.440189 13.1184 1.67717 12.3274 3.11378 11.3802C4.55032 10.4329 5.77053 9.65796 5.82547 9.65796C5.88033 9.65796 6.54957 9.89711 7.31253 10.1893C8.48885 10.6399 8.72491 10.7075 8.86458 10.6335C8.95517 10.5855 9.42363 10.283 9.90558 9.96129C10.3875 9.63955 11.5494 8.87335 12.4876 8.25855L14.1933 7.14072L14.1412 7.46786C14.1126 7.6477 14.0711 7.867 14.0492 7.95506C14.0077 8.12129 14.1875 8.36615 14.3494 8.36409C14.5671 8.36128 14.66 8.18159 14.8264 7.44231C15.033 6.52326 15.0484 6.28585 14.9087 6.17012C14.8525 6.12358 14.4667 6.01704 14.0514 5.93324C13.6361 5.84952 13.224 5.7642 13.1356 5.74359C13.0353 5.72025 12.9233 5.76306 12.8378 5.85735Z" fill="black"/>
</svg>
