<svg width="13" height="11" viewBox="0 0 13 11" fill="none" xmlns="http://www.w3.org/2000/svg">
<path fill-rule="evenodd" clip-rule="evenodd" d="M6.35342 0.844476C6.30741 0.890396 6.26976 1.04513 6.26976 1.18839C6.26976 1.44498 6.26544 1.44901 5.97347 1.47016C5.72165 1.48832 5.67362 1.51643 5.65368 1.6576C5.62545 1.85679 5.73957 1.94126 6.039 1.94272C6.24418 1.94369 6.263 1.96338 6.28301 2.19764C6.3247 2.6871 6.75778 2.66984 6.75778 2.17878C6.75778 1.96025 6.77367 1.94369 6.98435 1.94272C7.28783 1.94126 7.40223 1.85756 7.37386 1.6576C7.35392 1.51643 7.30588 1.48832 7.05407 1.47016C6.7621 1.44901 6.75778 1.44498 6.75778 1.18839C6.75778 0.930054 6.66122 0.760986 6.51377 0.760986C6.47159 0.760986 6.39943 0.798557 6.35342 0.844476ZM2.06086 3.23285C2.03674 3.29539 2.01708 3.43802 2.01708 3.54969C2.01708 3.73212 1.99414 3.75285 1.7905 3.75375C1.48703 3.75521 1.37262 3.83891 1.401 4.03887C1.42094 4.18004 1.46897 4.20815 1.72079 4.22631C2.00279 4.24669 2.01715 4.25845 2.01813 4.46982C2.01959 4.76885 2.10422 4.88275 2.30382 4.85457C2.44528 4.83467 2.47344 4.78673 2.49164 4.53543C2.5129 4.24287 2.51597 4.23973 2.77943 4.23973C3.32154 4.23973 3.33862 3.80649 2.79811 3.76628C2.51674 3.7454 2.51241 3.74102 2.4915 3.45319C2.47281 3.19653 2.4482 3.15875 2.28744 3.14017C2.16829 3.1264 2.08938 3.15868 2.06086 3.23285ZM10.5689 3.17294C10.5434 3.19841 10.5224 3.3393 10.5224 3.48603C10.5224 3.74937 10.519 3.75271 10.2521 3.75271C9.70663 3.75271 9.68592 4.18574 10.2294 4.22617C10.5108 4.24704 10.5151 4.25142 10.536 4.53925C10.554 4.78659 10.5827 4.83474 10.7237 4.85457C10.9233 4.88275 11.0079 4.76885 11.0094 4.46982C11.0104 4.25845 11.0248 4.24669 11.3068 4.22631C11.5586 4.20815 11.6066 4.18004 11.6265 4.03887C11.6549 3.83891 11.5405 3.75521 11.237 3.75375C11.0334 3.75285 11.0105 3.73212 11.0105 3.54969C11.0105 3.43802 10.9914 3.29713 10.9681 3.2366C10.926 3.12716 10.6577 3.08437 10.5689 3.17294ZM5.11422 4.3178C5.08661 4.36233 4.88332 4.82479 4.66239 5.34549L4.26082 6.2922L3.64439 6.32698L3.02796 6.36177L2.59788 7.37061L2.16774 8.37945L1.55214 8.41423L0.93648 8.44902L0.470707 9.52743C0.21457 10.1206 0.00277231 10.6568 0.0001231 10.7191C-0.00252611 10.7814 0.0379092 10.8677 0.0900568 10.9108C0.159145 10.9681 1.90456 10.9845 6.54863 10.9715C12.3583 10.9552 12.9187 10.9438 12.9845 10.8396C13.0399 10.7521 12.9535 10.4773 12.6127 9.65684C12.3686 9.06907 12.1406 8.55018 12.1062 8.50384C12.0679 8.45236 11.8126 8.41166 11.4518 8.39948L10.86 8.37945L10.4298 7.37061L9.99957 6.36177L9.38503 6.32698L8.77048 6.2922L8.33928 5.28336L7.90809 4.27452L6.53622 4.25567C5.55001 4.2421 5.15026 4.25956 5.11422 4.3178ZM7.87135 5.4399C8.03435 5.83217 8.18319 6.19222 8.20215 6.24002C8.22927 6.3082 7.8641 6.32698 6.51377 6.32698C5.16344 6.32698 4.79826 6.3082 4.82538 6.24002C4.84435 6.19222 4.99319 5.83217 5.15619 5.4399L5.45248 4.72676H6.51377H7.57506L7.87135 5.4399ZM5.77987 7.52715C5.94286 7.91935 6.09171 8.27947 6.11067 8.32726C6.13779 8.39545 5.77262 8.41423 4.42229 8.41423C3.07195 8.41423 2.70678 8.39545 2.7339 8.32726C2.75286 8.27947 2.90171 7.91935 3.0647 7.52715L3.361 6.81401H4.42229H5.48357L5.77987 7.52715ZM6.7973 7.34007C6.67126 7.62936 6.54019 7.85937 6.5061 7.85123C6.44447 7.83648 6.06061 6.99671 6.06061 6.8767C6.06061 6.84219 6.27792 6.81401 6.54354 6.81401H7.02653L6.7973 7.34007ZM9.96284 7.52715C10.1258 7.91935 10.2747 8.27947 10.2936 8.32726C10.3208 8.39545 9.95558 8.41423 8.60525 8.41423C7.25492 8.41423 6.88975 8.39545 6.91687 8.32726C6.93583 8.27947 7.08467 7.91935 7.24767 7.52715L7.54396 6.81401H8.60525H9.66654L9.96284 7.52715ZM3.68838 9.6144C3.85138 10.0066 4.00022 10.3667 4.01919 10.4145C4.04631 10.4827 3.68113 10.5015 2.3308 10.5015C0.980471 10.5015 0.615298 10.4827 0.642418 10.4145C0.66138 10.3667 0.810224 10.0066 0.973221 9.6144L1.26951 8.90126H2.3308H3.39209L3.68838 9.6144ZM4.70582 9.42731C4.57977 9.71661 4.44871 9.94662 4.41462 9.93848C4.35299 9.92373 3.96913 9.08396 3.96913 8.96394C3.96913 8.92944 4.18644 8.90126 4.45205 8.90126H4.93505L4.70582 9.42731ZM7.87135 9.6144C8.03435 10.0066 8.18319 10.3667 8.20215 10.4145C8.22927 10.4827 7.8641 10.5015 6.51377 10.5015C5.16344 10.5015 4.79826 10.4827 4.82538 10.4145C4.84435 10.3667 4.99319 10.0066 5.15619 9.6144L5.45248 8.90126H6.51377H7.57506L7.87135 9.6144ZM8.88879 9.42731C8.76274 9.71661 8.63167 9.94662 8.59758 9.93848C8.53595 9.92373 8.1521 9.08396 8.1521 8.96394C8.1521 8.92944 8.3694 8.90126 8.63502 8.90126H9.11801L8.88879 9.42731ZM12.0543 9.6144C12.2173 10.0066 12.3662 10.3667 12.3851 10.4145C12.4122 10.4827 12.0471 10.5015 10.6967 10.5015C9.34641 10.5015 8.98123 10.4827 9.00835 10.4145C9.02731 10.3667 9.17616 10.0066 9.33915 9.6144L9.63545 8.90126H10.6967H11.758L12.0543 9.6144Z" fill="black"/>
</svg>
