<svg width="13" height="12" viewBox="0 0 13 12" fill="none" xmlns="http://www.w3.org/2000/svg">
<path fill-rule="evenodd" clip-rule="evenodd" d="M5.09929 0.723596C3.97304 0.825775 2.61792 1.18583 1.74529 1.61473C0.911486 2.02453 0.153613 2.75492 0.0557412 3.24292C0.0240503 3.40133 -0.00104965 4.3267 3.37998e-05 5.29929C0.00174926 6.81747 0.0253142 7.1186 0.166975 7.42801C0.518826 8.19679 1.7099 8.97295 3.06782 9.31832C3.41164 9.40572 4.03986 9.69063 4.58474 10.0062C5.09631 10.3024 5.64941 10.6203 5.81383 10.7125C5.97833 10.8047 6.19466 10.9311 6.2947 10.9935C6.45568 11.0937 6.63219 11.0169 7.83283 10.3231C8.81263 9.75686 9.4358 9.46321 10.0785 9.26507C11.6093 8.79301 12.648 8.03703 12.8946 7.21555C13.0378 6.73871 13.034 3.6911 12.8897 3.20355C12.6322 2.33413 11.3244 1.46128 9.64111 1.03545C8.20374 0.671876 6.76148 0.572851 5.09929 0.723596ZM7.72449 1.35118C11.0766 1.67519 13.1021 3.11732 12.019 4.40879L11.7806 4.69307L11.3743 4.46718C9.06752 3.18454 4.42177 3.13065 1.83513 4.35653L1.18777 4.66333L1.01044 4.46889C0.585097 4.00214 0.533904 3.65668 0.816684 3.1603C1.31155 2.29142 3.0123 1.57491 5.10055 1.35559C6.14969 1.24539 6.62154 1.24458 7.72449 1.35118ZM7.57235 4.14145C8.13801 4.19146 8.95059 4.31805 9.3781 4.42275C10.126 4.60594 11.1034 4.9778 11.1034 5.07917C11.1034 5.20621 9.49954 5.75919 9.12765 5.76036C9.00937 5.76081 8.38729 5.45698 7.74516 5.08529C7.10313 4.71361 6.5364 4.40951 6.48584 4.40951C6.43518 4.40951 5.86953 4.71361 5.22885 5.08529C4.58817 5.45698 3.966 5.76108 3.84628 5.76108C3.39421 5.76108 1.89408 5.22036 1.89408 5.05736C1.89408 4.95023 3.04299 4.5343 3.79012 4.37103C5.12899 4.07846 6.15421 4.0162 7.57235 4.14145ZM2.56384 6.07617C3.04904 6.2426 3.46816 6.40091 3.49524 6.42794C3.57424 6.50678 3.58878 8.53216 3.51122 8.6574C3.36749 8.8896 1.83016 8.2686 1.21566 7.73014C0.705721 7.2834 0.63006 7.05913 0.63006 5.99535V5.04934L1.1558 5.41147C1.44834 5.61286 2.07312 5.90786 2.56384 6.07617ZM12.3217 6.82359C12.223 7.49604 11.5362 8.06938 10.2648 8.54081C9.35625 8.87762 9.38795 8.91267 9.38795 7.57191V6.40938L10.0386 6.21214C10.7235 6.00454 11.7159 5.53023 12.0966 5.22856L12.3223 5.0497L12.3504 5.74333C12.3658 6.12474 12.3529 6.61086 12.3217 6.82359ZM6.1376 5.6644C6.1376 5.99841 6.11015 6.03383 5.64499 6.29945C5.17053 6.57031 5.14218 6.57544 4.87754 6.43894C4.7264 6.36091 4.60307 6.26774 4.60343 6.23179C4.60406 6.18142 6.01381 5.32461 6.11502 5.31308C6.12748 5.31173 6.1376 5.46977 6.1376 5.6644ZM7.41932 5.63709C7.73234 5.81667 8.08546 6.024 8.20392 6.09771L8.41943 6.23188L8.13927 6.40884L7.8592 6.58581L7.3144 6.29603C6.79245 6.01842 6.76961 5.99175 6.76961 5.65845C6.76961 5.46707 6.78776 5.31056 6.80988 5.31056C6.83209 5.31056 7.10629 5.45752 7.41932 5.63709ZM6.99668 6.85089L7.49191 7.12986L7.4901 7.72942L7.48839 8.32906L6.98458 8.62298L6.48078 8.91691L5.97056 8.60722L5.46044 8.29762V7.73329V7.16896L5.95702 6.8709C6.23014 6.70691 6.46435 6.57256 6.47753 6.57238C6.49071 6.5722 6.72428 6.69754 6.99668 6.85089ZM4.61138 7.02867C4.84965 7.19798 4.87357 7.26312 4.87357 7.74221C4.87357 8.24346 4.85867 8.27851 4.56948 8.45683C4.40227 8.56 4.244 8.64443 4.21781 8.64443C4.19172 8.64443 4.17429 8.23896 4.17908 7.74338C4.18387 7.24781 4.22413 6.84233 4.26846 6.84233C4.3128 6.84233 4.4671 6.92622 4.61138 7.02867ZM8.75593 7.75167V8.66101L8.4625 8.49035C8.18514 8.32906 8.16762 8.28797 8.14306 7.7387C8.11841 7.1878 8.13006 7.14968 8.36878 7.00245C8.50719 6.91703 8.65102 6.84603 8.68822 6.84477C8.72542 6.84342 8.75593 7.2515 8.75593 7.75167ZM5.70873 9.18695C6.10744 9.43681 6.1376 9.48186 6.1376 9.82696C6.1376 10.111 6.11105 10.1776 6.02474 10.1101C5.96271 10.0616 5.61014 9.84787 5.24131 9.63522L4.57075 9.24858L4.77732 9.08171C5.05722 8.85545 5.20682 8.87239 5.70873 9.18695ZM8.12844 9.05224C8.27488 9.12784 8.39478 9.20533 8.39478 9.22452C8.39478 9.28201 6.96625 10.0861 6.86414 10.0861C6.81213 10.0861 6.76961 9.94752 6.76961 9.77821C6.76961 9.50177 6.81818 9.44203 7.24362 9.19452C7.7978 8.87203 7.78372 8.87438 8.12844 9.05224Z" fill="black"/>
</svg>
