<svg width="10" height="13" viewBox="0 0 10 13" fill="none" xmlns="http://www.w3.org/2000/svg">
<path fill-rule="evenodd" clip-rule="evenodd" d="M3.84121 0.176264C2.26283 0.523402 1.02947 1.43043 0.387301 2.71634C0.11396 3.26375 0.00131586 3.75082 1.03848e-05 4.39133C-0.00191674 5.35018 0.264027 6.13062 1.08598 7.57789C1.70763 8.67248 2.185 9.36923 3.46455 11.0493C4.706 12.6793 4.74137 12.7177 5.00327 12.7177C5.26517 12.7177 5.30055 12.6793 6.54199 11.0493C7.81731 9.37477 8.29673 8.6756 8.92255 7.57789C9.78846 6.05888 10.0456 5.23947 9.9936 4.16512C9.93927 3.04335 9.49852 2.20242 8.52152 1.35659C7.84193 0.768228 7.37737 0.518074 6.50562 0.270987C5.74099 0.0543085 4.58297 0.0131363 3.84121 0.176264ZM5.44471 0.874469C7.35331 1.06451 8.82868 2.31221 9.08356 3.95173C9.24557 4.99378 8.70771 6.40908 7.39782 8.38756C7.04199 8.92495 5.04617 11.5875 4.99911 11.5875C4.95901 11.5875 3.29801 9.38882 2.8442 8.73502C1.99384 7.50981 1.28248 6.17416 1.01859 5.30712C0.942998 5.05869 0.907626 4.75014 0.908745 4.3487C0.910174 3.84608 0.936222 3.69172 1.08094 3.32666C1.54986 2.14381 2.62631 1.25745 3.94752 0.966232C4.60833 0.820649 4.79129 0.809401 5.44471 0.874469ZM4.50595 2.43137C3.83929 2.58309 3.24554 2.98991 2.9474 3.49937C2.79006 3.7682 2.76239 3.88262 2.74374 4.34122C2.72267 4.85967 2.72733 4.88109 2.94752 5.26671C3.93477 6.99615 6.83833 6.63001 7.27206 4.7214C7.46962 3.85205 6.82733 2.86284 5.85786 2.54321C5.47517 2.41705 4.81056 2.36205 4.50595 2.43137ZM5.71824 3.36649C6.51451 3.78047 6.63704 4.66295 5.97722 5.23178C5.38621 5.74129 4.62033 5.74129 4.02933 5.23178C3.56439 4.83098 3.47531 4.33368 3.77818 3.83009C4.02249 3.42402 4.4684 3.19157 5.00327 3.19157C5.31982 3.19157 5.43681 3.22021 5.71824 3.36649Z" fill="black"/>
</svg>
