<svg width="13" height="11" viewBox="0 0 13 11" fill="none" xmlns="http://www.w3.org/2000/svg">
<path fill-rule="evenodd" clip-rule="evenodd" d="M2.08766 0.752422C1.98325 0.803798 1.84009 0.926582 1.76952 1.02529C1.64724 1.19639 1.64042 1.26774 1.62381 2.54695L1.60635 3.88908H6.902H12.1976V5.93835V7.98762H9.36328H6.52897V8.39373V8.79977L9.49799 8.78338L12.467 8.76692L12.6775 8.60668C12.8087 8.50675 12.9116 8.36544 12.9507 8.23146C12.9936 8.0846 13.0079 6.93418 12.9959 4.60044C12.9788 1.25019 12.9762 1.18121 12.8587 1.02143C12.7928 0.931777 12.6496 0.813035 12.5405 0.75756C12.3561 0.663698 11.9881 0.656713 7.30985 0.657809C2.79253 0.658906 2.25806 0.668604 2.08766 0.752422ZM12.1976 1.86867V2.27275H7.30985H2.42211V1.86867V1.46459H7.30985H12.1976V1.86867ZM2.04613 4.83359C1.54104 5.00152 1.21914 5.19882 0.844205 5.57018C0.118275 6.28927 -0.151621 7.22495 0.0817755 8.21316C0.350052 9.34898 1.28815 10.195 2.47 10.3669C3.81537 10.5625 5.14004 9.7175 5.5465 8.40423C5.69944 7.90992 5.70019 7.19897 5.54824 6.71171C5.30894 5.94441 4.62732 5.21233 3.88224 4.92232C3.46959 4.76167 2.41563 4.71075 2.04613 4.83359ZM8.00397 4.84779C7.27884 5.24229 7.10705 6.17157 7.64921 6.76643C8.01582 7.16861 8.75957 7.26022 9.17963 6.95485C9.31909 6.85348 9.32903 6.85441 9.57614 6.99226C9.9147 7.18108 10.3783 7.18044 10.7478 6.99075C11.5205 6.59389 11.5775 5.44826 10.8496 4.94483C10.5204 4.71716 9.96438 4.69049 9.58609 4.88422L9.31729 5.02189L9.15417 4.90338C8.93431 4.74354 8.25587 4.71069 8.00397 4.84779ZM4.57821 6.4158L4.85001 6.69121L3.54953 7.98814L2.24898 9.28507L1.55469 8.59398C1.17281 8.21385 0.860344 7.88724 0.860344 7.86813C0.860344 7.84908 0.981698 7.71066 1.13001 7.56051L1.39967 7.28752L1.82326 7.70742L2.2469 8.12738L2.45346 7.92759C2.56706 7.81774 3.01644 7.37076 3.45212 6.93436C3.88774 6.49795 4.25816 6.1408 4.27528 6.14062C4.29235 6.14051 4.42868 6.26433 4.57821 6.4158Z" fill="black"/>
</svg>
