<svg width="15" height="10" viewBox="0 0 15 10" fill="none" xmlns="http://www.w3.org/2000/svg">
<path fill-rule="evenodd" clip-rule="evenodd" d="M2.13472 0.770061C2.09581 0.816864 2.06529 1.20965 2.05558 1.78855L2.03971 2.73082L1.60866 2.7595L1.17761 2.78817V2.98892V3.18967L2.38456 3.20591C3.04838 3.21485 3.65127 3.20751 3.72432 3.18962C3.8341 3.16272 3.85404 3.12509 3.83927 2.97263L3.82139 2.78817L3.20355 2.77188L2.58571 2.75559V1.98322V1.21085H6.38747H10.1892L10.1523 1.68405C10.132 1.94433 10.1153 3.15744 10.1151 4.37984L10.1147 6.60243H6.35023H2.58571V5.71534V4.82825L3.20355 4.81196L3.82139 4.79568L3.83927 4.61121C3.85404 4.45876 3.8341 4.42119 3.72432 4.3944C3.65127 4.37662 2.80549 4.36928 1.84482 4.37812C0.254126 4.39274 0.0923959 4.40312 0.0346925 4.49455C-0.0115162 4.56768 -0.0115737 4.62217 0.0345776 4.6953C0.0895223 4.78243 0.225907 4.79946 1.06881 4.82435L2.03971 4.85303L2.05483 5.91414C2.06782 6.8295 2.08316 6.98511 2.16639 7.04695C2.22708 7.09203 2.45766 7.11864 2.78808 7.11864H3.31327L3.14234 7.46278L2.97142 7.80693H2.66738C2.25651 7.80693 2.06845 7.8839 2.06845 8.05213C2.06845 8.26768 2.17702 8.32314 2.59864 8.32314C2.97435 8.32314 2.99326 8.3298 3.04809 8.48088C3.20792 8.92121 3.49426 9.24659 3.87306 9.41832C4.60516 9.75007 5.64377 9.30114 5.86745 8.55613L5.9374 8.32314H8.4529H10.9684L11.1067 8.62461C11.3764 9.21247 11.839 9.5246 12.4424 9.52581C13.0649 9.52707 13.6956 9.09121 13.859 8.54689L13.9225 8.33525L14.3245 8.31259C14.678 8.29269 14.743 8.27078 14.8633 8.13128L15 7.97258L14.9991 6.38413C14.9986 5.51046 14.9793 4.76596 14.956 4.7296C14.9328 4.69329 14.6324 4.55116 14.2885 4.41373L13.6632 4.16389L13.1583 3.22977C12.8807 2.71602 12.6223 2.25802 12.584 2.21208C12.5286 2.14543 12.3316 2.12857 11.6076 2.12857H10.7005L10.6638 1.51198C10.6436 1.17282 10.606 0.85667 10.5802 0.809351C10.5392 0.734327 10.0008 0.721422 6.36569 0.708631C2.95734 0.696586 2.18656 0.707771 2.13472 0.770061ZM12.5799 3.23355C12.7504 3.55642 12.99 3.99348 13.1123 4.20478L13.3348 4.5889L13.9087 4.80703L14.4826 5.0251L14.4827 5.81377L14.4827 6.60243H12.5861H10.6895V4.6236V2.64478L11.4797 2.64564L12.27 2.64656L12.5799 3.23355ZM4.80908 7.17984C5.52916 7.45212 5.63003 8.49017 4.97558 8.89385C4.74499 9.03604 4.26768 9.05187 4.02267 8.92545C3.758 8.78883 3.54874 8.47044 3.52161 8.163C3.46006 7.46548 4.15698 6.93326 4.80908 7.17984ZM11.1754 7.36241C11.0986 7.49651 11.0354 7.65132 11.035 7.70655C11.0344 7.80068 10.8754 7.80681 8.49112 7.80504L5.94792 7.80314L5.79302 7.46089L5.63819 7.11864H8.47664H11.315L11.1754 7.36241ZM12.8365 7.19757C12.9406 7.24093 13.1079 7.37589 13.2083 7.49743C13.3676 7.69038 13.3907 7.76121 13.3907 8.05701C13.3907 8.65524 13.0448 9.0116 12.4644 9.0112C12.1003 9.01097 11.8357 8.87383 11.6679 8.59846C11.4347 8.21577 11.4499 7.82167 11.7095 7.51378C12.0284 7.13545 12.4225 7.02492 12.8365 7.19757ZM14.4827 7.46278V7.80693H14.2089H13.9351L13.7827 7.46278L13.6303 7.11864H14.0565H14.4827V7.46278Z" fill="black"/>
</svg>
