<svg width="12" height="13" viewBox="0 0 12 13" fill="none" xmlns="http://www.w3.org/2000/svg">
<path fill-rule="evenodd" clip-rule="evenodd" d="M5.46603 0.621432C5.04627 0.654004 4.93411 0.688638 4.8291 0.818102C4.67713 1.00536 4.66756 1.16196 4.79722 1.33891C4.88315 1.45628 4.99511 1.47003 5.91614 1.47607C6.88207 1.48239 6.9762 1.49531 7.59364 1.70648C8.47363 2.00733 9.12267 2.42451 9.75609 3.09657C10.8678 4.27583 11.3742 5.94079 11.0845 7.46336C10.8668 8.60765 10.3578 9.5431 9.52817 10.3242C8.93869 10.8791 8.37193 11.2159 7.56258 11.4921C7.00161 11.6835 6.8537 11.7052 6.07878 11.7095C4.63506 11.7175 3.72085 11.3733 2.44121 10.34C2.27733 10.2077 2.09775 10.0994 2.04218 10.0994C1.90881 10.0994 1.60308 10.408 1.60308 10.5427C1.60308 10.8679 2.87597 11.8223 3.77359 12.1702C5.22551 12.7328 6.94411 12.7144 8.36738 12.121C8.99295 11.8603 9.83713 11.2783 10.3231 10.7729C11.4351 9.61635 11.999 8.21871 12 6.61642C12.0008 5.32185 11.7015 4.30806 11.014 3.27695C9.77675 1.42124 7.73741 0.445103 5.46603 0.621432ZM3.18679 1.30723C2.59387 1.62217 2.25378 1.8936 2.19353 2.10016C2.1443 2.26859 2.3811 2.60916 2.54746 2.60916C2.60688 2.60916 2.85552 2.48306 3.1001 2.32893C3.34461 2.17479 3.68174 1.99008 3.84933 1.91841C4.27377 1.73686 4.36239 1.45937 4.09522 1.14891C3.94215 0.970998 3.76003 1.00275 3.18679 1.30723ZM1.23966 2.93687C0.99301 3.19374 0.432515 4.18554 0.432515 4.36496C0.432515 4.54459 0.704431 4.80812 0.889725 4.80812C1.0629 4.80812 1.26644 4.59008 1.46702 4.18966C1.5522 4.01958 1.71064 3.75117 1.81909 3.59319C2.05148 3.25455 2.06677 3.0719 1.87851 2.88403C1.68729 2.6932 1.45511 2.71244 1.23966 2.93687ZM5.7345 3.70864C5.6076 3.83528 5.59679 3.93767 5.59679 5.01427V6.18247H4.42622C3.34744 6.18247 3.24484 6.19326 3.11794 6.3199C3.04219 6.39549 2.98022 6.51918 2.98022 6.59477C2.98022 6.67036 3.04219 6.79405 3.11794 6.86964C3.24484 6.99629 3.34744 7.00708 4.42622 7.00708H5.59679V8.17528C5.59679 9.25187 5.6076 9.35426 5.7345 9.48091C5.81024 9.5565 5.93418 9.61835 6.00993 9.61835C6.08567 9.61835 6.20961 9.5565 6.28536 9.48091C6.41226 9.35426 6.42307 9.25187 6.42307 8.17528V7.00708H7.59364C8.67242 7.00708 8.77501 6.99629 8.90192 6.86964C8.97766 6.79405 9.03963 6.67036 9.03963 6.59477C9.03963 6.51918 8.97766 6.39549 8.90192 6.3199C8.77501 6.19326 8.67242 6.18247 7.59364 6.18247H6.42307V5.01427C6.42307 3.93767 6.41226 3.83528 6.28536 3.70864C6.20961 3.63305 6.08567 3.5712 6.00993 3.5712C5.93418 3.5712 5.81024 3.63305 5.7345 3.70864ZM0.217543 5.4195C0.0838921 5.52759 0.0492571 5.63644 0.0153794 6.05513C-0.0432867 6.78004 0.0585527 7.00385 0.448145 7.00605C0.717032 7.00756 0.822314 6.79137 0.873544 6.13244C0.913136 5.62318 0.903634 5.55315 0.778314 5.42809C0.604175 5.2543 0.425423 5.25155 0.217543 5.4195Z" fill="black"/>
</svg>
