<svg width="13" height="12" viewBox="0 0 13 12" fill="none" xmlns="http://www.w3.org/2000/svg">
<path fill-rule="evenodd" clip-rule="evenodd" d="M5.65856 1.01995C3.71705 1.65775 3.09687 4.06433 4.4838 5.57873L4.77876 5.90081L4.58296 5.97147C4.03092 6.1707 3.18835 6.86636 2.73873 7.49425C2.17759 8.27778 1.91236 9.09163 1.85178 10.2162C1.80905 11.0089 1.84682 11.3045 2.01182 11.4692C2.12352 11.5807 2.24733 11.5838 6.50266 11.5838H10.8787L11.0313 11.4316L11.1839 11.2793L11.1525 10.3257C11.1289 9.60864 11.0914 9.27317 11.0011 8.97308C10.6148 7.68846 9.76632 6.64011 8.66856 6.09102C8.46721 5.99028 8.29234 5.89869 8.27993 5.88743C8.26752 5.87616 8.39511 5.71656 8.56343 5.53278C8.91282 5.15125 9.04733 4.91298 9.19023 4.42233C9.32674 3.95362 9.28715 3.13323 9.10524 2.66387C8.83841 1.97512 8.21091 1.34829 7.52028 1.08058C7.03945 0.894211 6.1314 0.864663 5.65856 1.01995ZM7.30817 1.82372C8.91004 2.53595 8.92724 4.73922 7.33696 5.52099C7.11144 5.63187 6.96499 5.65646 6.52955 5.65646C6.07774 5.65646 5.94743 5.63293 5.66388 5.50029C5.23884 5.30141 4.87597 4.93928 4.67669 4.5151C4.54354 4.23171 4.52026 4.10278 4.52073 3.65118C4.5212 3.18572 4.54148 3.08198 4.68532 2.80861C4.91604 2.37022 5.21774 2.05804 5.58338 1.87951C6.15108 1.60231 6.76553 1.58244 7.30817 1.82372ZM3.31613 1.85981C2.29148 2.02967 1.48513 2.93134 1.42769 3.97155C1.3966 4.5351 1.48945 4.93792 1.7499 5.36953C1.93966 5.68407 1.94935 5.72075 1.85675 5.77442C1.59849 5.92405 1.04656 6.40036 0.826599 6.66347C0.521414 7.02861 0.208664 7.66664 0.0912355 8.16395C0.0378695 8.38984 0.000578255 8.82593 4.63684e-05 9.22917C-0.000781011 9.86709 0.00814286 9.92029 0.135914 10.0401C0.254702 10.1515 0.340336 10.1684 0.785998 10.1684H1.29933V9.9693C1.29933 9.85983 1.31564 9.68885 1.33556 9.58941C1.37166 9.40923 1.37084 9.40858 1.08439 9.39036C0.805619 9.37267 0.796399 9.36618 0.777961 9.17391C0.744215 8.8221 0.892257 8.16578 1.09774 7.75582C1.42409 7.10475 2.07175 6.56639 2.80634 6.33549C3.40808 6.1464 3.49035 5.66537 2.96691 5.39666C2.35613 5.08313 2.0266 4.29305 2.26707 3.71871C2.38999 3.42506 2.70398 3.09979 3.01756 2.94125C3.22547 2.83609 3.31518 2.74892 3.36275 2.6059C3.39815 2.49962 3.50672 2.29319 3.604 2.14722C3.86397 1.75731 3.87396 1.76734 3.31613 1.85981ZM9.21854 1.82643C9.21854 1.8469 9.27261 1.93938 9.33862 2.03191C9.4047 2.12451 9.52508 2.34486 9.60616 2.52162C9.70911 2.74609 9.79593 2.85361 9.89403 2.87814C10.1196 2.93465 10.6256 3.36802 10.7459 3.60765C10.9114 3.93746 10.9401 4.12036 10.8732 4.41856C10.7873 4.80092 10.5551 5.11958 10.1826 5.36635C9.79315 5.62432 9.70486 5.78162 9.81785 6.01635C9.88014 6.14564 9.9942 6.21853 10.3253 6.34044C11.5751 6.80054 12.2888 7.7675 12.291 9.00352L12.2917 9.40162H11.9603C11.6824 9.40162 11.6347 9.41666 11.6648 9.49493C11.6845 9.54624 11.7007 9.71875 11.7007 9.87829V10.1684H12.2326C12.986 10.1684 13.0011 10.1494 13 9.20994C12.999 8.3643 12.9076 7.91382 12.6226 7.34892C12.2831 6.67639 11.8495 6.22119 11.0626 5.71143C11.053 5.70518 11.1223 5.5841 11.2167 5.44237C11.5062 5.00758 11.6121 4.64804 11.6052 4.12301C11.5893 2.91035 10.7505 1.98349 9.5288 1.82861C9.35818 1.80697 9.21854 1.80603 9.21854 1.82643ZM7.42761 6.48164C9.17622 6.89307 10.4596 8.52001 10.4596 10.3252V10.8171H6.49108H2.52261L2.5576 10.2126C2.62284 9.08697 2.96798 8.31264 3.74997 7.5373C4.26832 7.02336 4.89441 6.65875 5.55442 6.48636C5.97964 6.3753 6.96523 6.37282 7.42761 6.48164Z" fill="black"/>
</svg>
