<svg width="13" height="14" viewBox="0 0 13 14" fill="none" xmlns="http://www.w3.org/2000/svg">
<path fill-rule="evenodd" clip-rule="evenodd" d="M6.26858 0.823843C6.03751 0.956119 6.012 1.05069 6.01009 1.7817C6.0083 2.4764 6.01154 2.49476 6.16132 2.63333C6.25765 2.72242 6.38319 2.7749 6.5 2.7749C6.61681 2.7749 6.74235 2.72242 6.83868 2.63333C6.98846 2.49476 6.9917 2.4764 6.98991 1.7817C6.988 1.04272 6.96185 0.949421 6.72077 0.821244C6.56306 0.737468 6.41808 0.738276 6.26858 0.823843ZM1.95843 2.50319C1.77017 2.59823 1.64798 2.85568 1.69727 3.05343C1.71845 3.13842 1.95027 3.42225 2.21241 3.68426C2.76683 4.23831 2.93732 4.28958 3.23568 3.99183C3.52229 3.7058 3.47676 3.52964 2.98534 3.023C2.42173 2.44199 2.25094 2.35556 1.95843 2.50319ZM10.5498 2.53385C10.4544 2.5943 10.2005 2.82663 9.98573 3.05013C9.52556 3.52901 9.4828 3.71088 9.76432 3.99183C10.0509 4.27786 10.2274 4.23242 10.7351 3.742C10.9734 3.5118 11.2066 3.25008 11.2533 3.16041C11.4876 2.71052 10.982 2.26023 10.5498 2.53385ZM5.89253 3.73201C5.81298 3.74622 5.59232 3.78594 5.40215 3.82029C3.89968 4.09212 1.92296 5.22423 0.2987 6.74324C-0.101017 7.11709 -0.0997438 7.38292 0.303617 7.76029C1.9129 9.26613 3.76192 10.3291 5.40077 10.6907C5.59169 10.7328 6.08634 10.7673 6.5 10.7673C6.91366 10.7673 7.40831 10.7328 7.59923 10.6907C9.24016 10.3287 11.0849 9.26752 12.7013 7.75584C13.101 7.38199 13.0997 7.11617 12.6964 6.7388C12.152 6.22938 11.3796 5.61598 10.8102 5.24092C9.31676 4.25725 7.9982 3.77174 6.70249 3.72849C6.33656 3.71631 5.97208 3.71787 5.89253 3.73201ZM7.25917 4.82792C7.88625 5.00189 8.55239 5.59872 8.83761 6.24214C9.62859 8.02663 8.0619 10.0575 6.12493 9.75857C4.07306 9.44188 3.24251 6.92321 4.70779 5.46096C5.38555 4.78456 6.29207 4.55962 7.25917 4.82792ZM6.17387 5.75715C6.08993 5.77176 5.88183 5.86679 5.71139 5.96847C4.75332 6.53983 4.74933 7.95688 5.70421 8.52634C6.23682 8.84396 6.76254 8.84436 7.29394 8.52744C8.00879 8.10111 8.21966 7.19694 7.7791 6.44682C7.48 5.9374 6.8053 5.64756 6.17387 5.75715ZM3.10817 6.18908C2.92292 6.71784 2.92292 7.78124 3.10817 8.31C3.17904 8.51214 3.22735 8.6872 3.21555 8.69898C3.14577 8.76861 1.30409 7.38037 1.2964 7.25231C1.28911 7.13147 3.14358 5.72822 3.21555 5.80011C3.22735 5.81188 3.17904 5.98694 3.10817 6.18908ZM10.5974 6.32003C10.8692 6.51374 11.238 6.79838 11.417 6.9526C11.7354 7.22697 11.7402 7.23563 11.6379 7.34868C11.3917 7.62085 9.83837 8.75279 9.78469 8.69921C9.77277 8.68732 9.82096 8.51214 9.89183 8.31C10.0756 7.78563 10.077 6.71749 9.89472 6.19768C9.82541 6.00016 9.76877 5.82332 9.76877 5.80467C9.76877 5.75438 10.0425 5.92459 10.5974 6.32003ZM6.84973 6.90052C7.16174 7.21184 6.94166 7.74031 6.5 7.74031C6.05834 7.74031 5.83826 7.21184 6.15027 6.90052C6.24828 6.80266 6.35658 6.75877 6.5 6.75877C6.64342 6.75877 6.75172 6.80266 6.84973 6.90052ZM2.21241 10.8148C1.95027 11.0768 1.71845 11.3607 1.69727 11.4457C1.61454 11.7775 1.96282 12.1251 2.29537 12.0425C2.38053 12.0214 2.66495 11.7901 2.92749 11.5285C3.48266 10.9752 3.53403 10.805 3.23568 10.5073C2.93732 10.2095 2.76683 10.2608 2.21241 10.8148ZM9.76432 10.5073C9.46597 10.805 9.51734 10.9752 10.0725 11.5285C10.335 11.7901 10.6195 12.0214 10.7046 12.0425C11.0372 12.1251 11.3855 11.7775 11.3027 11.4457C11.2816 11.3607 11.0497 11.0768 10.7876 10.8148C10.2332 10.2608 10.0627 10.2095 9.76432 10.5073ZM6.16132 11.8658C6.01171 12.0042 6.00824 12.0234 6.00824 12.721C6.00824 13.3506 6.0216 13.4489 6.12198 13.5564C6.34298 13.7931 6.65551 13.7947 6.87443 13.5602C6.97915 13.448 6.99176 13.358 6.99176 12.721C6.99176 12.0234 6.98829 12.0042 6.83868 11.8658C6.74235 11.7767 6.61681 11.7242 6.5 11.7242C6.38319 11.7242 6.25765 11.7767 6.16132 11.8658Z" fill="black"/>
</svg>
