<svg width="18" height="15" viewBox="0 0 18 15" fill="none" xmlns="http://www.w3.org/2000/svg">
<path fill-rule="evenodd" clip-rule="evenodd" d="M3.2692 0.790774C2.20346 1.31834 2.21544 2.88027 3.28914 3.38974C3.5173 3.49799 3.57158 3.56908 3.57158 3.75919C3.57158 3.93773 3.51513 4.02386 3.33812 4.11538C2.83139 4.37739 2.61208 5.1541 2.89202 5.69533C3.01073 5.92501 3.00703 5.94777 2.81369 6.17754C2.57187 6.46496 2.41392 6.9963 2.47681 7.31083C2.51782 7.5159 2.50086 7.53729 2.29747 7.53729C1.53411 7.53729 0.620532 8.15042 0.21336 8.93598C0.0352276 9.2797 0.000405279 9.45188 3.17413e-06 9.99014C-0.000640194 11.0223 0.0945784 11.1678 2.06554 13.1467C3.17985 14.2655 3.82475 14.8556 3.93299 14.8556C4.03183 14.8556 4.33807 14.6143 4.69394 14.256C5.25335 13.6929 5.28383 13.6441 5.19625 13.4518C5.0535 13.1385 4.78763 13.1894 4.37579 13.6091C4.18045 13.8081 3.98157 13.971 3.93388 13.971C3.77312 13.971 1.02039 11.1236 0.846515 10.7775C0.265875 9.62148 1.14713 8.22899 2.4522 8.24017C2.9106 8.24403 3.43848 8.44613 3.6471 8.69753C3.7999 8.88153 4.02668 8.85314 4.34539 8.61003C4.95595 8.14431 5.8857 8.11383 6.46408 8.54063C7.26049 9.12818 7.44337 10.1005 6.92699 11.0016C6.71291 11.3751 6.79614 11.5986 7.14943 11.5986C7.33504 11.5986 7.41313 11.5263 7.61579 11.1677C8.32358 9.91478 7.70587 8.2138 6.36018 7.71028C6.10581 7.61514 5.77584 7.53729 5.62682 7.53729C5.39585 7.53729 5.36207 7.51365 5.39778 7.3771C5.48279 7.05211 5.33417 6.48981 5.08977 6.21147C4.85743 5.94689 4.85365 5.92984 4.97453 5.69614C5.25536 5.15313 5.0465 4.38672 4.53824 4.09503C4.3244 3.97231 4.29979 3.91449 4.27856 3.4848C4.25387 2.98345 4.20852 2.92362 3.78582 2.83419C3.43712 2.76037 3.16948 2.44753 3.16948 2.11378C3.16948 1.70572 3.53419 1.31271 3.91289 1.31271C4.27527 1.31271 4.60186 1.52888 4.66153 1.80834C4.76294 2.28275 4.84939 2.40217 5.07208 2.37555C5.35283 2.34193 5.45601 2.15849 5.39054 1.80931C5.21209 0.858248 4.15664 0.351515 3.2692 0.790774ZM13.4232 0.754987C13.2905 0.825114 13.1135 0.941242 13.0298 1.01314C12.8168 1.19618 12.5826 1.73725 12.5805 2.05113C12.5769 2.59486 12.9918 3.24048 13.4728 3.43976C13.7976 3.57423 13.7933 3.90749 13.4646 4.09463C12.9541 4.38511 12.7438 5.1516 13.0255 5.69614C13.1463 5.92984 13.1426 5.94689 12.9102 6.21147C12.6658 6.48981 12.5172 7.05211 12.6022 7.3771C12.6379 7.51365 12.6041 7.53729 12.3732 7.53729C11.5469 7.53729 10.5688 8.26607 10.2456 9.12247C10.0201 9.71976 10.052 10.5367 10.3218 11.0758C10.56 11.5518 13.8347 14.8556 14.0683 14.8556C14.1749 14.8556 14.8289 14.2566 15.9345 13.1467C17.9054 11.1678 18.0006 11.0223 18 9.99014C17.9996 9.45188 17.9648 9.2797 17.7866 8.93598C17.3795 8.15042 16.4659 7.53729 15.7025 7.53729C15.4991 7.53729 15.4822 7.5159 15.5232 7.31083C15.5861 6.9963 15.4281 6.46496 15.1863 6.17754C14.993 5.94777 14.9893 5.92501 15.108 5.69533C15.3908 5.14847 15.1794 4.38294 14.6732 4.12125C14.4463 4.00384 14.4284 3.96298 14.4284 3.56015C14.4284 3.072 14.2969 2.87287 13.9742 2.87287C13.6535 2.87287 13.3025 2.46522 13.3025 2.09271C13.3025 1.9223 13.3569 1.70508 13.4234 1.61018C13.5868 1.37688 14.0256 1.23759 14.2857 1.33643C14.5426 1.43414 14.8305 1.797 14.8305 2.02323C14.8305 2.36799 15.2602 2.52714 15.479 2.26352C15.6092 2.10662 15.4752 1.52462 15.2293 1.17929C14.883 0.692982 13.9537 0.47472 13.4232 0.754987ZM4.29537 4.80298C4.69941 5.20701 4.24913 5.76956 3.69262 5.55604C3.39353 5.44128 3.38814 4.90133 3.68417 4.70366C3.84767 4.59445 4.13324 4.64085 4.29537 4.80298ZM14.3158 4.70366C14.4972 4.82469 14.5909 5.10987 14.515 5.30947C14.3268 5.80454 13.5438 5.64113 13.5438 5.10673C13.5438 4.78874 14.0486 4.5252 14.3158 4.70366ZM4.46241 6.56605C4.78039 6.88403 4.79012 7.34227 4.48549 7.64699C4.01414 8.11826 3.16948 7.76392 3.16948 7.09498C3.16948 6.87744 3.23052 6.74008 3.40455 6.56605C3.72897 6.24163 4.13799 6.24163 4.46241 6.56605ZM14.5955 6.56605C14.7695 6.74008 14.8305 6.87744 14.8305 7.09498C14.8305 7.76392 13.9859 8.11826 13.5145 7.64699C13.0432 7.17564 13.3976 6.33098 14.0665 6.33098C14.2841 6.33098 14.4214 6.39202 14.5955 6.56605ZM13.2218 8.35831C13.3321 8.39933 13.5378 8.52092 13.6788 8.62853C13.9748 8.85427 14.2034 8.87767 14.3529 8.69753C14.5615 8.44613 15.0894 8.24403 15.5478 8.24017C16.8529 8.22899 17.7341 9.62148 17.1535 10.7775C16.9799 11.1229 14.227 13.971 14.0666 13.971C13.9572 13.971 11.1012 11.0942 10.9833 10.8651C10.217 9.37781 11.6497 7.77333 13.2218 8.35831ZM5.75903 12.2178C5.5427 12.4341 5.7111 12.7647 6.03769 12.7647C6.27598 12.7647 6.42283 12.5006 6.3059 12.2821C6.21044 12.1038 5.90854 12.0683 5.75903 12.2178Z" fill="#007A64"/>
<path fill-rule="evenodd" clip-rule="evenodd" d="M3.2692 0.790774C2.20346 1.31834 2.21544 2.88027 3.28914 3.38974C3.5173 3.49799 3.57158 3.56908 3.57158 3.75919C3.57158 3.93773 3.51513 4.02386 3.33812 4.11538C2.83139 4.37739 2.61208 5.1541 2.89202 5.69533C3.01073 5.92501 3.00703 5.94777 2.81369 6.17754C2.57187 6.46496 2.41392 6.9963 2.47681 7.31083C2.51782 7.5159 2.50086 7.53729 2.29747 7.53729C1.53411 7.53729 0.620532 8.15042 0.21336 8.93598C0.0352276 9.2797 0.000405279 9.45188 3.17413e-06 9.99014C-0.000640194 11.0223 0.0945784 11.1678 2.06554 13.1467C3.17985 14.2655 3.82475 14.8556 3.93299 14.8556C4.03183 14.8556 4.33807 14.6143 4.69394 14.256C5.25335 13.6929 5.28383 13.6441 5.19625 13.4518C5.0535 13.1385 4.78763 13.1894 4.37579 13.6091C4.18045 13.8081 3.98157 13.971 3.93388 13.971C3.77312 13.971 1.02039 11.1236 0.846515 10.7775C0.265875 9.62148 1.14713 8.22899 2.4522 8.24017C2.9106 8.24403 3.43848 8.44613 3.6471 8.69753C3.7999 8.88153 4.02668 8.85314 4.34539 8.61003C4.95595 8.14431 5.8857 8.11383 6.46408 8.54063C7.26049 9.12818 7.44337 10.1005 6.92699 11.0016C6.71291 11.3751 6.79614 11.5986 7.14943 11.5986C7.33504 11.5986 7.41313 11.5263 7.61579 11.1677C8.32358 9.91478 7.70587 8.2138 6.36018 7.71028C6.10581 7.61514 5.77584 7.53729 5.62682 7.53729C5.39585 7.53729 5.36207 7.51365 5.39778 7.3771C5.48279 7.05211 5.33417 6.48981 5.08977 6.21147C4.85743 5.94689 4.85365 5.92984 4.97453 5.69614C5.25536 5.15313 5.0465 4.38672 4.53824 4.09503C4.3244 3.97231 4.29979 3.91449 4.27856 3.4848C4.25387 2.98345 4.20852 2.92362 3.78582 2.83419C3.43712 2.76037 3.16948 2.44753 3.16948 2.11378C3.16948 1.70572 3.53419 1.31271 3.91289 1.31271C4.27527 1.31271 4.60186 1.52888 4.66153 1.80834C4.76294 2.28275 4.84939 2.40217 5.07208 2.37555C5.35283 2.34193 5.45601 2.15849 5.39054 1.80931C5.21209 0.858248 4.15664 0.351515 3.2692 0.790774ZM13.4232 0.754987C13.2905 0.825114 13.1135 0.941242 13.0298 1.01314C12.8168 1.19618 12.5826 1.73725 12.5805 2.05113C12.5769 2.59486 12.9918 3.24048 13.4728 3.43976C13.7976 3.57423 13.7933 3.90749 13.4646 4.09463C12.9541 4.38511 12.7438 5.1516 13.0255 5.69614C13.1463 5.92984 13.1426 5.94689 12.9102 6.21147C12.6658 6.48981 12.5172 7.05211 12.6022 7.3771C12.6379 7.51365 12.6041 7.53729 12.3732 7.53729C11.5469 7.53729 10.5688 8.26607 10.2456 9.12247C10.0201 9.71976 10.052 10.5367 10.3218 11.0758C10.56 11.5518 13.8347 14.8556 14.0683 14.8556C14.1749 14.8556 14.8289 14.2566 15.9345 13.1467C17.9054 11.1678 18.0006 11.0223 18 9.99014C17.9996 9.45188 17.9648 9.2797 17.7866 8.93598C17.3795 8.15042 16.4659 7.53729 15.7025 7.53729C15.4991 7.53729 15.4822 7.5159 15.5232 7.31083C15.5861 6.9963 15.4281 6.46496 15.1863 6.17754C14.993 5.94777 14.9893 5.92501 15.108 5.69533C15.3908 5.14847 15.1794 4.38294 14.6732 4.12125C14.4463 4.00384 14.4284 3.96298 14.4284 3.56015C14.4284 3.072 14.2969 2.87287 13.9742 2.87287C13.6535 2.87287 13.3025 2.46522 13.3025 2.09271C13.3025 1.9223 13.3569 1.70508 13.4234 1.61018C13.5868 1.37688 14.0256 1.23759 14.2857 1.33643C14.5426 1.43414 14.8305 1.797 14.8305 2.02323C14.8305 2.36799 15.2602 2.52714 15.479 2.26352C15.6092 2.10662 15.4752 1.52462 15.2293 1.17929C14.883 0.692982 13.9537 0.47472 13.4232 0.754987ZM4.29537 4.80298C4.69941 5.20701 4.24913 5.76956 3.69262 5.55604C3.39353 5.44128 3.38814 4.90133 3.68417 4.70366C3.84767 4.59445 4.13324 4.64085 4.29537 4.80298ZM14.3158 4.70366C14.4972 4.82469 14.5909 5.10987 14.515 5.30947C14.3268 5.80454 13.5438 5.64113 13.5438 5.10673C13.5438 4.78874 14.0486 4.5252 14.3158 4.70366ZM4.46241 6.56605C4.78039 6.88403 4.79012 7.34227 4.48549 7.64699C4.01414 8.11826 3.16948 7.76392 3.16948 7.09498C3.16948 6.87744 3.23052 6.74008 3.40455 6.56605C3.72897 6.24163 4.13799 6.24163 4.46241 6.56605ZM14.5955 6.56605C14.7695 6.74008 14.8305 6.87744 14.8305 7.09498C14.8305 7.76392 13.9859 8.11826 13.5145 7.64699C13.0432 7.17564 13.3976 6.33098 14.0665 6.33098C14.2841 6.33098 14.4214 6.39202 14.5955 6.56605ZM13.2218 8.35831C13.3321 8.39933 13.5378 8.52092 13.6788 8.62853C13.9748 8.85427 14.2034 8.87767 14.3529 8.69753C14.5615 8.44613 15.0894 8.24403 15.5478 8.24017C16.8529 8.22899 17.7341 9.62148 17.1535 10.7775C16.9799 11.1229 14.227 13.971 14.0666 13.971C13.9572 13.971 11.1012 11.0942 10.9833 10.8651C10.217 9.37781 11.6497 7.77333 13.2218 8.35831ZM5.75903 12.2178C5.5427 12.4341 5.7111 12.7647 6.03769 12.7647C6.27598 12.7647 6.42283 12.5006 6.3059 12.2821C6.21044 12.1038 5.90854 12.0683 5.75903 12.2178Z" fill="url(#paint0_linear_21898_1303)"/>
<defs>
<linearGradient id="paint0_linear_21898_1303" x1="9" y1="0.630859" x2="9" y2="11.1309" gradientUnits="userSpaceOnUse">
<stop stop-color="#FFD588"/>
<stop offset="1" stop-color="#FFD588" stop-opacity="0"/>
</linearGradient>
</defs>
</svg>
