<svg width="18" height="16" viewBox="0 0 18 16" fill="none" xmlns="http://www.w3.org/2000/svg">
<path fill-rule="evenodd" clip-rule="evenodd" d="M4.30838 0.66609C2.75999 1.43414 2.97535 1.21392 1.18969 3.85513C0.248567 5.24712 -0.0346231 5.73099 0.00329128 5.8824C0.0673505 6.13812 8.62469 15.8213 8.85002 15.893C8.94337 15.9228 9.08937 15.9202 9.17436 15.8875C9.40068 15.8004 17.9373 6.12101 17.9966 5.8842C18.035 5.73045 17.7579 5.25631 16.8106 3.85513C15.025 1.21392 15.2403 1.43414 13.6919 0.66609L12.3494 0H9.00015H5.65092L4.30838 0.66609ZM12.8407 1.45234L13.5777 1.8238L12.9061 2.16851L12.2346 2.51313H9.00015H5.76574L5.09425 2.16851L4.42275 1.82389L5.13917 1.45693L5.85559 1.08988L8.97967 1.08538L12.1037 1.08088L12.8407 1.45234ZM4.27819 2.92485C4.71816 3.14634 5.09658 3.3591 5.11922 3.39774C5.15058 3.45133 4.74367 6.3152 4.62032 6.90897C4.60612 6.97715 3.98898 6.74783 2.95828 6.29151L1.31889 5.56571L2.18643 4.29153C3.37669 2.54348 3.39187 2.52205 3.43769 2.52205C3.46006 2.52205 3.83831 2.70327 4.27819 2.92485ZM15.7238 4.15462L16.6777 5.56201L15.0471 6.29332C14.1502 6.69549 13.4086 7.01471 13.3989 7.00264C13.3892 6.99057 13.2723 6.25107 13.139 5.35935C13.0057 4.46763 12.8769 3.66859 12.8526 3.58383C12.7924 3.37306 14.5163 2.48007 14.6702 2.64229C14.725 2.70003 15.1992 3.38053 15.7238 4.15462ZM11.787 3.71551C11.8642 3.92827 12.3408 7.16081 12.3048 7.22836C12.2851 7.26548 10.7979 7.29592 9.00015 7.29592C7.20236 7.29592 5.71525 7.26548 5.69549 7.22836C5.65955 7.16081 6.13608 3.92827 6.21335 3.71551C6.24489 3.62877 6.88512 3.60292 9.00015 3.60292C11.1152 3.60292 11.7554 3.62877 11.787 3.71551ZM3.82232 7.83807C4.58483 8.17548 4.60334 8.19125 4.9319 8.78303C5.41661 9.65592 6.43428 11.6194 6.40193 11.6194C6.37938 11.6194 4.14378 9.10225 2.93097 7.71125C2.56782 7.29466 2.60663 7.30024 3.82232 7.83807ZM15.0584 7.72377C13.8639 9.09396 11.6208 11.6194 11.5984 11.6194C11.5666 11.6194 12.5745 9.67331 13.0684 8.78123L13.4025 8.17756L14.301 7.78394C14.7951 7.56749 15.2339 7.38933 15.2762 7.38815C15.3183 7.38698 15.2203 7.53804 15.0584 7.72377ZM12.0099 8.38607C12.0099 8.46038 9.09916 14.1063 9.01003 14.205C8.97787 14.2405 5.99036 8.48272 5.99036 8.38526C5.99036 8.31591 6.88135 8.28672 9.00015 8.28672C11.1343 8.28672 12.0099 8.31564 12.0099 8.38607Z" fill="#F77433"/>
<path fill-rule="evenodd" clip-rule="evenodd" d="M4.30838 0.66609C2.75999 1.43414 2.97535 1.21392 1.18969 3.85513C0.248567 5.24712 -0.0346231 5.73099 0.00329128 5.8824C0.0673505 6.13812 8.62469 15.8213 8.85002 15.893C8.94337 15.9228 9.08937 15.9202 9.17436 15.8875C9.40068 15.8004 17.9373 6.12101 17.9966 5.8842C18.035 5.73045 17.7579 5.25631 16.8106 3.85513C15.025 1.21392 15.2403 1.43414 13.6919 0.66609L12.3494 0H9.00015H5.65092L4.30838 0.66609ZM12.8407 1.45234L13.5777 1.8238L12.9061 2.16851L12.2346 2.51313H9.00015H5.76574L5.09425 2.16851L4.42275 1.82389L5.13917 1.45693L5.85559 1.08988L8.97967 1.08538L12.1037 1.08088L12.8407 1.45234ZM4.27819 2.92485C4.71816 3.14634 5.09658 3.3591 5.11922 3.39774C5.15058 3.45133 4.74367 6.3152 4.62032 6.90897C4.60612 6.97715 3.98898 6.74783 2.95828 6.29151L1.31889 5.56571L2.18643 4.29153C3.37669 2.54348 3.39187 2.52205 3.43769 2.52205C3.46006 2.52205 3.83831 2.70327 4.27819 2.92485ZM15.7238 4.15462L16.6777 5.56201L15.0471 6.29332C14.1502 6.69549 13.4086 7.01471 13.3989 7.00264C13.3892 6.99057 13.2723 6.25107 13.139 5.35935C13.0057 4.46763 12.8769 3.66859 12.8526 3.58383C12.7924 3.37306 14.5163 2.48007 14.6702 2.64229C14.725 2.70003 15.1992 3.38053 15.7238 4.15462ZM11.787 3.71551C11.8642 3.92827 12.3408 7.16081 12.3048 7.22836C12.2851 7.26548 10.7979 7.29592 9.00015 7.29592C7.20236 7.29592 5.71525 7.26548 5.69549 7.22836C5.65955 7.16081 6.13608 3.92827 6.21335 3.71551C6.24489 3.62877 6.88512 3.60292 9.00015 3.60292C11.1152 3.60292 11.7554 3.62877 11.787 3.71551ZM3.82232 7.83807C4.58483 8.17548 4.60334 8.19125 4.9319 8.78303C5.41661 9.65592 6.43428 11.6194 6.40193 11.6194C6.37938 11.6194 4.14378 9.10225 2.93097 7.71125C2.56782 7.29466 2.60663 7.30024 3.82232 7.83807ZM15.0584 7.72377C13.8639 9.09396 11.6208 11.6194 11.5984 11.6194C11.5666 11.6194 12.5745 9.67331 13.0684 8.78123L13.4025 8.17756L14.301 7.78394C14.7951 7.56749 15.2339 7.38933 15.2762 7.38815C15.3183 7.38698 15.2203 7.53804 15.0584 7.72377ZM12.0099 8.38607C12.0099 8.46038 9.09916 14.1063 9.01003 14.205C8.97787 14.2405 5.99036 8.48272 5.99036 8.38526C5.99036 8.31591 6.88135 8.28672 9.00015 8.28672C11.1343 8.28672 12.0099 8.31564 12.0099 8.38607Z" fill="#007A64"/>
</svg>
