<svg width="18" height="20" viewBox="0 0 18 20" fill="none" xmlns="http://www.w3.org/2000/svg">
<path fill-rule="evenodd" clip-rule="evenodd" d="M0.0238756 0.778696C-0.0729033 1.03104 0.136662 1.59276 0.433714 1.87721C0.690564 2.12302 0.77612 2.14878 1.33747 2.14878C1.87611 2.14878 1.99616 2.18125 2.25117 2.39579C2.42329 2.54068 2.54565 2.73102 2.54684 2.85576C2.54795 2.97287 2.6255 3.23745 2.71915 3.4437C2.9392 3.92815 3.40589 4.16761 3.99954 4.10073C4.55197 4.03845 5.02583 4.31968 5.02758 4.71075C5.02924 5.1032 5.29998 5.59841 5.61929 5.79307C5.95728 5.99923 6.50364 6.01727 6.85792 5.8341C7.08864 5.71479 7.14292 5.7192 7.40529 5.87872L7.69655 6.0559V6.92369V7.79158L5.58066 9.0084L3.46477 10.2252L3.4667 13.4546L3.46872 16.684L6.22196 18.2709C7.73629 19.1437 9.029 19.8554 9.09487 19.8524C9.16065 19.8494 10.4357 19.1349 11.9283 18.2645L14.6422 16.6822L14.6663 13.4633L14.6904 10.2444L12.5734 9.01695L10.4564 7.78946V6.93851V6.08755L10.7619 5.92297C11.0046 5.79234 11.1074 5.77992 11.2618 5.86253C11.3688 5.91975 11.6501 5.96658 11.8871 5.96658C12.2649 5.96658 12.3619 5.9226 12.6751 5.60945C13.0007 5.28379 13.0859 5.05895 13.0453 4.63265C13.0405 4.58205 13.1908 4.43927 13.3794 4.31536C13.6469 4.13955 13.8472 4.08896 14.2911 4.08537C14.7926 4.08123 14.8936 4.04848 15.1436 3.80911C15.4187 3.54545 15.6687 2.91915 15.5653 2.75199C15.5374 2.70664 15.6616 2.54831 15.8413 2.40011C16.1269 2.16479 16.2241 2.1359 16.6089 2.17288C17.3918 2.24813 17.9989 1.7256 17.9996 0.975841L18 0.630859H17.6019C17.217 0.630859 17.2052 0.639507 17.2422 0.892034C17.3152 1.38936 16.7335 1.65431 16.3934 1.27851C16.2808 1.15413 16.2489 1.02414 16.2903 0.859099C16.3487 0.626628 16.3394 0.62074 15.9562 0.64843L15.5621 0.676857V1.14888C15.5621 1.4728 15.5105 1.67832 15.3975 1.80407C15.2343 1.98576 15.2302 1.98586 14.8916 1.80922C14.5027 1.60647 13.989 1.62928 13.6287 1.86534C13.2125 2.13802 12.9961 2.82329 13.1572 3.35824C13.1916 3.4725 13.1324 3.58427 12.9779 3.69733C12.7566 3.85915 12.7373 3.85943 12.4989 3.70285C12.3538 3.60764 12.0779 3.53975 11.8363 3.53975C11.1139 3.53975 10.6404 4.02106 10.6404 4.75546C10.6404 5.0423 10.5915 5.14948 10.4051 5.27165C10.1823 5.41755 10.1488 5.41571 9.77803 5.23623C9.29708 5.00339 8.75937 4.99364 8.3349 5.21001C8.04355 5.35858 7.99176 5.3607 7.7637 5.23301C7.55846 5.11811 7.51283 5.02832 7.51274 4.73881C7.51246 4.2528 7.26849 3.88252 6.79858 3.65511C6.37586 3.45042 5.94689 3.46716 5.62739 3.70083C5.48406 3.80552 5.4193 3.80239 5.20605 3.67995C4.9699 3.54444 4.95721 3.50516 5.00348 3.05649C5.06364 2.4738 4.82749 2.01888 4.34636 1.79055C3.94278 1.59911 3.67185 1.60398 3.26735 1.81024C2.94288 1.97564 2.93598 1.97518 2.67803 1.76948C2.4451 1.58375 2.4197 1.51144 2.44178 1.09617L2.46644 0.630859H2.09165C1.72901 0.630859 1.71686 0.640703 1.71686 0.934443C1.71686 1.30417 1.57731 1.45882 1.24373 1.45882C0.933247 1.45882 0.687896 1.14474 0.763332 0.84392C0.812642 0.647786 0.787711 0.630859 0.448709 0.630859C0.195538 0.630859 0.0629735 0.676949 0.0238756 0.778696ZM4.12447 2.53102C4.46135 2.83589 4.24259 3.39071 3.78537 3.39071C3.56854 3.39071 3.28078 3.09053 3.28078 2.86423C3.28078 2.69569 3.62135 2.37877 3.80248 2.37877C3.88703 2.37877 4.03192 2.4473 4.12447 2.53102ZM14.6361 2.50094C14.8301 2.64279 14.8563 3.05024 14.6845 3.25714C14.5036 3.47507 14.0263 3.39292 13.8913 3.12052C13.65 2.63387 14.1963 2.17932 14.6361 2.50094ZM6.57209 4.36191C6.79738 4.51968 6.84918 4.93724 6.6662 5.12022C6.39997 5.38646 5.76465 5.13006 5.76465 4.75638C5.76465 4.56227 6.07485 4.21867 6.25011 4.21867C6.31478 4.21867 6.45967 4.28316 6.57209 4.36191ZM12.0243 4.31278C12.3299 4.47635 12.4215 4.75224 12.2547 5.00679C12.0945 5.25141 11.6793 5.31277 11.4867 5.12022C11.3038 4.93724 11.3556 4.51968 11.5809 4.36191C11.8232 4.19208 11.8029 4.19429 12.0243 4.31278ZM9.51593 5.92582C9.69431 6.05075 9.72044 6.15167 9.72044 6.7168V7.36472L9.39845 7.17475L9.07647 6.98469L8.75449 7.17475L8.43251 7.36472V6.67016C8.43251 6.10586 8.46268 5.95811 8.5935 5.88194C8.83351 5.74211 9.28438 5.76354 9.51593 5.92582ZM8.70518 8.74943L8.70187 9.41639L7.21762 10.2719L5.73346 11.1273L5.33466 10.9158C4.4413 10.442 4.34875 10.5615 6.62039 9.2554C7.74236 8.61024 8.67123 8.08246 8.68448 8.08246C8.69764 8.08246 8.70702 8.38264 8.70518 8.74943ZM12.0454 9.55439C12.8885 10.0351 13.5795 10.449 13.5811 10.4743C13.5827 10.4996 13.3241 10.6604 13.0063 10.8318L12.4287 11.1432L10.9387 10.2799L9.44878 9.41639L9.44666 8.74409L9.44445 8.07179L9.97858 8.37611C10.2723 8.54345 11.2024 9.07371 12.0454 9.55439ZM10.9394 11.1355L12.0203 11.7693V13.4593V15.1493L10.5888 15.9857C9.80149 16.4456 9.10812 16.8199 9.04786 16.8172C8.9877 16.8146 8.31751 16.4457 7.55855 15.9974L6.17863 15.1825V13.4525V11.7226L7.60455 10.8808L9.03047 10.0389L9.44445 10.2704C9.67214 10.3976 10.3448 10.7869 10.9394 11.1355ZM8.95072 11.0493C8.87914 11.1631 8.43793 11.9187 7.97005 12.7282C7.50225 13.5378 7.04117 14.331 6.94559 14.4908L6.77181 14.7816L7.92479 15.4411L9.07776 16.1006L10.2294 15.4367L11.3811 14.7729L11.3557 13.4393L11.3304 12.1058L10.2451 11.474C9.64813 11.1266 9.14197 10.8423 9.12026 10.8423C9.09855 10.8423 9.02219 10.9355 8.95072 11.0493ZM4.88241 11.5057L5.39667 11.801V13.5102V15.2194L4.88241 15.5147C4.59962 15.6771 4.33054 15.8101 4.28445 15.8101C4.23642 15.8101 4.20073 14.8305 4.20073 13.5102C4.20073 12.1899 4.23642 11.2103 4.28445 11.2103C4.33054 11.2103 4.59962 11.3432 4.88241 11.5057ZM13.9522 13.5102C13.9522 14.7751 13.9286 15.8101 13.8997 15.8101C13.8708 15.8101 13.6023 15.6755 13.3028 15.5111L12.7585 15.2121L12.7574 13.5092L12.7563 11.8062L13.2852 11.5105C13.5761 11.3477 13.8453 11.2136 13.8832 11.2124C13.9211 11.2113 13.9522 12.2452 13.9522 13.5102ZM7.6764 16.914L8.70702 17.512L8.70776 18.1865L8.70849 18.8609L8.40951 18.68C8.24511 18.5806 7.34466 18.0558 6.40861 17.5139C5.47256 16.972 4.69769 16.5201 4.68665 16.5096C4.6757 16.4992 4.92087 16.3408 5.23144 16.1575L5.79629 15.8244L6.22094 16.0702C6.45452 16.2055 7.10952 16.5851 7.6764 16.914ZM13.4225 16.445C13.4848 16.5022 9.6726 18.7539 9.51336 18.7539C9.47546 18.7539 9.44445 18.4724 9.44445 18.1284V17.5029L10.8924 16.6601L12.3403 15.8173L12.8473 16.0998C13.1261 16.2551 13.385 16.4105 13.4225 16.445Z" fill="#007A64"/>
</svg>
