<svg width="18" height="16" viewBox="0 0 18 16" fill="none" xmlns="http://www.w3.org/2000/svg">
<path fill-rule="evenodd" clip-rule="evenodd" d="M0.565819 0.128605C-0.0396203 0.409129 0.000551375 -0.119585 0.000551375 7.56195C0.000551375 15.124 -0.0305006 14.6466 0.481858 14.9567C0.703367 15.0909 0.957738 15.1 5.00332 15.1201C9.73046 15.1435 9.64778 15.1511 9.64778 14.6943C9.64778 14.2189 9.80289 14.2353 5.12044 14.2139L0.867295 14.1944V7.56195V0.929476H7.19829H13.5293L13.569 4.20803C13.5908 6.01123 13.6163 7.49592 13.6255 7.5073C13.6347 7.51868 13.7293 7.56104 13.8357 7.60152C14.0336 7.67673 14.2971 7.59345 14.4137 7.41875C14.4442 7.37315 14.4696 5.87745 14.4701 4.09497C14.4712 0.523991 14.4721 0.531302 13.9948 0.181137C13.784 0.0264803 13.723 0.0248975 7.32468 0.00695971C1.1751 -0.0102244 0.852899 -0.00442101 0.565819 0.128605ZM3.14397 3.75702C3.00521 3.86615 2.93994 3.98802 2.93994 4.13816C2.93994 4.62648 3.5395 4.84226 3.83887 4.46164C4.0297 4.21903 4.03648 4.04749 3.86321 3.84271C3.65979 3.60236 3.38258 3.56935 3.14397 3.75702ZM5.40112 3.81829C5.25573 3.9789 5.23621 4.36381 5.36682 4.49443C5.49646 4.62406 10.709 4.62406 10.8386 4.49443C10.9759 4.35711 10.9477 3.9468 10.7912 3.80518C10.6687 3.69424 10.3694 3.68044 8.0896 3.68044C5.70161 3.68044 5.51733 3.68986 5.40112 3.81829ZM3.10379 6.94498C2.79026 7.27879 2.99481 7.82574 3.43323 7.82574C3.66522 7.82574 3.99511 7.51597 3.99511 7.29815C3.99511 7.08569 3.66733 6.77057 3.44642 6.77057C3.34814 6.77057 3.19394 6.84911 3.10379 6.94498ZM5.35152 7.03459C5.29982 7.09692 5.25754 7.23243 5.25754 7.33584C5.25754 7.74532 5.28354 7.75037 7.38083 7.75037C8.78563 7.75037 9.34095 7.72557 9.4066 7.65993C9.45634 7.61018 9.49704 7.46434 9.49704 7.33584C9.49704 7.20734 9.45634 7.0615 9.4066 7.01175C9.34095 6.94611 8.78563 6.92131 7.38083 6.92131C5.75083 6.92131 5.43074 6.93917 5.35152 7.03459ZM11.342 8.93705C10.8189 9.12382 10.5114 9.36025 10.2816 9.75255C9.85919 10.4733 9.99757 11.4178 10.6751 12.4376C10.9951 12.9193 13.7598 15.6732 13.9737 15.7234C14.0245 15.7353 14.8272 14.9722 15.7576 14.0276C17.5487 12.2093 17.8882 11.7551 17.9852 11.0479C18.089 10.2907 17.6405 9.49222 16.8726 9.06691C16.5241 8.87397 16.391 8.84345 15.9034 8.84495C15.2229 8.84706 14.9115 8.98966 14.3648 9.54943L13.9945 9.92861L13.5734 9.54332C12.8533 8.88414 12.0792 8.67386 11.342 8.93705ZM3.09068 10.0868C2.78054 10.3969 3.03709 10.9912 3.48109 10.9912C3.6671 10.9912 3.99511 10.6632 3.99511 10.4772C3.99511 10.0332 3.40082 9.77666 3.09068 10.0868ZM5.36682 10.1772C5.21646 10.3276 5.25377 10.8231 5.42214 10.9132C5.50234 10.9561 5.99171 10.9912 6.50964 10.9912C7.56421 10.9912 7.68819 10.9407 7.68819 10.5111C7.68819 10.1148 7.60837 10.0868 6.48228 10.0868C5.78557 10.0868 5.42832 10.1157 5.36682 10.1772Z" fill="#007A64"/>
</svg>
