<svg width="19" height="20" viewBox="0 0 19 20" fill="none" xmlns="http://www.w3.org/2000/svg">
<path fill-rule="evenodd" clip-rule="evenodd" d="M9.1505 0.648193C8.64796 0.732532 8.08494 1.102 7.76231 1.55914C7.61936 1.76171 7.53733 1.93163 7.47009 2.16456C7.42215 2.3306 7.40088 2.37493 7.34405 2.42736C7.30647 2.46205 7.2563 2.49041 7.23257 2.49041C7.20884 2.49041 7.11777 2.45964 7.03018 2.422C6.805 2.3253 6.61325 2.30024 6.41303 2.34135C6.0956 2.40654 5.91581 2.54668 5.75598 2.85357C5.60073 3.15164 5.54006 3.16914 5.19232 3.01604C4.78436 2.83644 4.54737 2.78867 4.15337 2.80666C3.76493 2.82437 3.46428 2.9227 3.12761 3.14215C2.81895 3.34334 2.49814 3.71611 2.34725 4.04888C2.23263 4.30167 2.18824 4.49425 2.17743 4.78556C2.16244 5.18937 2.21463 5.44223 2.39564 5.84295C2.51463 6.10638 2.53861 6.20312 2.50134 6.26951C2.48537 6.29797 2.45068 6.33165 2.42426 6.34434C2.39785 6.35701 2.30824 6.39935 2.2251 6.43842C2.1137 6.49077 2.03976 6.54371 1.94378 6.6399C1.78742 6.79661 1.71482 6.92412 1.67604 7.11008C1.64121 7.27711 1.65051 7.35563 1.73847 7.63827C1.77446 7.75385 1.80389 7.8702 1.80389 7.89682C1.80389 7.97677 1.71278 8.04671 1.53338 8.10453C1.17165 8.2211 0.910626 8.37379 0.654079 8.61887C0.299205 8.95793 0.108856 9.30958 0.029154 9.7734C-0.118958 10.6353 0.308595 11.5503 1.05426 11.9673C1.12358 12.0061 1.32153 12.089 1.49415 12.1515C1.66676 12.214 1.81798 12.2752 1.83018 12.2874C1.86487 12.3221 1.85094 12.4795 1.80093 12.618C1.7616 12.7269 1.75539 12.78 1.75539 13.0065C1.75539 13.2628 1.75681 13.2717 1.818 13.396C1.88899 13.5402 2.04917 13.7051 2.20163 13.791C2.44126 13.926 2.50705 13.9687 2.52422 14.0005C2.55029 14.0487 2.51675 14.1591 2.39531 14.4247C2.25968 14.7213 2.20033 14.9146 2.17126 15.1544C2.10136 15.7312 2.33891 16.4059 2.76427 16.8388C3.20205 17.2843 3.73938 17.4915 4.38242 17.4629C4.74799 17.4466 5.00948 17.3682 5.37378 17.1655C5.47516 17.1091 5.5803 17.0577 5.60744 17.0512C5.68037 17.0338 5.75006 17.099 5.82062 17.2509C5.94759 17.5241 5.96846 17.5582 6.07249 17.6622C6.20518 17.7949 6.37774 17.8882 6.56184 17.9268C6.72668 17.9614 6.84076 17.9517 7.06727 17.8839C7.15336 17.8581 7.23903 17.8371 7.25766 17.8371C7.33468 17.8371 7.40465 17.9302 7.47954 18.1325C7.68655 18.6915 7.92826 19.0163 8.33856 19.2869C8.9857 19.7135 9.83006 19.7559 10.4958 19.3952C10.9839 19.1308 11.3027 18.7401 11.5166 18.1443C11.5447 18.066 11.5929 17.9519 11.6236 17.8908C11.6956 17.7475 11.7327 17.7371 11.9181 17.808C12.3855 17.9866 12.5276 17.9922 12.8391 17.844C13.0267 17.7548 13.1606 17.6192 13.2688 17.409C13.3151 17.319 13.3708 17.2257 13.3926 17.2017C13.4468 17.1419 13.5607 17.1445 13.6971 17.2084C13.9087 17.3077 14.0979 17.3757 14.2628 17.4118C15.139 17.6035 16.0124 17.2582 16.4921 16.5305C16.8391 16.0042 16.9319 15.3125 16.7345 14.7244C16.7089 14.6483 16.6437 14.4894 16.5895 14.3713C16.4808 14.1346 16.464 14.0259 16.5271 13.9688C16.5469 13.9508 16.6347 13.9064 16.7221 13.8701C16.987 13.7601 17.1515 13.606 17.2556 13.3705C17.3626 13.1286 17.3659 12.8908 17.2662 12.603C17.1645 12.3096 17.1858 12.2571 17.437 12.1805C17.9596 12.0211 18.3893 11.7108 18.6633 11.2949C18.7967 11.0923 18.8807 10.9009 18.9503 10.6405C18.994 10.4769 19 10.4166 19 10.1346C19.0001 9.84664 18.9948 9.79511 18.9474 9.62117C18.8443 9.24325 18.6603 8.92914 18.3728 8.6403C18.1535 8.42008 17.9563 8.29368 17.6455 8.1741C17.2981 8.04045 17.2532 8.01984 17.1984 7.96903C17.1378 7.9129 17.1378 7.85602 17.1983 7.68076C17.2706 7.47128 17.2934 7.28961 17.2681 7.12609C17.2236 6.83968 17.064 6.63323 16.7394 6.44247C16.636 6.38169 16.5377 6.31256 16.5211 6.28883C16.471 6.21732 16.4859 6.14128 16.5959 5.90627C16.7777 5.5178 16.8401 5.26476 16.8401 4.91602C16.8401 4.48008 16.7238 4.09498 16.4776 3.71595C16.3583 3.53222 16.0209 3.21314 15.823 3.09683C15.4774 2.89371 15.1465 2.80154 14.7614 2.80109C14.3862 2.80066 14.1283 2.86651 13.7357 3.06305C13.4549 3.20361 13.3906 3.22137 13.3113 3.18035C13.2468 3.14698 13.1734 3.04718 13.1733 2.9926C13.1731 2.92466 13.0315 2.6827 12.9342 2.58414C12.6859 2.3327 12.3642 2.25992 11.9625 2.3643C11.7092 2.43011 11.6689 2.4284 11.6206 2.34975C11.5994 2.31508 11.5554 2.21685 11.523 2.13148C11.3496 1.67514 11.2621 1.53038 11.0002 1.26679C10.6485 0.912773 10.3188 0.741282 9.82876 0.65737C9.64706 0.62625 9.30846 0.621672 9.1505 0.648193ZM7.59311 3.74218C7.61785 3.7584 7.69507 3.84352 7.7647 3.93135C8.20061 4.48115 8.68385 4.76172 9.32752 4.8387C9.77796 4.89258 10.3567 4.7271 10.7481 4.43257C10.8176 4.38032 10.9938 4.21444 11.1397 4.06394C11.2857 3.91346 11.4171 3.79032 11.4318 3.79032C11.4464 3.79032 11.5434 3.85095 11.6473 3.92504C11.9021 4.10682 11.9979 4.1409 12.3001 4.15736C12.4335 4.16461 12.5619 4.18114 12.5855 4.19408C12.6533 4.23137 12.6651 4.32231 12.6541 4.72549C12.6427 5.14494 12.6617 5.33329 12.7404 5.5845C12.8285 5.86592 12.9729 6.09763 13.216 6.34776C13.4762 6.61548 13.7057 6.77325 13.9813 6.87383C14.2444 6.96989 14.4107 6.99158 14.8836 6.99158C15.3056 6.99158 15.3095 6.99197 15.3552 7.0376C15.4096 7.09202 15.443 7.19997 15.4431 7.32218C15.4433 7.5148 15.5376 7.75119 15.6775 7.91032C15.7867 8.03435 15.8506 8.13707 15.8506 8.18817C15.8506 8.25875 15.8025 8.31845 15.632 8.45956C15.3428 8.69882 15.191 8.88323 15.0386 9.18072C14.8775 9.49524 14.803 9.79418 14.803 10.126C14.803 10.8103 15.1269 11.4415 15.6969 11.8675C15.8359 11.9715 15.8839 12.0275 15.891 12.0942C15.8986 12.1666 15.884 12.1987 15.8045 12.2842C15.6208 12.4816 15.5409 12.6648 15.4941 12.9964C15.4467 13.3315 15.442 13.3353 15.1153 13.2999C14.6631 13.2509 14.3153 13.2806 14.0021 13.3949C13.3951 13.6165 12.9598 14.0792 12.7255 14.7522L12.6613 14.9365L12.6505 15.4669L12.6397 15.9973L12.5852 16.0441C12.5456 16.0782 12.5077 16.0909 12.4455 16.0909C12.224 16.0909 11.9893 16.187 11.7935 16.3578C11.6368 16.4946 11.5671 16.537 11.4992 16.5371C11.42 16.5372 11.3696 16.4965 11.2286 16.3185C10.7057 15.6588 10.0802 15.377 9.29781 15.4487C8.68967 15.5045 8.25587 15.7486 7.78171 16.3018C7.61921 16.4913 7.56702 16.4978 7.37975 16.3515C7.15446 16.1754 6.98549 16.1162 6.64313 16.0932C6.43521 16.0793 6.41206 16.0738 6.37731 16.0311C6.3432 15.9891 6.34053 15.965 6.35162 15.7999C6.38565 15.2933 6.38595 15.2445 6.35603 15.0618C6.23207 14.3052 5.73919 13.6849 5.04111 13.407C4.74587 13.2895 4.6268 13.2714 4.13523 13.2696C3.6 13.2677 3.62756 13.2802 3.58973 13.0216C3.53923 12.6762 3.4624 12.5007 3.2698 12.2908C3.19984 12.2146 3.14264 12.137 3.14268 12.1184C3.14282 12.0525 3.21856 11.9619 3.41475 11.793C3.73967 11.5133 3.95388 11.2098 4.08467 10.8438C4.3992 9.9638 4.09262 8.97584 3.33375 8.42386C3.08285 8.24137 3.06696 8.17434 3.22578 7.96849C3.36549 7.78743 3.39015 7.74589 3.44597 7.59759C3.47687 7.51548 3.49821 7.4096 3.50528 7.30323C3.51814 7.10999 3.54674 7.02675 3.61583 6.98149C3.66941 6.94637 3.68754 6.9468 4.06239 6.99235C4.64607 7.06329 5.25809 6.85495 5.70829 6.43208C6.07738 6.08541 6.30848 5.61711 6.36373 5.10392C6.3848 4.90828 6.38181 4.84654 6.33158 4.43602C6.30939 4.2546 6.39702 4.18663 6.69249 4.15617C6.90785 4.13398 7.04946 4.06685 7.24701 3.89334C7.46677 3.70035 7.50425 3.68396 7.59311 3.74218Z" fill="#007A64"/>
</svg>
