<svg width="18" height="19" viewBox="0 0 18 19" fill="none" xmlns="http://www.w3.org/2000/svg">
<path fill-rule="evenodd" clip-rule="evenodd" d="M7.6823 0.641222C6.50384 0.686274 5.69916 0.873053 4.74004 1.32409C2.16067 2.53712 0.329564 5.46306 0.030875 8.84887C-0.147082 10.8662 0.452613 13.2169 1.61352 15.0526C2.25755 16.071 3.13908 16.9659 4.05924 17.5355C5.03416 18.139 6.22073 18.509 7.356 18.5635C8.11165 18.5998 9.86804 18.6216 10.1961 18.5988C10.7625 18.5594 11.589 18.4212 12.093 18.2815C13.8226 17.8022 15.1225 16.9367 16.1367 15.5891C17.1875 14.1929 17.8288 12.3521 17.9771 10.3062C18.1586 7.80387 17.2486 4.96884 15.6739 3.13011C14.4045 1.64794 12.6537 0.760131 10.8103 0.663883C10.2387 0.634021 8.24763 0.619619 7.6823 0.641222ZM10.9048 1.32832C11.6232 1.4223 12.2634 1.61283 12.9116 1.92556C13.4575 2.18892 13.9142 2.48765 14.3819 2.88727C15.804 4.10226 16.7721 5.81236 17.1549 7.78585C17.2863 8.46347 17.3348 9.06258 17.3179 9.79991C17.2995 10.5977 17.2155 11.2151 17.0234 11.9638C16.3643 14.5326 14.637 16.6312 12.4728 17.4926C11.6921 17.8034 11.0213 17.9316 10.1802 17.9308C9.24656 17.93 8.48484 17.7753 7.65773 17.4183C6.4389 16.8923 5.38825 16.0033 4.58085 14.8147C3.37111 13.0338 2.81509 10.7806 3.04661 8.59741C3.22806 6.8865 3.86549 5.27754 4.87038 3.99401C5.02354 3.79839 5.33911 3.43951 5.46839 3.31391C6.29427 2.51155 7.1805 1.95135 8.15035 1.61859C8.58773 1.46854 9.0141 1.37261 9.52759 1.30874C9.73255 1.28325 10.661 1.29646 10.9048 1.32832ZM7.24349 1.48738C7.18779 1.5194 7.05162 1.58655 6.9409 1.63657L6.73956 1.72753L6.50209 1.71333C6.37145 1.7055 6.2342 1.69065 6.19707 1.6803C6.13382 1.66268 6.1324 1.65995 6.17457 1.63729C6.26382 1.58934 7.0784 1.43859 7.28849 1.43116C7.3357 1.42947 7.32846 1.43852 7.24349 1.48738ZM5.95516 1.94858C6.11917 1.96494 6.25333 1.98475 6.25333 1.99258C6.25333 2.01924 5.78483 2.32876 5.74331 2.32952C5.62976 2.33162 4.7231 2.22702 4.7231 2.21183C4.7231 2.19306 5.01339 2.04159 5.21817 1.95353C5.35585 1.89433 5.40776 1.89397 5.95516 1.94858ZM4.77936 2.52109C4.96501 2.54004 5.18129 2.56651 5.25998 2.57992L5.40306 2.60427L5.20373 2.80574L5.00439 3.00719L4.86937 2.9936C4.50936 2.95732 3.78459 2.86477 3.7484 2.85046C3.716 2.83761 3.76191 2.79618 3.97171 2.64878C4.22726 2.46925 4.23909 2.46364 4.33878 2.47494C4.39545 2.48135 4.5937 2.50212 4.77936 2.52109ZM3.65623 3.13839C3.75412 3.15049 4.01073 3.18189 4.22644 3.20813C4.74191 3.27084 4.72485 3.26312 4.62149 3.38683C4.57588 3.44142 4.49329 3.53645 4.43793 3.59802L4.33727 3.70998L3.79319 3.64577C3.16763 3.57194 3.00871 3.54385 2.99589 3.50479C2.98504 3.47173 3.21973 3.21821 3.31663 3.15828C3.39467 3.11003 3.41659 3.10875 3.65623 3.13839ZM3.4404 3.88188C4.05825 3.96015 4.09325 3.96658 4.09223 4.00142C4.091 4.04298 3.90802 4.28899 3.84193 4.33796C3.78216 4.38222 3.78184 4.3822 3.21527 4.31039C2.52923 4.22344 2.38274 4.19859 2.38274 4.1692C2.38274 4.13813 2.60086 3.86662 2.6605 3.82353C2.69542 3.79826 2.73741 3.79211 2.8103 3.80165C2.866 3.80892 3.14954 3.84504 3.4404 3.88188ZM2.89476 4.5566C3.2554 4.60611 3.55861 4.64677 3.56858 4.64695C3.57853 4.64716 3.60065 4.65616 3.6177 4.66696C3.64259 4.68271 3.6292 4.72335 3.55019 4.87179C3.496 4.97364 3.42127 5.09068 3.38414 5.1319L3.31663 5.20682L2.60777 5.10659C2.2179 5.05145 1.87591 5.00111 1.84778 4.9947C1.78786 4.98106 1.7915 4.97154 1.947 4.73478C2.07142 4.5453 2.1449 4.46659 2.19728 4.46659C2.22026 4.46659 2.53412 4.50709 2.89476 4.5566ZM2.20271 5.33252C2.83852 5.41927 3.21536 5.48392 3.21536 5.50623C3.21536 5.55299 2.9935 5.98906 2.95034 6.02714C2.90441 6.06764 2.8905 6.0669 2.40105 5.99856C1.67721 5.89745 1.37154 5.84828 1.35325 5.82996C1.33324 5.80995 1.55312 5.37361 1.6187 5.30324C1.65387 5.26551 1.68297 5.25482 1.72662 5.26364C1.7595 5.27028 1.97373 5.30126 2.20271 5.33252ZM1.91615 6.20973C2.29036 6.26493 2.65091 6.31705 2.71741 6.32551L2.8383 6.3409L2.82565 6.44766C2.8187 6.50637 2.78267 6.62136 2.74556 6.70319C2.67956 6.84874 2.67625 6.85196 2.59229 6.85196C2.46616 6.85196 1.18483 6.66974 1.07191 6.63574C1.05024 6.62922 1.03253 6.603 1.03253 6.57746C1.03253 6.53261 1.20801 6.10934 1.2266 6.10934C1.23164 6.10934 1.54194 6.15451 1.91615 6.20973ZM1.42634 6.975C1.62437 7.00516 1.91804 7.05003 2.07894 7.07472C2.23984 7.09938 2.41705 7.12654 2.47275 7.13505C2.63084 7.1592 2.62913 7.15481 2.57325 7.39204C2.49849 7.70941 2.51236 7.69181 2.35132 7.67353C2.27578 7.66496 1.89497 7.60544 1.5051 7.54124L0.796241 7.42451L0.798783 7.34093C0.800201 7.29496 0.829073 7.18132 0.862963 7.0884C0.936505 6.88675 0.898024 6.89451 1.42634 6.975ZM5.92291 7.71841C5.41665 7.82845 5.01906 8.23349 4.81273 8.84936C4.74621 9.04787 4.73824 9.10071 4.72825 9.40932C4.71126 9.93392 4.77668 10.289 4.95983 10.6663C5.12926 11.0153 5.35029 11.245 5.67358 11.4079C5.88466 11.5143 6.03446 11.5408 6.34335 11.5264C6.6858 11.5105 6.80235 11.4661 7.03906 11.2616C7.13864 11.1755 7.22537 11.1051 7.23181 11.1051C7.23822 11.1051 7.24349 11.1589 7.24349 11.2246C7.24349 11.416 7.26405 11.4301 7.55669 11.439L7.80607 11.4466V10.4432V9.43985H7.13097H6.45586V9.78866V10.1375L6.66402 10.1377C6.93838 10.138 7.04109 10.1557 7.04046 10.2023C7.03963 10.2642 6.96044 10.4176 6.88503 10.5035C6.79186 10.6096 6.61208 10.6766 6.376 10.6933C6.0197 10.7185 5.85588 10.6296 5.71793 10.3366C5.61093 10.1092 5.57098 9.91306 5.57206 9.61988C5.574 9.08707 5.78422 8.64215 6.07184 8.56226C6.17842 8.53265 6.40345 8.53378 6.54739 8.56465C6.69721 8.59679 6.8082 8.69634 6.89374 8.87529L6.95922 9.01229L7.30951 9.01197C7.756 9.01159 7.76946 9.00824 7.74988 8.90227C7.7416 8.85758 7.69743 8.72987 7.65168 8.61848C7.39388 7.99077 6.9414 7.68123 6.28911 7.68636C6.16424 7.68735 5.99945 7.70178 5.92291 7.71841ZM1.6135 7.84033C2.06298 7.91308 2.43647 7.97837 2.44349 7.98537C2.46134 8.00323 2.39205 8.47189 2.36802 8.49592C2.35677 8.50718 2.10734 8.47734 1.78606 8.42632C0.876533 8.28187 0.674542 8.24157 0.610879 8.1919C0.607954 8.18963 0.625664 8.08215 0.650261 7.9531C0.674857 7.82402 0.694975 7.71589 0.694975 7.71276C0.694975 7.69572 0.87246 7.72039 1.6135 7.84033ZM9.43406 7.77404C9.26747 7.80966 9.01361 7.92962 8.85932 8.04563C8.67516 8.18412 8.54905 8.3386 8.43426 8.56638C8.31368 8.80569 8.25929 9.01816 8.22956 9.36613C8.14056 10.4079 8.48991 11.0979 9.24819 11.378C9.49199 11.4681 9.77148 11.4885 9.98891 11.4321C10.4771 11.3054 10.8859 10.9045 11.0341 10.4075C11.1755 9.93288 11.1665 9.22281 11.0134 8.78469C10.8104 8.20345 10.2842 7.78801 9.71887 7.76263C9.61366 7.7579 9.48551 7.76303 9.43406 7.77404ZM11.5642 9.62339V11.3822L11.9072 11.3673C12.0959 11.3592 12.5465 11.3458 12.9086 11.3377L13.567 11.3229V10.944V10.565H12.9369H12.3068V9.22871V7.89236L12.2561 7.87879C12.2283 7.87134 12.0612 7.86508 11.8848 7.86493L11.5642 7.86461V9.62339ZM13.927 9.61297V11.3076L14.1127 11.3062C14.2148 11.3054 14.5385 11.2971 14.8321 11.2877L15.3658 11.2707L15.5564 11.1763C15.915 10.9986 16.1498 10.6786 16.269 10.205C16.344 9.907 16.354 9.3887 16.2906 9.08113C16.2039 8.65988 16.0337 8.36829 15.7627 8.17669C15.4926 7.98575 15.2518 7.94371 14.3265 7.92596L13.927 7.91828V9.61297ZM1.51586 8.66072L2.32551 8.8001L2.34419 8.90056C2.36514 9.01317 2.34765 9.32642 2.31883 9.35524C2.30359 9.37048 0.93979 9.15377 0.615043 9.0845L0.526199 9.06555L0.530925 8.92079C0.533513 8.84115 0.541839 8.71347 0.5494 8.63702L0.563172 8.49806L0.634711 8.5097C0.674047 8.51611 1.07056 8.58407 1.51586 8.66072ZM9.90819 8.5964C9.98038 8.61522 10.0685 8.65131 10.1041 8.67665C10.2596 8.78741 10.3667 9.08941 10.3866 9.47361C10.413 9.98255 10.2509 10.4654 10.0128 10.5868C9.90047 10.6441 9.66486 10.6798 9.54728 10.6574C9.38424 10.6262 9.19346 10.4491 9.09782 10.2403C9.00006 10.0267 8.97297 9.47447 9.04457 9.15494C9.09581 8.92633 9.21844 8.74542 9.4026 8.62671C9.48479 8.57372 9.52711 8.56222 9.63979 8.56222C9.7152 8.56222 9.836 8.57761 9.90819 8.5964ZM15.1985 8.72888C15.5239 8.86651 15.7191 9.33317 15.6582 9.82772C15.6169 10.1628 15.4767 10.3823 15.2324 10.4943C15.1269 10.5427 15.0758 10.5512 14.8897 10.5513C14.7694 10.5513 14.6651 10.5455 14.658 10.5384C14.6364 10.5168 14.6343 8.73338 14.6559 8.70001C14.684 8.65637 15.0764 8.67723 15.1985 8.72888ZM1.48822 9.521L2.33773 9.6727V9.90795V10.1432L2.24209 10.1288C2.06753 10.1025 0.753371 9.86614 0.627465 9.83841L0.503695 9.81116L0.497259 9.57785L0.490801 9.34453L0.56477 9.35693C0.605434 9.36375 1.02098 9.43758 1.48822 9.521ZM1.29132 10.2393C1.83235 10.3384 2.24886 10.4208 2.31878 10.4426C2.33928 10.449 2.36149 10.4684 2.36813 10.4856C2.38568 10.5314 2.43209 10.8833 2.42189 10.8934C2.41714 10.8982 2.22665 10.8669 1.99856 10.8239C1.77048 10.7809 1.35601 10.7033 1.07753 10.6514C0.799053 10.5995 0.562767 10.5499 0.552483 10.5412C0.528067 10.5205 0.486503 10.1854 0.50302 10.1424C0.518908 10.101 0.570643 10.1073 1.29132 10.2393ZM1.05856 10.9257C1.8591 11.0739 2.46226 11.201 2.47687 11.2245C2.48533 11.2381 2.50846 11.3408 2.52831 11.4528C2.54816 11.5648 2.57019 11.6856 2.57726 11.7213L2.59013 11.786L2.48081 11.7704C2.16353 11.7249 0.677917 11.4331 0.656967 11.4122C0.64405 11.3992 0.560584 10.9454 0.560157 10.8857C0.559842 10.8432 0.654109 10.8508 1.05856 10.9257ZM1.72563 11.9167C2.22937 12.0166 2.65496 12.1114 2.67137 12.1274C2.69709 12.1525 2.76941 12.3716 2.81845 12.573C2.83285 12.632 2.8306 12.6338 2.75996 12.6213C2.54382 12.5827 0.986462 12.2706 0.916162 12.2517C0.82707 12.2278 0.835577 12.2496 0.730418 11.7746C0.724409 11.7475 0.735459 11.7352 0.765703 11.7352C0.789917 11.7352 1.22187 11.8169 1.72563 11.9167ZM1.35968 12.6339C1.84033 12.7222 2.6805 12.8974 2.82702 12.9399C2.92912 12.9695 2.95142 12.9867 2.99274 13.0676C3.0582 13.196 3.15199 13.4488 3.13894 13.4619C3.12179 13.479 1.17455 13.0613 1.12292 13.0294C1.10499 13.0183 0.993551 12.7459 0.954868 12.6185C0.935312 12.5542 0.923588 12.5537 1.35968 12.6339ZM1.6982 13.4553C2.15185 13.5473 3.23316 13.7792 3.28729 13.796C3.32959 13.8091 3.61021 14.3408 3.58703 14.364C3.57135 14.3797 3.07238 14.2823 2.1577 14.0849C1.49545 13.942 1.54151 13.9687 1.36328 13.6247C1.26661 13.4381 1.25122 13.378 1.30009 13.378C1.30963 13.378 1.48879 13.4128 1.6982 13.4553ZM2.40524 14.4213C3.47721 14.6493 3.83414 14.7348 3.86139 14.7701C4.00229 14.9528 4.16168 15.2127 4.13533 15.2169C4.11823 15.2196 3.6344 15.1179 3.06016 14.991L2.01604 14.7602L1.8731 14.5378C1.79447 14.4155 1.73013 14.3082 1.73013 14.2994C1.73013 14.2817 1.85296 14.3038 2.40524 14.4213ZM3.07668 15.279C4.54356 15.6085 4.45443 15.5787 4.64559 15.8028C4.72535 15.8963 4.79061 15.9818 4.79061 15.9928C4.79061 16.0192 4.79191 16.0195 3.62686 15.7546L2.62165 15.526L2.4572 15.3414C2.30456 15.17 2.26673 15.1107 2.31005 15.1107C2.31959 15.1107 2.66457 15.1865 3.07668 15.279ZM4.08897 16.146C4.67908 16.2822 5.17913 16.4011 5.20015 16.4104C5.25263 16.4334 5.71872 16.8455 5.70634 16.8579C5.69475 16.8695 5.49938 16.8263 4.30678 16.5483L3.42915 16.3438L3.20425 16.121C3.08055 15.9986 2.98761 15.8984 2.99769 15.8984C3.00777 15.8984 3.49886 16.0098 4.08897 16.146ZM5.18248 17.024L6.30563 17.272L6.66287 17.4882C6.85935 17.6072 7.01575 17.7088 7.01044 17.7141C6.99797 17.7266 6.83246 17.6948 5.76951 17.4754C4.8037 17.2761 4.8477 17.291 4.3555 16.9958C4.05666 16.8166 3.99797 16.776 4.03791 16.776C4.0497 16.776 4.56476 16.8876 5.18248 17.024Z" fill="#007A64"/>
</svg>
