<svg width="25" height="26" viewBox="0 0 25 26" fill="none" xmlns="http://www.w3.org/2000/svg">
<path d="M6.67078 0.0990553C6.12527 0.276282 5.68367 0.667222 5.4343 1.1989C5.32 1.44389 5.29922 1.55857 5.29922 1.95472C5.29922 2.40821 5.32 2.4864 5.86031 4.17005C6.17203 5.12915 6.4318 5.94231 6.44219 5.9788C6.45258 6.01007 6.38504 6.08826 6.29152 6.15602C6.19801 6.21857 6.07332 6.33846 6.02137 6.42186C5.95902 6.51047 5.74082 6.66164 5.45508 6.80238C4.7641 7.15162 4.07312 7.66766 3.44449 8.30359C3.03926 8.70495 2.8834 8.83527 2.8834 8.76229C2.8834 8.57985 2.66 8.37656 2.46777 8.37656C2.22879 8.37656 2.07812 8.56421 2.03656 8.91867C1.96902 9.48683 1.54301 9.90905 0.935156 10.0081C0.187031 10.128 0.202617 10.7535 0.950742 10.8838C1.13258 10.9151 1.35598 10.988 1.45469 11.0506L1.63133 11.1601L1.53262 11.4415C1.37676 11.9002 1.22609 12.6665 1.16895 13.3024C1.14297 13.6256 1.11699 15.3092 1.11699 17.0346C1.11699 20.6208 1.14816 20.355 0.649414 20.7928C0.431211 20.9857 0.296133 21.1629 0.171445 21.4131C0.0155859 21.7207 0 21.8093 0 22.2054C0 22.5755 0.0207812 22.6954 0.140273 22.9456C0.306523 23.3001 0.644219 23.6545 0.961133 23.8109C1.27285 23.9568 2.86262 24.3582 2.9873 24.3165C3.12758 24.2696 3.29902 24.0402 3.29902 23.8891C3.29902 23.6545 3.1016 23.5346 2.46777 23.3782C1.24168 23.0811 1.06504 22.9925 0.888398 22.5599C0.706562 22.1324 0.826054 21.7884 1.30402 21.3245C1.48586 21.1421 1.70406 20.8762 1.78199 20.7303L1.92227 20.4592L1.95344 16.7844C1.97941 13.9123 2.00539 13.0366 2.06254 12.7707C2.11449 12.5205 2.15605 12.4371 2.2132 12.4528C2.64961 12.5831 2.82105 12.4684 2.89379 12.0097C2.99769 11.3321 3.38734 10.9568 4.07312 10.8629C4.73812 10.7743 4.69656 10.1175 4.01598 10.0081C3.71984 9.96117 3.4393 9.8465 3.37695 9.74746C3.325 9.66406 3.73023 9.16887 4.24457 8.67889C4.82125 8.13679 5.89668 7.40703 5.89668 7.55819C5.89668 7.71457 6.3175 8.0586 6.7539 8.2671C8.26054 8.976 9.9698 8.976 11.4816 8.2671C11.8401 8.09509 12.0012 7.98562 12.1622 7.79797L12.3752 7.54777L12.7441 7.77191C13.8507 8.45475 14.5521 9.20014 15.4301 10.644C15.5755 10.8786 15.8249 10.9463 16.0119 10.8056C16.3185 10.5815 16.2561 10.3417 15.6794 9.46077C15.0248 8.4756 13.7676 7.33927 12.7441 6.82323C12.5675 6.73461 12.3025 6.52611 12.1103 6.33325L11.783 5.99965L11.9284 5.54094C12.0116 5.29074 12.0791 5.01969 12.0791 4.94671C12.0791 4.62875 11.6998 4.43589 11.4505 4.63396C11.3466 4.71215 11.2634 4.89459 11.1128 5.36893L10.9153 6.00486L10.6244 6.15081C10.4686 6.229 10.2919 6.30719 10.2296 6.32804L10.1205 6.35931L10.24 5.51488C10.3906 4.45152 10.3906 4.45152 10.2348 4.30036C10.0737 4.13356 9.82953 4.12835 9.66847 4.28993C9.56976 4.38897 9.5334 4.54535 9.40351 5.46275C9.26324 6.48962 9.25285 6.51569 9.13336 6.51569C9.07101 6.51569 9.01387 6.48962 9.01387 6.45314C9.01387 6.42186 8.94113 5.67647 8.85281 4.80076C8.7489 3.74262 8.67097 3.16403 8.61902 3.09105C8.47355 2.8617 8.09429 2.87212 7.94363 3.10148C7.8657 3.22136 7.8709 3.33083 7.99558 4.62354C8.06832 5.39499 8.14625 6.09868 8.16183 6.1873C8.19301 6.40622 8.14625 6.40622 7.68906 6.1873L7.32539 6.01007L6.71754 4.08143C6.35906 2.95553 6.10449 2.06939 6.10449 1.94951C6.10969 1.27709 6.81105 0.72456 7.47086 0.880936C7.61113 0.912211 7.8657 1.02689 8.03195 1.13114C8.7541 1.5742 9.48144 1.56899 10.2452 1.10507C10.6816 0.839235 10.9725 0.78711 11.3414 0.906998C11.783 1.05816 12.1311 1.52729 12.1311 1.98078C12.1311 2.05376 12.0479 2.39778 11.944 2.74702C11.7622 3.3621 11.757 3.38817 11.8401 3.51848C11.97 3.71656 12.1726 3.77911 12.3752 3.68007C12.5207 3.6123 12.5623 3.53933 12.7337 3.01286C12.9052 2.50725 12.9311 2.35608 12.9311 1.95472C12.9363 1.55857 12.9155 1.43868 12.7961 1.19369C12.5519 0.656797 12.0791 0.250219 11.5128 0.0834177C10.9881 -0.0729584 10.4218 0.0104422 9.94902 0.312769C9.29961 0.729772 8.93594 0.729772 8.28652 0.312769C7.79816 0.00522963 7.21109 -0.0729584 6.67078 0.0990553ZM7.48125 7.00045C8.07871 7.26629 8.65019 7.37054 9.32558 7.33406C9.95422 7.29757 10.3335 7.20374 10.8842 6.95354C11.305 6.75546 11.4661 6.75546 11.5648 6.9379C11.6843 7.16204 11.5855 7.29236 11.1284 7.51128C10.4218 7.84488 9.99058 7.93871 9.11777 7.93871C8.25535 7.93871 7.82414 7.8501 7.12797 7.52171C6.60844 7.27672 6.50453 7.1047 6.73312 6.87535C6.86301 6.74504 6.92535 6.75546 7.48125 7.00045ZM2.68078 10.2479L2.87301 10.4355L2.66519 10.6336L2.45738 10.8317L2.25996 10.6336L2.06254 10.4355L2.25477 10.2479C2.35348 10.1436 2.45219 10.0602 2.46258 10.0602C2.47816 10.0602 2.57687 10.1436 2.68078 10.2479Z" fill="#007A64"/>
<path d="M14.6507 0.130371C14.5416 0.234622 14.5208 0.307598 14.5208 0.547374V0.834064H14.2351C13.887 0.834064 13.6896 0.985227 13.6896 1.25107C13.6896 1.51691 13.887 1.66807 14.2351 1.66807H14.5208V1.95476C14.5208 2.304 14.6715 2.50208 14.9364 2.50208C15.2014 2.50208 15.3521 2.304 15.3521 1.95476V1.66807H15.6378C15.9859 1.66807 16.1833 1.51691 16.1833 1.25107C16.1833 0.985227 15.9859 0.834064 15.6378 0.834064H15.3521V0.547374C15.3521 0.198134 15.2014 5.80996e-05 14.9364 5.80996e-05C14.8377 5.80996e-05 14.7286 0.0469709 14.6507 0.130371Z" fill="#007A64"/>
<path d="M22.5478 0.130328C22.4646 0.208517 22.4179 0.312767 22.4179 0.422231C22.4179 1.05816 21.81 1.66803 21.1762 1.66803C20.958 1.66803 20.7554 1.8661 20.7554 2.08503C20.7554 2.30396 20.958 2.50203 21.1762 2.50203C21.81 2.50203 22.4179 3.1119 22.4179 3.74783C22.4179 3.96676 22.6153 4.17004 22.8335 4.17004C23.0517 4.17004 23.2491 3.96676 23.2491 3.74783C23.2491 3.1119 23.857 2.50203 24.4908 2.50203C24.709 2.50203 24.9116 2.30396 24.9116 2.08503C24.9116 1.8661 24.709 1.66803 24.4908 1.66803C23.857 1.66803 23.2491 1.05816 23.2491 0.422231C23.2491 0.203304 23.0517 1.508e-05 22.8335 1.508e-05C22.7348 1.508e-05 22.6257 0.0469279 22.5478 0.130328ZM23.0413 1.90259L23.2179 2.08503L23.0257 2.28311L22.8335 2.47597L22.6413 2.28311L22.449 2.08503L22.6257 1.90259C22.7244 1.80355 22.8179 1.72015 22.8335 1.72015C22.8491 1.72015 22.9426 1.80355 23.0413 1.90259Z" fill="#007A64"/>
<path d="M0.935245 0.964337C0.675479 1.21975 0.857315 1.66803 1.22099 1.66803C1.43399 1.66803 1.63661 1.46474 1.63661 1.25103C1.63661 1.03731 1.43399 0.834024 1.22099 0.834024C1.12228 0.834024 1.01317 0.880937 0.935245 0.964337Z" fill="#007A64"/>
<path d="M18.3915 1.79838C18.3084 1.87657 18.2616 1.98603 18.2616 2.08507C18.2616 2.18411 18.3084 2.29357 18.3915 2.37176C18.4694 2.45516 18.5785 2.50208 18.6772 2.50208C18.7759 2.50208 18.885 2.45516 18.963 2.37176C19.0461 2.29357 19.0928 2.18411 19.0928 2.08507C19.0928 1.98603 19.0461 1.87657 18.963 1.79838C18.885 1.71498 18.7759 1.66807 18.6772 1.66807C18.5785 1.66807 18.4694 1.71498 18.3915 1.79838Z" fill="#007A64"/>
<path d="M15.0664 3.88338C14.9833 3.96157 14.9365 4.06582 14.9365 4.17528C14.9365 4.81121 14.3287 5.42108 13.6949 5.42108C13.4767 5.42108 13.274 5.61915 13.274 5.83808C13.274 6.05701 13.4767 6.25508 13.6949 6.25508C14.3287 6.25508 14.9365 6.86495 14.9365 7.50088C14.9365 7.71981 15.134 7.9231 15.3522 7.9231C15.5704 7.9231 15.7678 7.71981 15.7678 7.50088C15.7678 6.86495 16.3756 6.25508 17.0095 6.25508C17.2277 6.25508 17.4303 6.05701 17.4303 5.83808C17.4303 5.61915 17.2277 5.42108 17.0095 5.42108C16.3756 5.42108 15.7678 4.81121 15.7678 4.17528C15.7678 3.95636 15.5704 3.75307 15.3522 3.75307C15.2535 3.75307 15.1444 3.79998 15.0664 3.88338ZM15.56 5.65564L15.7366 5.83808L15.5444 6.03616L15.3522 6.22902L15.1599 6.03616L14.9677 5.83808L15.1444 5.65564C15.2431 5.5566 15.3366 5.4732 15.3522 5.4732C15.3678 5.4732 15.4613 5.5566 15.56 5.65564Z" fill="#007A64"/>
<path d="M2.18196 4.30035C2.07286 4.40461 2.05207 4.47758 2.05207 4.71736V5.00405H1.76633C1.41825 5.00405 1.22083 5.15521 1.22083 5.42105C1.22083 5.68689 1.41825 5.83805 1.76633 5.83805H2.05207V6.12474C2.05207 6.47398 2.20274 6.67206 2.4677 6.67206C2.73266 6.67206 2.88332 6.47398 2.88332 6.12474V5.83805H3.16907C3.51715 5.83805 3.71457 5.68689 3.71457 5.42105C3.71457 5.15521 3.51715 5.00405 3.16907 5.00405H2.88332V4.71736C2.88332 4.36812 2.73266 4.17004 2.4677 4.17004C2.36899 4.17004 2.25989 4.21695 2.18196 4.30035Z" fill="#007A64"/>
<path d="M19.6383 4.30035C19.5292 4.40461 19.5084 4.47758 19.5084 4.71736V5.00405H19.2226C18.8745 5.00405 18.6771 5.15521 18.6771 5.42105C18.6771 5.68689 18.8745 5.83805 19.2226 5.83805H19.5084V6.12474C19.5084 6.47398 19.659 6.67206 19.924 6.67206C20.189 6.67206 20.3396 6.47398 20.3396 6.12474V5.83805H20.6254C20.9735 5.83805 21.1709 5.68689 21.1709 5.42105C21.1709 5.15521 20.9735 5.00405 20.6254 5.00405H20.3396V4.71736C20.3396 4.36812 20.189 4.17004 19.924 4.17004C19.8253 4.17004 19.7162 4.21695 19.6383 4.30035Z" fill="#007A64"/>
<path d="M20.5007 7.56342C19.711 7.7198 19.1395 8.02733 18.5473 8.62678C18.168 9.00208 18.0329 9.18452 17.8563 9.53897C17.5446 10.1697 17.4614 10.5398 17.4562 11.2695C17.4562 11.869 17.4562 11.8794 17.3523 11.8012C16.9835 11.5249 16.4691 11.4415 16.1003 11.5979C15.9184 11.6761 11.7934 14.4648 11.5648 14.6681C11.3673 14.8453 11.1959 15.2623 11.1959 15.5751C11.1959 15.8878 11.2738 16.1068 11.5076 16.4456L11.6687 16.6801H10.7231C9.58535 16.6801 9.44507 16.7114 9.09179 17.0711C8.69695 17.462 8.58265 17.9729 8.83203 18.2178C9.0866 18.4785 9.53339 18.296 9.53339 17.9312C9.53339 17.6653 9.73082 17.5141 10.0789 17.5141H10.3646V17.8008C10.3646 18.1501 10.5153 18.3482 10.7803 18.3482C11.0452 18.3482 11.1959 18.1501 11.1959 17.8008V17.5141H11.6115H12.0271V17.8008C12.0271 18.1501 12.1778 18.3482 12.4428 18.3482C12.7077 18.3482 12.8584 18.1501 12.8584 17.8008V17.5141H13.274H13.6896V17.8008C13.6896 18.1501 13.8403 18.3482 14.1053 18.3482C14.3702 18.3482 14.5209 18.1501 14.5209 17.8008V17.5141H14.8066C15.0456 17.5141 15.1184 17.535 15.2223 17.6445C15.3469 17.7644 15.3521 17.8061 15.3521 18.3482C15.3521 18.8903 15.3469 18.932 15.2223 19.0518L15.0976 19.1822H13.4662C11.7882 19.1822 11.6323 19.1978 11.3414 19.4011C11.1959 19.5001 11.1959 19.5001 11.0556 19.4011C10.9725 19.349 10.8322 19.276 10.7335 19.2447C10.4789 19.1561 5.28882 19.1561 4.99269 19.2447C4.70695 19.3281 4.27574 19.7608 4.19261 20.0474C4.11468 20.3185 4.10949 21.4027 4.19261 21.6373C4.22379 21.7363 4.29652 21.877 4.34847 21.9552C4.44718 22.1012 4.44718 22.1012 4.34847 22.2419C4.29652 22.3253 4.22379 22.4661 4.19261 22.5651C4.10949 22.7997 4.11468 23.8839 4.19261 24.1549C4.27574 24.4416 4.70695 24.8742 4.99269 24.9576C5.28882 25.0463 10.4789 25.0463 10.7335 24.9576C10.8322 24.9264 10.9725 24.8534 11.0556 24.8013C11.1959 24.7022 11.1959 24.7022 11.3414 24.8013C11.6271 24.9993 11.7934 25.0202 13.2584 25.0202H14.6819L14.8066 24.8899C14.9781 24.7231 14.9781 24.4833 14.8066 24.3165L14.6819 24.1862H13.274H11.8661L11.7414 24.0559C11.6167 23.936 11.6115 23.8943 11.6115 23.3522C11.6115 22.8101 11.6167 22.7684 11.7414 22.6485C11.8453 22.539 11.918 22.5182 12.157 22.5182H12.4428V22.8049C12.4428 23.1541 12.5934 23.3522 12.8584 23.3522C13.1234 23.3522 13.274 23.1541 13.274 22.8049V22.5182H13.6896H14.1053V22.8049C14.1053 23.1541 14.2559 23.3522 14.5209 23.3522C14.7859 23.3522 14.9365 23.1541 14.9365 22.8049V22.5182H15.3521H15.7678V22.8049C15.7678 23.1541 15.9184 23.3522 16.1834 23.3522C16.4484 23.3522 16.599 23.1541 16.599 22.8049V22.5182H16.8848C17.1237 22.5182 17.1965 22.539 17.3004 22.6485C17.4251 22.7684 17.4303 22.8101 17.4303 23.3522C17.4303 23.8943 17.4251 23.936 17.3004 24.0559C17.1809 24.181 17.1393 24.1862 16.599 24.1862C16.0587 24.1862 16.0171 24.1914 15.8976 24.3165C15.8145 24.3947 15.7678 24.5042 15.7678 24.6032C15.7678 24.7022 15.8145 24.8117 15.8976 24.8899C16.0171 25.015 16.0535 25.0202 16.6146 25.0202C17.2225 25.0202 17.4562 24.9733 17.7056 24.8013C17.8459 24.7022 17.8459 24.7022 17.9914 24.8013C18.0693 24.8534 18.2096 24.9264 18.3083 24.9576C18.5628 25.0463 23.753 25.0463 24.0491 24.9576C24.3348 24.8742 24.766 24.4416 24.8492 24.1549C24.9271 23.8787 24.9323 22.8257 24.8492 22.5599C24.818 22.4452 24.6881 22.2367 24.5634 22.1012C24.1842 21.6738 24.2465 21.6842 21.1865 21.6842H18.5161L18.3914 21.5539C18.2667 21.434 18.2615 21.3923 18.2615 20.8502C18.2615 20.3081 18.2667 20.2664 18.3914 20.1465C18.4953 20.037 18.568 20.0162 18.807 20.0162H19.0928V20.3029C19.0928 20.6521 19.2434 20.8502 19.5084 20.8502C19.7734 20.8502 19.924 20.6521 19.924 20.3029V20.0162H20.3396H20.7553V20.3029C20.7553 20.6521 20.9059 20.8502 21.1709 20.8502C21.4359 20.8502 21.5865 20.6521 21.5865 20.3029V20.0162H22.0021H22.4178V20.3029C22.4178 20.6521 22.5684 20.8502 22.8334 20.8502C23.0984 20.8502 23.249 20.6521 23.249 20.3029V20.0162H23.5348C23.8828 20.0162 24.0803 20.1673 24.0803 20.4332C24.0803 20.798 24.5271 20.9805 24.7816 20.7199C25.031 20.4749 24.9167 19.964 24.5219 19.5731C24.1998 19.2499 23.9971 19.1822 23.3217 19.1822H22.8074L22.823 18.4785C22.8334 18.0823 22.8178 17.707 22.7918 17.6236C22.7399 17.4829 22.7503 17.4672 22.9009 17.4047C23.1555 17.2952 23.4101 17.0398 23.54 16.7583C23.6491 16.5342 23.6646 16.4195 23.6646 15.8774C23.6646 15.1529 23.6127 14.9339 23.3633 14.642L23.1763 14.4231L23.3321 14.3137C24.5115 13.464 25.1089 11.9836 24.8388 10.5711C24.7505 10.1071 24.5271 9.52855 24.3556 9.32526C24.179 9.11675 23.8776 9.11154 23.7218 9.30962C23.5867 9.48684 23.5867 9.5911 23.7218 9.86215C24.179 10.7587 24.1894 11.7074 23.753 12.5779C23.0256 14.0322 21.2436 14.6056 19.7941 13.8497C19.3889 13.636 18.8018 13.047 18.5888 12.6404C17.8355 11.1861 18.407 9.39823 19.8565 8.66848C20.7241 8.23062 21.6696 8.24105 22.5632 8.69975C22.8334 8.83528 22.9373 8.83528 23.1139 8.69975C23.3114 8.54338 23.3062 8.24105 23.0984 8.06382C22.61 7.65724 21.3112 7.40183 20.5007 7.56342ZM16.7964 12.4424C16.8588 12.4945 17.025 12.7082 17.1653 12.9219C17.451 13.3389 17.4926 13.5266 17.3419 13.6986C17.2173 13.8341 13.1961 16.5759 13.0091 16.6437C12.7805 16.7323 12.6298 16.6228 12.3129 16.1433C11.944 15.5855 11.9388 15.4396 12.2869 15.1789L12.5155 15.0017L12.609 15.1216C12.9311 15.5386 13.0922 15.6116 13.3156 15.4448C13.5857 15.2415 13.5909 15.0643 13.3312 14.6733L13.2325 14.5169L13.565 14.2876L13.9027 14.0582L13.991 14.1833C14.2715 14.5899 14.5001 14.6837 14.7495 14.4857C14.9313 14.3397 14.9313 14.0895 14.7443 13.808C14.6664 13.6881 14.63 13.5839 14.656 13.5578C14.7651 13.464 15.2378 13.1356 15.2638 13.1356C15.2794 13.1356 15.3677 13.2399 15.456 13.3702C15.7002 13.7246 16.0483 13.7559 16.2146 13.4432C16.3133 13.2503 16.2769 13.0731 16.0951 12.8333C16.0223 12.7395 15.9756 12.6509 15.9808 12.6456C16.3444 12.3537 16.6146 12.2912 16.7964 12.4424ZM18.4382 14.1677C18.2511 14.1781 18.0849 14.1729 18.0745 14.1625C18.0641 14.1521 18.1005 14.0322 18.1628 13.8914L18.2719 13.6464L18.5265 13.8966L18.7862 14.1521L18.4382 14.1677ZM17.8459 15.2988C17.8459 15.6481 17.9966 15.8461 18.2615 15.8461C18.5265 15.8461 18.6771 15.6481 18.6771 15.2988V15.0121H19.0928H19.5084V15.2988C19.5084 15.6481 19.6591 15.8461 19.924 15.8461C20.189 15.8461 20.3396 15.6481 20.3396 15.2988V15.0121H20.7553H21.1709V15.2988C21.1709 15.6481 21.3216 15.8461 21.5865 15.8461C21.8515 15.8461 22.0021 15.6481 22.0021 15.2988V15.0121H22.2879C22.5269 15.0121 22.5996 15.033 22.7035 15.1424C22.8282 15.2623 22.8334 15.304 22.8334 15.8461C22.8334 16.3882 22.8282 16.4299 22.7035 16.5498L22.5788 16.6801H19.924H17.2692L17.1445 16.5498C17.0198 16.4299 17.0146 16.3882 17.0146 15.8461C17.0146 15.304 17.0198 15.2623 17.1445 15.1424C17.2484 15.033 17.3212 15.0121 17.5601 15.0121H17.8459V15.2988ZM16.2509 16.6593C16.2717 16.6801 16.1678 16.7635 16.0223 16.8469C15.7574 16.9877 15.7522 16.9877 15.6171 16.8939C15.4093 16.7479 15.3054 16.7218 14.9053 16.6854L14.5313 16.6541L15.3469 16.1016L16.1574 15.5438L16.1834 16.0807C16.199 16.3778 16.225 16.6384 16.2509 16.6593ZM17.0146 17.8008C17.0146 18.1501 17.1653 18.3482 17.4303 18.3482C17.6952 18.3482 17.8459 18.1501 17.8459 17.8008V17.5141H18.2615H18.6771V17.8008C18.6771 18.1501 18.8278 18.3482 19.0928 18.3482C19.3577 18.3482 19.5084 18.1501 19.5084 17.8008V17.5141H19.924H20.3396V17.8008C20.3396 18.1501 20.4903 18.3482 20.7553 18.3482C21.0202 18.3482 21.1709 18.1501 21.1709 17.8008V17.5141H21.4566C21.6956 17.5141 21.7684 17.535 21.8723 17.6445C21.9969 17.7644 22.0021 17.8061 22.0021 18.3482C22.0021 18.8903 21.9969 18.932 21.8723 19.0518L21.7476 19.1822H19.0928H16.438L16.3133 19.0518C16.1886 18.932 16.1834 18.8903 16.1834 18.3482C16.1834 17.8061 16.1886 17.7644 16.3133 17.6445C16.4172 17.535 16.4899 17.5141 16.7289 17.5141H17.0146V17.8008ZM5.79277 20.3029C5.79277 20.6521 5.94343 20.8502 6.20839 20.8502C6.47335 20.8502 6.62402 20.6521 6.62402 20.3029V20.0162H7.03964H7.45527V20.3029C7.45527 20.6521 7.60593 20.8502 7.87089 20.8502C8.13585 20.8502 8.28652 20.6521 8.28652 20.3029V20.0162H8.70214H9.11777V20.3029C9.11777 20.6521 9.26843 20.8502 9.53339 20.8502C9.79835 20.8502 9.94902 20.6521 9.94902 20.3029V20.0162H10.2348C10.4737 20.0162 10.5465 20.037 10.6504 20.1465C10.7751 20.2664 10.7803 20.3081 10.7803 20.8502C10.7803 21.3923 10.7751 21.434 10.6504 21.5539L10.5257 21.6842H7.87089H5.21609L5.0914 21.5539C4.96671 21.434 4.96152 21.3923 4.96152 20.8502C4.96152 20.3081 4.96671 20.2664 5.0914 20.1465C5.19531 20.037 5.26804 20.0162 5.50703 20.0162H5.79277V20.3029ZM12.4428 20.3029C12.4428 20.6521 12.5934 20.8502 12.8584 20.8502C13.1234 20.8502 13.274 20.6521 13.274 20.3029V20.0162H13.6896H14.1053V20.3029C14.1053 20.6521 14.2559 20.8502 14.5209 20.8502C14.7859 20.8502 14.9365 20.6521 14.9365 20.3029V20.0162H15.3521H15.7678V20.3029C15.7678 20.6521 15.9184 20.8502 16.1834 20.8502C16.4484 20.8502 16.599 20.6521 16.599 20.3029V20.0162H16.8848C17.1237 20.0162 17.1965 20.037 17.3004 20.1465C17.4251 20.2664 17.4303 20.3081 17.4303 20.8502C17.4303 21.3923 17.4251 21.434 17.3004 21.5539L17.1757 21.6842H14.5209H11.8661L11.7414 21.5539C11.6167 21.434 11.6115 21.3923 11.6115 20.8502C11.6115 20.3081 11.6167 20.2664 11.7414 20.1465C11.8453 20.037 11.918 20.0162 12.157 20.0162H12.4428V20.3029ZM5.79277 22.8049C5.79277 23.1541 5.94343 23.3522 6.20839 23.3522C6.47335 23.3522 6.62402 23.1541 6.62402 22.8049V22.5182H7.03964H7.45527V22.8049C7.45527 23.1541 7.60593 23.3522 7.87089 23.3522C8.13585 23.3522 8.28652 23.1541 8.28652 22.8049V22.5182H8.70214H9.11777V22.8049C9.11777 23.1541 9.26843 23.3522 9.53339 23.3522C9.79835 23.3522 9.94902 23.1541 9.94902 22.8049V22.5182H10.2348C10.4737 22.5182 10.5465 22.539 10.6504 22.6485C10.7751 22.7684 10.7803 22.8101 10.7803 23.3522C10.7803 23.8943 10.7751 23.936 10.6504 24.0559L10.5257 24.1862H7.87089H5.21609L5.0914 24.0559C4.96671 23.936 4.96152 23.8943 4.96152 23.3522C4.96152 22.8101 4.96671 22.7684 5.0914 22.6485C5.19531 22.539 5.26804 22.5182 5.50703 22.5182H5.79277V22.8049ZM19.0928 22.8049C19.0928 23.1541 19.2434 23.3522 19.5084 23.3522C19.7734 23.3522 19.924 23.1541 19.924 22.8049V22.5182H20.3396H20.7553V22.8049C20.7553 23.1541 20.9059 23.3522 21.1709 23.3522C21.4359 23.3522 21.5865 23.1541 21.5865 22.8049V22.5182H22.0021H22.4178V22.8049C22.4178 23.1541 22.5684 23.3522 22.8334 23.3522C23.0984 23.3522 23.249 23.1541 23.249 22.8049V22.5182H23.5348C23.7737 22.5182 23.8465 22.539 23.9504 22.6485C24.0751 22.7684 24.0803 22.8101 24.0803 23.3522C24.0803 23.8943 24.0751 23.936 23.9504 24.0559L23.8257 24.1862H21.1709H18.5161L18.3914 24.0559C18.2667 23.936 18.2615 23.8943 18.2615 23.3522C18.2615 22.8101 18.2667 22.7684 18.3914 22.6485C18.4953 22.539 18.568 22.5182 18.807 22.5182H19.0928V22.8049Z" fill="#007A64"/>
<path d="M20.6826 9.22621C20.3553 9.30961 19.8877 9.59109 19.6591 9.83608C19.5448 9.96118 19.3733 10.2218 19.285 10.4147C19.1344 10.7326 19.1188 10.8108 19.1188 11.2643C19.1188 11.7334 19.1292 11.7804 19.311 12.1557C19.5448 12.63 19.8461 12.9219 20.3293 13.1513C20.6462 13.3024 20.7241 13.3181 21.1709 13.3181C21.6177 13.3181 21.6956 13.3024 22.0126 13.1513C22.4957 12.9219 22.7971 12.63 23.0308 12.1557C23.2127 11.7804 23.2231 11.7334 23.2231 11.2591C23.2231 10.7848 23.2127 10.7378 23.0308 10.3625C22.6776 9.65364 22.0541 9.23143 21.2852 9.19494C21.067 9.18451 20.7969 9.20015 20.6826 9.22621ZM21.5554 10.0706C21.8411 10.154 22.2723 10.5867 22.3555 10.8734C22.5009 11.3634 22.397 11.7543 22.0281 12.1192C21.5034 12.6508 20.8384 12.6508 20.3137 12.1192C19.7838 11.5927 19.7838 10.9255 20.3137 10.399C20.6774 10.0289 21.067 9.92991 21.5554 10.0706Z" fill="#007A64"/>
<path d="M11.3258 10.1384C11.2167 10.2427 11.1959 10.3157 11.1959 10.5554V10.8421H10.9101C10.562 10.8421 10.3646 10.9933 10.3646 11.2591C10.3646 11.525 10.562 11.6761 10.9101 11.6761H11.1959V11.9628C11.1959 12.3121 11.3465 12.5101 11.6115 12.5101C11.8765 12.5101 12.0271 12.3121 12.0271 11.9628V11.6761H12.3129C12.661 11.6761 12.8584 11.525 12.8584 11.2591C12.8584 10.9933 12.661 10.8421 12.3129 10.8421H12.0271V10.5554C12.0271 10.2062 11.8765 10.0081 11.6115 10.0081C11.5128 10.0081 11.4037 10.055 11.3258 10.1384Z" fill="#007A64"/>
<path d="M6.75385 10.5554C6.49408 10.8108 6.67592 11.2591 7.03959 11.2591C7.2526 11.2591 7.45522 11.0558 7.45522 10.8421C7.45522 10.6284 7.2526 10.4251 7.03959 10.4251C6.94088 10.4251 6.83178 10.472 6.75385 10.5554Z" fill="#007A64"/>
<path d="M5.92263 14.3084C5.83951 14.3866 5.79275 14.4909 5.79275 14.6003C5.79275 15.2363 5.1849 15.8461 4.55107 15.8461C4.33287 15.8461 4.13025 16.0442 4.13025 16.2631C4.13025 16.4821 4.33287 16.6801 4.55107 16.6801C5.1849 16.6801 5.79275 17.29 5.79275 17.9259C5.79275 18.1449 5.99017 18.3481 6.20837 18.3481C6.42658 18.3481 6.624 18.1449 6.624 17.9259C6.624 17.29 7.23185 16.6801 7.86568 16.6801C8.08388 16.6801 8.2865 16.4821 8.2865 16.2631C8.2865 16.0442 8.08388 15.8461 7.86568 15.8461C7.23185 15.8461 6.624 15.2363 6.624 14.6003C6.624 14.3814 6.42658 14.1781 6.20837 14.1781C6.10966 14.1781 6.00056 14.225 5.92263 14.3084ZM6.41619 16.0807L6.59283 16.2631L6.4006 16.4612L6.20837 16.6541L6.01615 16.4612L5.82392 16.2631L6.00056 16.0807C6.09927 15.9817 6.19279 15.8983 6.20837 15.8983C6.22396 15.8983 6.31748 15.9817 6.41619 16.0807Z" fill="#007A64"/>
</svg>
