<svg width="36" height="36" viewBox="0 0 36 36" fill="none" xmlns="http://www.w3.org/2000/svg">
<circle cx="18" cy="18" r="18" fill="url(#paint0_linear_21982_2909)"/>
<path fill-rule="evenodd" clip-rule="evenodd" d="M13.165 10.109C13.0303 10.1658 12.856 10.2698 12.7775 10.3403L12.6347 10.4683L14.1463 12.6424C14.9777 13.8382 15.6786 14.8258 15.7039 14.8372C15.7292 14.8485 15.8018 14.736 15.8651 14.5871C16.0255 14.2105 16.025 13.1164 15.8643 12.5662C15.383 10.9186 14.6143 9.9858 13.7497 10.0002C13.5628 10.0032 13.2996 10.0522 13.165 10.109ZM19.294 10.4053C19.2766 10.5133 19.245 10.7848 19.224 11.0084L19.1856 11.415L19.419 11.4605C20.1349 11.5999 20.9095 12.004 21.4395 12.5147C22.3673 13.4087 22.8935 14.6349 22.9697 16.0807L23.0062 16.7734L23.3491 16.8156C23.5377 16.8387 23.7677 16.8718 23.8603 16.889L24.0286 16.9203V16.2481C24.0286 13.4465 22.3777 11.0066 20.0392 10.3523C19.373 10.1658 19.3321 10.1688 19.294 10.4053ZM12.145 10.9768C11.7304 11.5007 11.3354 12.3843 11.1469 13.2092C10.9846 13.9192 10.9475 15.6355 11.0826 16.1799C11.6857 18.6107 15.5746 24.1954 17.3268 25.1472C18.1867 25.6142 19.7467 25.7762 20.6985 25.4973C21.2266 25.3427 22.1131 24.8607 22.08 24.7462C22.0286 24.5682 19.0437 20.3517 18.9851 20.3744C18.8511 20.4265 18.6937 20.8614 18.6382 21.3324C18.5933 21.713 18.5475 21.8519 18.4249 21.9781C18.2484 22.1597 18.1639 22.1709 17.8164 22.0594C17.2215 21.8685 16.0364 20.5555 15.0116 18.9522C14.2334 17.7345 13.8031 16.7777 13.7615 16.1719C13.7327 15.7535 13.7423 15.7078 13.8972 15.527C14.0575 15.3399 14.0813 15.3341 14.5203 15.3775C14.9904 15.4239 15.4352 15.3007 15.3884 15.1371C15.3539 15.0159 12.3964 10.7803 12.3463 10.7803C12.3211 10.7803 12.2305 10.8688 12.145 10.9768ZM19.068 12.826C19.0662 12.8992 19.0444 13.1738 19.0193 13.4361L18.9739 13.9132L19.1864 13.9597C20.0303 14.1445 20.7363 15.0605 20.8272 16.0887C20.8674 16.5431 20.8529 16.5316 21.4733 16.6024L21.8865 16.6495V16.2302C21.8865 14.5615 20.7446 12.9858 19.3596 12.7434C19.1041 12.6987 19.0707 12.7081 19.068 12.826ZM18.3673 15.3424C18.0078 15.6015 17.9388 15.7529 17.9388 16.2827C17.9388 16.7034 17.9597 16.7955 18.0919 16.9606C18.7011 17.7218 19.7442 17.2927 19.7442 16.281C19.7442 15.4712 18.9445 14.9261 18.3673 15.3424ZM19.5607 19.9838C19.4766 20.0135 19.4077 20.0726 19.4077 20.115C19.4077 20.1574 20.0804 21.1609 20.9026 22.345L22.3974 24.4978L22.5458 24.3363C22.8245 24.033 23.0019 23.515 22.9995 23.0122C22.9944 21.9921 22.2779 21.0112 20.9993 20.2744C20.4905 19.9811 19.9036 19.8626 19.5607 19.9838Z" fill="white"/>
<defs>
<linearGradient id="paint0_linear_21982_2909" x1="18" y1="0" x2="18" y2="36" gradientUnits="userSpaceOnUse">
<stop stop-color="#012433"/>
<stop offset="1" stop-color="#007A64"/>
</linearGradient>
</defs>
</svg>
