<svg width="18" height="15" viewBox="0 0 18 15" fill="none" xmlns="http://www.w3.org/2000/svg">
<path fill-rule="evenodd" clip-rule="evenodd" d="M6.38751 0.254323C6.38751 0.258453 6.43899 0.393024 6.50191 0.553344C6.73631 1.15066 7.24534 2.5306 7.40026 2.98875C7.48841 3.2494 7.59733 3.55915 7.64235 3.67706C7.7389 3.92995 7.76215 4.12214 7.70655 4.20724C7.6862 4.23836 7.6566 4.26382 7.64073 4.26382C7.6033 4.26382 7.48852 4.14175 7.41709 4.02593C7.32836 3.88211 6.27784 1.95664 5.85721 1.16691C5.64746 0.773085 5.47078 0.450977 5.46459 0.451113C5.4584 0.451225 4.93672 1.12266 4.3053 1.94319C3.67389 2.76371 3.12285 3.47953 3.08078 3.53389C3.03871 3.58828 3.00877 3.63725 3.01424 3.64276C3.0295 3.65806 5.6643 4.26872 6.62135 4.47875C7.20424 4.60669 7.30846 4.64742 7.34454 4.76137C7.38425 4.88682 7.22616 4.92852 6.8307 4.89686C6.44228 4.86576 5.5366 4.76823 5.25074 4.72673C4.87385 4.67198 2.84735 4.42032 2.8403 4.42739C2.83668 4.43102 2.869 4.55566 2.91216 4.70434C2.95531 4.85304 3.08211 5.29247 3.19397 5.68086L3.39735 6.38702L3.33396 6.43688C2.4226 7.15362 1.55325 8.09198 0.925166 9.03687C0.0848532 10.301 -0.20283 11.6511 0.14374 12.7041C0.269393 13.0859 0.531909 13.5402 0.75636 13.7643C1.17789 14.1853 1.92611 14.4677 2.92091 14.5813C3.24655 14.6184 4.39086 14.6181 4.82304 14.5808C7.47008 14.3521 10.2372 13.4904 12.412 12.2175C13.1757 11.7705 14.0931 11.1246 14.7728 10.5552C16.6651 8.97 17.7745 7.34418 17.9692 5.87061C18.0987 4.88984 17.8231 4.16703 17.0799 3.53845C16.5347 3.0773 15.9925 2.86023 15.0765 2.73644C14.8374 2.70413 14.6238 2.69539 14.0748 2.69551C13.3057 2.69564 12.9702 2.72349 12.2627 2.8459C12.0461 2.8834 11.8547 2.91565 11.8375 2.91755C11.8156 2.91999 11.7438 2.73455 11.6011 2.30764C11.4883 1.97027 11.3888 1.68705 11.3798 1.67825C11.3709 1.66945 11.0467 1.97086 10.6595 2.34808C10.2722 2.72527 9.81359 3.17189 9.64026 3.34058C9.03845 3.92625 8.63587 4.28979 8.54167 4.33267C8.42421 4.38614 8.31073 4.38977 8.29194 4.34066C8.27114 4.28634 8.35404 4.11905 8.48492 3.95121C8.64724 3.74305 9.99543 2.09667 10.4741 1.52213C10.8394 1.08357 10.8649 1.04728 10.8172 1.03239C10.7889 1.02354 10.3302 0.939137 9.79784 0.84485C9.26547 0.750562 8.58171 0.628629 8.27839 0.573903C7.97506 0.519154 7.44325 0.423151 7.09659 0.360571C6.50353 0.253488 6.38751 0.236111 6.38751 0.254323ZM14.3674 4.3637C14.9239 4.45801 15.1848 4.57072 15.4375 4.82595C15.7233 5.11471 15.8351 5.40143 15.812 5.78713C15.7817 6.29666 15.4726 6.93948 14.9278 7.62639C14.7153 7.89429 13.9504 8.65638 13.6133 8.93601C11.7422 10.4883 9.3791 11.6719 7.0178 12.2395C5.91725 12.5039 5.08605 12.6052 4.1815 12.585C3.60266 12.5721 3.3736 12.5414 3.05607 12.4342C2.78986 12.3443 2.66292 12.2681 2.49243 12.0957C2.33666 11.9382 2.18073 11.6619 2.13472 11.4618C2.10228 11.3205 2.10642 10.9191 2.14244 10.7182C2.24169 10.1642 2.64687 9.37369 3.19826 8.6583C3.45 8.3317 3.95315 7.73923 3.97879 7.73923C3.98559 7.73923 4.05672 7.91659 4.13684 8.13337L4.2825 8.52754L4.3695 8.44368C4.52872 8.29024 6.52782 6.23095 6.92128 5.81507C7.13436 5.58982 7.34202 5.38773 7.38274 5.36595C7.5396 5.28209 7.69312 5.33431 7.69312 5.47157C7.69312 5.61277 7.35902 6.06304 5.76267 8.07325C5.33587 8.6107 4.99052 9.05431 4.99525 9.05905C5.00457 9.06839 5.70696 9.20416 7.38923 9.5218C7.9835 9.63401 8.66012 9.76244 8.89283 9.80721C9.12554 9.85199 9.3221 9.88241 9.32967 9.87485C9.3431 9.86137 9.28496 9.66082 8.89697 8.38241C8.79151 8.03487 8.65397 7.57787 8.59135 7.36686C8.52875 7.15586 8.40125 6.7308 8.30803 6.4223C8.10483 5.74974 8.09123 5.62819 8.20755 5.52399C8.2889 5.45112 8.3217 5.44618 8.41239 5.49321C8.49924 5.53823 8.53798 5.60765 8.74005 6.08051C9.25068 7.27526 10.2285 9.52133 10.2455 9.53832C10.2558 9.54863 12.692 6.39935 12.6926 6.37493C12.6932 6.35076 12.5394 6.30382 11.1034 5.88979C9.2385 5.3521 8.79122 5.2168 8.73159 5.17235C8.65456 5.11496 8.63943 4.99004 8.70255 4.93277C8.78023 4.86229 8.87201 4.87256 10.6082 5.14617C10.8434 5.18322 11.2081 5.23845 11.4186 5.26884C11.6291 5.29924 12.0016 5.35605 12.2466 5.39504C12.4915 5.43404 12.6964 5.46141 12.7019 5.45588C12.7075 5.45033 12.6261 5.24133 12.5211 4.99142C12.4162 4.74151 12.3303 4.52702 12.3303 4.51479C12.3303 4.50254 12.348 4.48742 12.3696 4.48117C12.4742 4.45104 12.905 4.37618 13.0956 4.35504C13.2132 4.34199 13.3449 4.32719 13.3882 4.32216C13.5463 4.30379 14.1702 4.33026 14.3674 4.3637Z" fill="#F77433"/>
<path fill-rule="evenodd" clip-rule="evenodd" d="M6.38751 0.254323C6.38751 0.258453 6.43899 0.393024 6.50191 0.553344C6.73631 1.15066 7.24534 2.5306 7.40026 2.98875C7.48841 3.2494 7.59733 3.55915 7.64235 3.67706C7.7389 3.92995 7.76215 4.12214 7.70655 4.20724C7.6862 4.23836 7.6566 4.26382 7.64073 4.26382C7.6033 4.26382 7.48852 4.14175 7.41709 4.02593C7.32836 3.88211 6.27784 1.95664 5.85721 1.16691C5.64746 0.773085 5.47078 0.450977 5.46459 0.451113C5.4584 0.451225 4.93672 1.12266 4.3053 1.94319C3.67389 2.76371 3.12285 3.47953 3.08078 3.53389C3.03871 3.58828 3.00877 3.63725 3.01424 3.64276C3.0295 3.65806 5.6643 4.26872 6.62135 4.47875C7.20424 4.60669 7.30846 4.64742 7.34454 4.76137C7.38425 4.88682 7.22616 4.92852 6.8307 4.89686C6.44228 4.86576 5.5366 4.76823 5.25074 4.72673C4.87385 4.67198 2.84735 4.42032 2.8403 4.42739C2.83668 4.43102 2.869 4.55566 2.91216 4.70434C2.95531 4.85304 3.08211 5.29247 3.19397 5.68086L3.39735 6.38702L3.33396 6.43688C2.4226 7.15362 1.55325 8.09198 0.925166 9.03687C0.0848532 10.301 -0.20283 11.6511 0.14374 12.7041C0.269393 13.0859 0.531909 13.5402 0.75636 13.7643C1.17789 14.1853 1.92611 14.4677 2.92091 14.5813C3.24655 14.6184 4.39086 14.6181 4.82304 14.5808C7.47008 14.3521 10.2372 13.4904 12.412 12.2175C13.1757 11.7705 14.0931 11.1246 14.7728 10.5552C16.6651 8.97 17.7745 7.34418 17.9692 5.87061C18.0987 4.88984 17.8231 4.16703 17.0799 3.53845C16.5347 3.0773 15.9925 2.86023 15.0765 2.73644C14.8374 2.70413 14.6238 2.69539 14.0748 2.69551C13.3057 2.69564 12.9702 2.72349 12.2627 2.8459C12.0461 2.8834 11.8547 2.91565 11.8375 2.91755C11.8156 2.91999 11.7438 2.73455 11.6011 2.30764C11.4883 1.97027 11.3888 1.68705 11.3798 1.67825C11.3709 1.66945 11.0467 1.97086 10.6595 2.34808C10.2722 2.72527 9.81359 3.17189 9.64026 3.34058C9.03845 3.92625 8.63587 4.28979 8.54167 4.33267C8.42421 4.38614 8.31073 4.38977 8.29194 4.34066C8.27114 4.28634 8.35404 4.11905 8.48492 3.95121C8.64724 3.74305 9.99543 2.09667 10.4741 1.52213C10.8394 1.08357 10.8649 1.04728 10.8172 1.03239C10.7889 1.02354 10.3302 0.939137 9.79784 0.84485C9.26547 0.750562 8.58171 0.628629 8.27839 0.573903C7.97506 0.519154 7.44325 0.423151 7.09659 0.360571C6.50353 0.253488 6.38751 0.236111 6.38751 0.254323ZM14.3674 4.3637C14.9239 4.45801 15.1848 4.57072 15.4375 4.82595C15.7233 5.11471 15.8351 5.40143 15.812 5.78713C15.7817 6.29666 15.4726 6.93948 14.9278 7.62639C14.7153 7.89429 13.9504 8.65638 13.6133 8.93601C11.7422 10.4883 9.3791 11.6719 7.0178 12.2395C5.91725 12.5039 5.08605 12.6052 4.1815 12.585C3.60266 12.5721 3.3736 12.5414 3.05607 12.4342C2.78986 12.3443 2.66292 12.2681 2.49243 12.0957C2.33666 11.9382 2.18073 11.6619 2.13472 11.4618C2.10228 11.3205 2.10642 10.9191 2.14244 10.7182C2.24169 10.1642 2.64687 9.37369 3.19826 8.6583C3.45 8.3317 3.95315 7.73923 3.97879 7.73923C3.98559 7.73923 4.05672 7.91659 4.13684 8.13337L4.2825 8.52754L4.3695 8.44368C4.52872 8.29024 6.52782 6.23095 6.92128 5.81507C7.13436 5.58982 7.34202 5.38773 7.38274 5.36595C7.5396 5.28209 7.69312 5.33431 7.69312 5.47157C7.69312 5.61277 7.35902 6.06304 5.76267 8.07325C5.33587 8.6107 4.99052 9.05431 4.99525 9.05905C5.00457 9.06839 5.70696 9.20416 7.38923 9.5218C7.9835 9.63401 8.66012 9.76244 8.89283 9.80721C9.12554 9.85199 9.3221 9.88241 9.32967 9.87485C9.3431 9.86137 9.28496 9.66082 8.89697 8.38241C8.79151 8.03487 8.65397 7.57787 8.59135 7.36686C8.52875 7.15586 8.40125 6.7308 8.30803 6.4223C8.10483 5.74974 8.09123 5.62819 8.20755 5.52399C8.2889 5.45112 8.3217 5.44618 8.41239 5.49321C8.49924 5.53823 8.53798 5.60765 8.74005 6.08051C9.25068 7.27526 10.2285 9.52133 10.2455 9.53832C10.2558 9.54863 12.692 6.39935 12.6926 6.37493C12.6932 6.35076 12.5394 6.30382 11.1034 5.88979C9.2385 5.3521 8.79122 5.2168 8.73159 5.17235C8.65456 5.11496 8.63943 4.99004 8.70255 4.93277C8.78023 4.86229 8.87201 4.87256 10.6082 5.14617C10.8434 5.18322 11.2081 5.23845 11.4186 5.26884C11.6291 5.29924 12.0016 5.35605 12.2466 5.39504C12.4915 5.43404 12.6964 5.46141 12.7019 5.45588C12.7075 5.45033 12.6261 5.24133 12.5211 4.99142C12.4162 4.74151 12.3303 4.52702 12.3303 4.51479C12.3303 4.50254 12.348 4.48742 12.3696 4.48117C12.4742 4.45104 12.905 4.37618 13.0956 4.35504C13.2132 4.34199 13.3449 4.32719 13.3882 4.32216C13.5463 4.30379 14.1702 4.33026 14.3674 4.3637Z" fill="#007A64"/>
</svg>
