<svg width="36" height="36" viewBox="0 0 36 36" fill="none" xmlns="http://www.w3.org/2000/svg">
<circle cx="18" cy="18" r="18" fill="url(#paint0_linear_24085_1047)"/>
<path fill-rule="evenodd" clip-rule="evenodd" d="M17.5126 10.0513C14.9854 10.4739 12.7702 12.2602 11.8164 14.6451C11.0192 16.638 11.0702 19.0223 11.9507 20.9276L12.2691 21.6165L11.6238 23.6261C11.2689 24.7314 10.9883 25.6431 11.0004 25.652C11.0124 25.661 11.9196 25.3703 13.0164 25.0062L15.0105 24.3441L15.5365 24.5884C17.4404 25.4725 19.8529 25.4744 21.7025 24.593C24.3349 23.3388 26 20.6435 26 17.637C26 14.1141 23.7425 11.0936 20.4463 10.2064C19.7593 10.0214 18.1883 9.9384 17.5126 10.0513ZM20.2512 11.4172C22.1582 11.9672 23.7782 13.4893 24.4568 15.3685C25.3111 17.734 24.7623 20.3395 23.0336 22.1257C21.8022 23.3982 20.6178 23.9495 18.939 24.0319C17.7174 24.0918 16.8658 23.9142 15.8646 23.3908L15.1566 23.0206L14.0322 23.4015C13.4138 23.6111 12.8909 23.7649 12.8702 23.7433C12.8495 23.7218 12.9986 23.19 13.2014 22.5615L13.5703 21.4187L13.3087 20.9758C12.1471 19.0088 12.0974 16.5508 13.1778 14.4997C13.6133 13.6728 14.8174 12.4337 15.6134 11.9933C17.0235 11.213 18.7846 10.9943 20.2512 11.4172ZM15.7092 14.367C15.082 14.9163 14.8754 15.9423 15.2115 16.8386C15.6117 17.9061 17.0519 19.6417 18.0686 20.2819C18.3552 20.4624 19.0099 20.7598 19.5235 20.9428C20.571 21.3161 20.9525 21.3156 21.587 20.9403C22.0684 20.6555 22.3019 20.3078 22.3577 19.7925L22.4036 19.368L21.5809 18.961C21.1282 18.7372 20.696 18.554 20.6203 18.554C20.5447 18.5539 20.2878 18.782 20.0498 19.0608L19.6167 19.5676L19.01 19.2454C18.6764 19.0682 18.2166 18.752 17.9882 18.5428C17.5115 18.106 16.9119 17.2923 16.9119 17.0823C16.9119 17.0037 17.0371 16.7755 17.1901 16.5751C17.3431 16.3747 17.4683 16.1485 17.4683 16.0725C17.4683 15.8677 16.9066 14.4781 16.7446 14.2825C16.5348 14.0289 16.05 14.0684 15.7092 14.367Z" fill="white"/>
<defs>
<linearGradient id="paint0_linear_24085_1047" x1="18" y1="0" x2="18" y2="36" gradientUnits="userSpaceOnUse">
<stop stop-color="#012433"/>
<stop offset="1" stop-color="#007A64"/>
</linearGradient>
</defs>
</svg>
