<svg width="26" height="26" viewBox="0 0 26 26" fill="none" xmlns="http://www.w3.org/2000/svg">
<path d="M6.85755 0.0988331C6.31204 0.27606 5.87044 0.667 5.62106 1.19868C5.50677 1.44367 5.48599 1.55834 5.48599 1.9545C5.48599 2.40799 5.50677 2.48618 6.04708 4.16982C6.3588 5.12893 6.61856 5.94209 6.62895 5.97857C6.63934 6.00985 6.57181 6.08804 6.47829 6.1558C6.38477 6.21835 6.26009 6.33824 6.20813 6.42164C6.14579 6.51025 5.92759 6.66142 5.64184 6.80215C4.95087 7.1514 4.25989 7.66744 3.63126 8.30337C3.22602 8.70473 3.07017 8.83504 3.07017 8.76207C3.07017 8.57963 2.84677 8.37634 2.65454 8.37634C2.41556 8.37634 2.26489 8.56399 2.22333 8.91844C2.15579 9.48661 1.72978 9.90883 1.12192 10.0079C0.373799 10.1278 0.389385 10.7533 1.13751 10.8836C1.31935 10.9148 1.54274 10.9878 1.64145 11.0504L1.8181 11.1598L1.71938 11.4413C1.56353 11.9 1.41286 12.6663 1.35571 13.3022C1.32974 13.6254 1.30376 15.309 1.30376 17.0344C1.30376 20.6206 1.33493 20.3547 0.836181 20.7926C0.617978 20.9855 0.4829 21.1627 0.358213 21.4129C0.202354 21.7204 0.186768 21.809 0.186768 22.2052C0.186768 22.5753 0.207549 22.6952 0.327041 22.9454C0.493291 23.2998 0.830986 23.6543 1.1479 23.8107C1.45962 23.9566 3.04938 24.358 3.17407 24.3163C3.31434 24.2694 3.48579 24.04 3.48579 23.8888C3.48579 23.6543 3.28837 23.5344 2.65454 23.378C1.42845 23.0809 1.25181 22.9923 1.07517 22.5597C0.89333 22.1322 1.01282 21.7882 1.49079 21.3243C1.67263 21.1418 1.89083 20.876 1.96876 20.7301L2.10903 20.459L2.1402 16.7842C2.16618 13.9121 2.19216 13.0363 2.24931 12.7705C2.30126 12.5203 2.34282 12.4369 2.39997 12.4525C2.83638 12.5829 3.00782 12.4682 3.08056 12.0095C3.18446 11.3318 3.57411 10.9565 4.25989 10.8627C4.92489 10.7741 4.88333 10.1173 4.20274 10.0079C3.90661 9.96095 3.62606 9.84628 3.56372 9.74724C3.51177 9.66384 3.917 9.16865 4.43134 8.67867C5.00802 8.13656 6.08345 7.40681 6.08345 7.55797C6.08345 7.71435 6.50427 8.05838 6.94067 8.26688C8.44731 8.97578 10.1566 8.97578 11.6684 8.26688C12.0269 8.09486 12.1879 7.9854 12.349 7.79775L12.562 7.54755L12.9309 7.77169C14.0375 8.45453 14.7388 9.19992 15.6168 10.6438C15.7623 10.8784 16.0117 10.9461 16.1987 10.8054C16.5052 10.5812 16.4429 10.3415 15.8662 9.46055C15.2116 8.47538 13.9543 7.33905 12.9309 6.82301C12.7542 6.73439 12.4893 6.52589 12.297 6.33303L11.9697 5.99942L12.1152 5.54072C12.1983 5.29052 12.2659 5.01947 12.2659 4.94649C12.2659 4.62853 11.8866 4.43566 11.6372 4.63374C11.5333 4.71193 11.4502 4.89437 11.2995 5.36871L11.1021 6.00464L10.8112 6.15059C10.6553 6.22878 10.4787 6.30696 10.4163 6.32781L10.3072 6.35909L10.4267 5.51466C10.5774 4.4513 10.5774 4.4513 10.4215 4.30014C10.2605 4.13334 10.0163 4.12812 9.85524 4.28971C9.75653 4.38875 9.72016 4.54513 9.59028 5.46253C9.45001 6.4894 9.43962 6.51547 9.32012 6.51547C9.25778 6.51547 9.20063 6.4894 9.20063 6.45292C9.20063 6.42164 9.1279 5.67625 9.03958 4.80054C8.93567 3.7424 8.85774 3.16381 8.80579 3.09083C8.66032 2.86148 8.28106 2.8719 8.1304 3.10126C8.05247 3.22114 8.05766 3.33061 8.18235 4.62332C8.25509 5.39477 8.33302 6.09846 8.3486 6.18708C8.37977 6.406 8.33302 6.406 7.87583 6.18708L7.51216 6.00985L6.9043 4.08121C6.54583 2.9553 6.29126 2.06917 6.29126 1.94928C6.29645 1.27687 6.99782 0.724339 7.65763 0.880714C7.7979 0.911989 8.05247 1.02666 8.21872 1.13092C8.94087 1.57398 9.66821 1.56877 10.4319 1.10485C10.8683 0.839014 11.1593 0.786888 11.5281 0.906776C11.9697 1.05794 12.3178 1.52707 12.3178 1.98056C12.3178 2.05354 12.2347 2.39756 12.1308 2.7468C11.949 3.36188 11.9438 3.38795 12.0269 3.51826C12.1568 3.71633 12.3594 3.77888 12.562 3.67985C12.7075 3.61208 12.749 3.53911 12.9205 3.01264C13.0919 2.50702 13.1179 2.35586 13.1179 1.9545C13.1231 1.55834 13.1023 1.43846 12.9828 1.19347C12.7386 0.656576 12.2659 0.249998 11.6996 0.0831966C11.1749 -0.0731792 10.6086 0.0102215 10.1358 0.312548C9.48637 0.729551 9.1227 0.729551 8.47329 0.312548C7.98493 0.0050087 7.39786 -0.0731792 6.85755 0.0988331ZM7.66802 7.00023C8.26548 7.26607 8.83696 7.37032 9.51235 7.33383C10.141 7.29735 10.5202 7.20352 11.0709 6.95332C11.4918 6.75524 11.6528 6.75524 11.7515 6.93768C11.871 7.16182 11.7723 7.29213 11.3151 7.51106C10.6086 7.84466 10.1774 7.93849 9.30454 7.93849C8.44212 7.93849 8.01091 7.84987 7.31473 7.52149C6.7952 7.2765 6.6913 7.10448 6.91989 6.87513C7.04977 6.74482 7.11212 6.75524 7.66802 7.00023ZM2.86755 10.2476L3.05977 10.4353L2.85196 10.6334L2.64415 10.8314L2.44673 10.6334L2.24931 10.4353L2.44153 10.2476C2.54024 10.1434 2.63895 10.06 2.64935 10.06C2.66493 10.06 2.76364 10.1434 2.86755 10.2476Z" fill="#012433"/>
<path d="M14.8375 0.130105C14.7284 0.234355 14.7076 0.307331 14.7076 0.547107V0.833797H14.4219C14.0738 0.833797 13.8763 0.98496 13.8763 1.2508C13.8763 1.51664 14.0738 1.6678 14.4219 1.6678H14.7076V1.95449C14.7076 2.30373 14.8583 2.50181 15.1232 2.50181C15.3882 2.50181 15.5388 2.30373 15.5388 1.95449V1.6678H15.8246C16.1727 1.6678 16.3701 1.51664 16.3701 1.2508C16.3701 0.98496 16.1727 0.833797 15.8246 0.833797H15.5388V0.547107C15.5388 0.197867 15.3882 -0.000208855 15.1232 -0.000208855C15.0245 -0.000208855 14.9154 0.0467038 14.8375 0.130105Z" fill="#012433"/>
<path d="M22.7345 0.130073C22.6514 0.208261 22.6046 0.312512 22.6046 0.421975C22.6046 1.0579 21.9968 1.66777 21.363 1.66777C21.1448 1.66777 20.9421 1.86585 20.9421 2.08477C20.9421 2.3037 21.1448 2.50178 21.363 2.50178C21.9968 2.50178 22.6046 3.11164 22.6046 3.74757C22.6046 3.9665 22.8021 4.16979 23.0203 4.16979C23.2385 4.16979 23.4359 3.9665 23.4359 3.74757C23.4359 3.11164 24.0437 2.50178 24.6776 2.50178C24.8958 2.50178 25.0984 2.3037 25.0984 2.08477C25.0984 1.86585 24.8958 1.66777 24.6776 1.66777C24.0437 1.66777 23.4359 1.0579 23.4359 0.421975C23.4359 0.203048 23.2385 -0.000240326 23.0203 -0.000240326C22.9216 -0.000240326 22.8125 0.0466723 22.7345 0.130073ZM23.2281 1.90234L23.4047 2.08477L23.2125 2.28285L23.0203 2.47571L22.828 2.28285L22.6358 2.08477L22.8125 1.90234C22.9112 1.8033 23.0047 1.7199 23.0203 1.7199C23.0358 1.7199 23.1294 1.8033 23.2281 1.90234Z" fill="#012433"/>
<path d="M1.12201 0.964109C0.862247 1.21952 1.04408 1.6678 1.40775 1.6678C1.62076 1.6678 1.82338 1.46451 1.82338 1.2508C1.82338 1.03708 1.62076 0.833795 1.40775 0.833795C1.30904 0.833795 1.19994 0.880708 1.12201 0.964109Z" fill="#012433"/>
<path d="M18.5782 1.79812C18.4951 1.8763 18.4484 1.98577 18.4484 2.08481C18.4484 2.18384 18.4951 2.29331 18.5782 2.37149C18.6562 2.4549 18.7653 2.50181 18.864 2.50181C18.9627 2.50181 19.0718 2.4549 19.1497 2.37149C19.2329 2.29331 19.2796 2.18384 19.2796 2.08481C19.2796 1.98577 19.2329 1.8763 19.1497 1.79812C19.0718 1.71472 18.9627 1.6678 18.864 1.6678C18.7653 1.6678 18.6562 1.71472 18.5782 1.79812Z" fill="#012433"/>
<path d="M15.2532 3.88311C15.1701 3.9613 15.1233 4.06555 15.1233 4.17502C15.1233 4.81094 14.5155 5.42081 13.8816 5.42081C13.6634 5.42081 13.4608 5.61889 13.4608 5.83781C13.4608 6.05674 13.6634 6.25482 13.8816 6.25482C14.5155 6.25482 15.1233 6.86468 15.1233 7.50061C15.1233 7.71954 15.3207 7.92283 15.5389 7.92283C15.7571 7.92283 15.9546 7.71954 15.9546 7.50061C15.9546 6.86468 16.5624 6.25482 17.1962 6.25482C17.4144 6.25482 17.6171 6.05674 17.6171 5.83781C17.6171 5.61889 17.4144 5.42081 17.1962 5.42081C16.5624 5.42081 15.9546 4.81094 15.9546 4.17502C15.9546 3.95609 15.7571 3.7528 15.5389 3.7528C15.4402 3.7528 15.3311 3.79971 15.2532 3.88311ZM15.7468 5.65538L15.9234 5.83781L15.7312 6.03589L15.5389 6.22875L15.3467 6.03589L15.1545 5.83781L15.3311 5.65538C15.4298 5.55634 15.5234 5.47294 15.5389 5.47294C15.5545 5.47294 15.648 5.55634 15.7468 5.65538Z" fill="#012433"/>
<path d="M2.36873 4.30011C2.25962 4.40436 2.23884 4.47734 2.23884 4.71711V5.0038H1.9531C1.60501 5.0038 1.40759 5.15497 1.40759 5.42081C1.40759 5.68664 1.60501 5.83781 1.9531 5.83781H2.23884V6.1245C2.23884 6.47374 2.38951 6.67181 2.65447 6.67181C2.91943 6.67181 3.07009 6.47374 3.07009 6.1245V5.83781H3.35583C3.70392 5.83781 3.90134 5.68664 3.90134 5.42081C3.90134 5.15497 3.70392 5.0038 3.35583 5.0038H3.07009V4.71711C3.07009 4.36787 2.91943 4.1698 2.65447 4.1698C2.55576 4.1698 2.44666 4.21671 2.36873 4.30011Z" fill="#012433"/>
<path d="M19.825 4.30011C19.7159 4.40436 19.6951 4.47734 19.6951 4.71711V5.0038H19.4094C19.0613 5.0038 18.8639 5.15497 18.8639 5.42081C18.8639 5.68664 19.0613 5.83781 19.4094 5.83781H19.6951V6.1245C19.6951 6.47374 19.8458 6.67181 20.1108 6.67181C20.3757 6.67181 20.5264 6.47374 20.5264 6.1245V5.83781H20.8121C21.1602 5.83781 21.3576 5.68664 21.3576 5.42081C21.3576 5.15497 21.1602 5.0038 20.8121 5.0038H20.5264V4.71711C20.5264 4.36787 20.3757 4.1698 20.1108 4.1698C20.0121 4.1698 19.903 4.21671 19.825 4.30011Z" fill="#012433"/>
<path d="M20.6875 7.56318C19.8978 7.71955 19.3263 8.02709 18.734 8.62653C18.3548 9.00183 18.2197 9.18427 18.043 9.53873C17.7313 10.1694 17.6482 10.5395 17.643 11.2693C17.643 11.8687 17.643 11.8792 17.5391 11.801C17.1702 11.5247 16.6559 11.4413 16.287 11.5977C16.1052 11.6759 11.9801 14.4646 11.7515 14.6679C11.5541 14.8451 11.3827 15.2621 11.3827 15.5748C11.3827 15.8876 11.4606 16.1065 11.6944 16.4453L11.8554 16.6799H10.9099C9.77211 16.6799 9.63184 16.7112 9.27856 17.0708C8.88372 17.4618 8.76942 17.9726 9.01879 18.2176C9.27336 18.4782 9.72016 18.2958 9.72016 17.9309C9.72016 17.6651 9.91758 17.5139 10.2657 17.5139H10.5514V17.8006C10.5514 18.1498 10.7021 18.3479 10.967 18.3479C11.232 18.3479 11.3827 18.1498 11.3827 17.8006V17.5139H11.7983H12.2139V17.8006C12.2139 18.1498 12.3646 18.3479 12.6295 18.3479C12.8945 18.3479 13.0452 18.1498 13.0452 17.8006V17.5139H13.4608H13.8764V17.8006C13.8764 18.1498 14.0271 18.3479 14.292 18.3479C14.557 18.3479 14.7077 18.1498 14.7077 17.8006V17.5139H14.9934C15.2324 17.5139 15.3051 17.5348 15.409 17.6442C15.5337 17.7641 15.5389 17.8058 15.5389 18.3479C15.5389 18.89 15.5337 18.9317 15.409 19.0516L15.2843 19.1819H13.653C11.9749 19.1819 11.8191 19.1976 11.5281 19.4008C11.3827 19.4999 11.3827 19.4999 11.2424 19.4008C11.1593 19.3487 11.019 19.2757 10.9203 19.2445C10.6657 19.1559 5.47559 19.1559 5.17946 19.2445C4.89372 19.3279 4.46251 19.7605 4.37938 20.0472C4.30145 20.3182 4.29626 21.4025 4.37938 21.637C4.41055 21.7361 4.48329 21.8768 4.53524 21.955C4.63395 22.1009 4.63395 22.1009 4.53524 22.2417C4.48329 22.3251 4.41055 22.4658 4.37938 22.5649C4.29626 22.7994 4.30145 23.8836 4.37938 24.1547C4.46251 24.4414 4.89372 24.874 5.17946 24.9574C5.47559 25.046 10.6657 25.046 10.9203 24.9574C11.019 24.9261 11.1593 24.8532 11.2424 24.801C11.3827 24.702 11.3827 24.702 11.5281 24.801C11.8139 24.9991 11.9801 25.02 13.4452 25.02H14.8687L14.9934 24.8896C15.1648 24.7228 15.1648 24.4831 14.9934 24.3163L14.8687 24.1859H13.4608H12.0529L11.9282 24.0556C11.8035 23.9357 11.7983 23.894 11.7983 23.3519C11.7983 22.8098 11.8035 22.7681 11.9282 22.6483C12.0321 22.5388 12.1048 22.5179 12.3438 22.5179H12.6295V22.8046C12.6295 23.1539 12.7802 23.3519 13.0452 23.3519C13.3101 23.3519 13.4608 23.1539 13.4608 22.8046V22.5179H13.8764H14.292V22.8046C14.292 23.1539 14.4427 23.3519 14.7077 23.3519C14.9726 23.3519 15.1233 23.1539 15.1233 22.8046V22.5179H15.5389H15.9545V22.8046C15.9545 23.1539 16.1052 23.3519 16.3702 23.3519C16.6351 23.3519 16.7858 23.1539 16.7858 22.8046V22.5179H17.0715C17.3105 22.5179 17.3832 22.5388 17.4872 22.6483C17.6118 22.7681 17.617 22.8098 17.617 23.3519C17.617 23.894 17.6118 23.9357 17.4872 24.0556C17.3677 24.1807 17.3261 24.1859 16.7858 24.1859C16.2455 24.1859 16.2039 24.1912 16.0844 24.3163C16.0013 24.3945 15.9545 24.5039 15.9545 24.603C15.9545 24.702 16.0013 24.8115 16.0844 24.8896C16.2039 25.0147 16.2403 25.02 16.8014 25.02C17.4092 25.02 17.643 24.973 17.8924 24.801C18.0327 24.702 18.0327 24.702 18.1781 24.801C18.2561 24.8532 18.3963 24.9261 18.495 24.9574C18.7496 25.046 23.9397 25.046 24.2359 24.9574C24.5216 24.874 24.9528 24.4414 25.0359 24.1547C25.1139 23.8784 25.1191 22.8255 25.0359 22.5596C25.0048 22.445 24.8749 22.2365 24.7502 22.1009C24.3709 21.6735 24.4333 21.6839 21.3732 21.6839H18.7029L18.5782 21.5536C18.4535 21.4337 18.4483 21.392 18.4483 20.8499C18.4483 20.3078 18.4535 20.2661 18.5782 20.1462C18.6821 20.0368 18.7548 20.0159 18.9938 20.0159H19.2795V20.3026C19.2795 20.6519 19.4302 20.8499 19.6952 20.8499C19.9601 20.8499 20.1108 20.6519 20.1108 20.3026V20.0159H20.5264H20.942V20.3026C20.942 20.6519 21.0927 20.8499 21.3577 20.8499C21.6226 20.8499 21.7733 20.6519 21.7733 20.3026V20.0159H22.1889H22.6045V20.3026C22.6045 20.6519 22.7552 20.8499 23.0202 20.8499C23.2851 20.8499 23.4358 20.6519 23.4358 20.3026V20.0159H23.7215C24.0696 20.0159 24.267 20.1671 24.267 20.4329C24.267 20.7978 24.7138 20.9802 24.9684 20.7196C25.2178 20.4746 25.1035 19.9638 24.7086 19.5729C24.3865 19.2497 24.1839 19.1819 23.5085 19.1819H22.9942L23.0098 18.4782C23.0202 18.0821 23.0046 17.7068 22.9786 17.6234C22.9266 17.4826 22.937 17.467 23.0877 17.4044C23.3423 17.295 23.5968 17.0396 23.7267 16.7581C23.8358 16.5339 23.8514 16.4193 23.8514 15.8772C23.8514 15.1526 23.7995 14.9337 23.5501 14.6418L23.363 14.4229L23.5189 14.3134C24.6982 13.4638 25.2957 11.9834 25.0255 10.5708C24.9372 10.1069 24.7138 9.5283 24.5424 9.32501C24.3657 9.11651 24.0644 9.1113 23.9086 9.30937C23.7735 9.4866 23.7735 9.59085 23.9086 9.8619C24.3657 10.7585 24.3761 11.7071 23.9397 12.5776C23.2124 14.0319 21.4304 14.6053 19.9809 13.8495C19.5757 13.6358 18.9886 13.0468 18.7756 12.6402C18.0223 11.1859 18.5938 9.39799 20.0432 8.66823C20.9109 8.23038 21.8564 8.2408 22.75 8.69951C23.0202 8.83503 23.1241 8.83503 23.3007 8.69951C23.4981 8.54313 23.4929 8.2408 23.2851 8.06358C22.7968 7.657 21.4979 7.40159 20.6875 7.56318ZM16.9832 12.4421C17.0455 12.4942 17.2118 12.7079 17.3521 12.9217C17.6378 13.3387 17.6794 13.5263 17.5287 13.6983C17.404 13.8339 13.3829 16.5756 13.1958 16.6434C12.9672 16.732 12.8166 16.6226 12.4997 16.143C12.1308 15.5853 12.1256 15.4393 12.4737 15.1787L12.7023 15.0015L12.7958 15.1214C13.1179 15.5384 13.2789 15.6113 13.5023 15.4445C13.7725 15.2412 13.7777 15.064 13.5179 14.6731L13.4192 14.5167L13.7517 14.2873L14.0894 14.058L14.1777 14.1831C14.4583 14.5897 14.6869 14.6835 14.9363 14.4854C15.1181 14.3395 15.1181 14.0893 14.9311 13.8078C14.8531 13.6879 14.8168 13.5837 14.8427 13.5576C14.9518 13.4638 15.4246 13.1354 15.4506 13.1354C15.4662 13.1354 15.5545 13.2396 15.6428 13.3699C15.887 13.7244 16.2351 13.7557 16.4013 13.4429C16.5 13.2501 16.4637 13.0728 16.2818 12.833C16.2091 12.7392 16.1623 12.6506 16.1675 12.6454C16.5312 12.3535 16.8014 12.2909 16.9832 12.4421ZM18.6249 14.1675C18.4379 14.1779 18.2716 14.1727 18.2613 14.1622C18.2509 14.1518 18.2872 14.0319 18.3496 13.8912L18.4587 13.6462L18.7132 13.8964L18.973 14.1518L18.6249 14.1675ZM18.0327 15.2986C18.0327 15.6478 18.1833 15.8459 18.4483 15.8459C18.7132 15.8459 18.8639 15.6478 18.8639 15.2986V15.0119H19.2795H19.6952V15.2986C19.6952 15.6478 19.8458 15.8459 20.1108 15.8459C20.3757 15.8459 20.5264 15.6478 20.5264 15.2986V15.0119H20.942H21.3577V15.2986C21.3577 15.6478 21.5083 15.8459 21.7733 15.8459C22.0382 15.8459 22.1889 15.6478 22.1889 15.2986V15.0119H22.4746C22.7136 15.0119 22.7864 15.0327 22.8903 15.1422C23.015 15.2621 23.0202 15.3038 23.0202 15.8459C23.0202 16.388 23.015 16.4297 22.8903 16.5496L22.7656 16.6799H20.1108H17.456L17.3313 16.5496C17.2066 16.4297 17.2014 16.388 17.2014 15.8459C17.2014 15.3038 17.2066 15.2621 17.3313 15.1422C17.4352 15.0327 17.5079 15.0119 17.7469 15.0119H18.0327V15.2986ZM16.4377 16.659C16.4585 16.6799 16.3546 16.7633 16.2091 16.8467C15.9441 16.9874 15.9389 16.9874 15.8039 16.8936C15.5961 16.7477 15.4922 16.7216 15.0921 16.6851L14.7181 16.6538L15.5337 16.1013L16.3442 15.5436L16.3702 16.0805C16.3857 16.3776 16.4117 16.6382 16.4377 16.659ZM17.2014 17.8006C17.2014 18.1498 17.3521 18.3479 17.617 18.3479C17.882 18.3479 18.0327 18.1498 18.0327 17.8006V17.5139H18.4483H18.8639V17.8006C18.8639 18.1498 19.0146 18.3479 19.2795 18.3479C19.5445 18.3479 19.6952 18.1498 19.6952 17.8006V17.5139H20.1108H20.5264V17.8006C20.5264 18.1498 20.6771 18.3479 20.942 18.3479C21.207 18.3479 21.3577 18.1498 21.3577 17.8006V17.5139H21.6434C21.8824 17.5139 21.9551 17.5348 22.059 17.6442C22.1837 17.7641 22.1889 17.8058 22.1889 18.3479C22.1889 18.89 22.1837 18.9317 22.059 19.0516L21.9343 19.1819H19.2795H16.6247L16.5 19.0516C16.3754 18.9317 16.3702 18.89 16.3702 18.3479C16.3702 17.8058 16.3754 17.7641 16.5 17.6442C16.6039 17.5348 16.6767 17.5139 16.9157 17.5139H17.2014V17.8006ZM5.97954 20.3026C5.97954 20.6519 6.1302 20.8499 6.39516 20.8499C6.66012 20.8499 6.81079 20.6519 6.81079 20.3026V20.0159H7.22641H7.64204V20.3026C7.64204 20.6519 7.7927 20.8499 8.05766 20.8499C8.32262 20.8499 8.47329 20.6519 8.47329 20.3026V20.0159H8.88891H9.30454V20.3026C9.30454 20.6519 9.4552 20.8499 9.72016 20.8499C9.98512 20.8499 10.1358 20.6519 10.1358 20.3026V20.0159H10.4215C10.6605 20.0159 10.7332 20.0368 10.8372 20.1462C10.9618 20.2661 10.967 20.3078 10.967 20.8499C10.967 21.392 10.9618 21.4337 10.8372 21.5536L10.7125 21.6839H8.05766H5.40286L5.27817 21.5536C5.15348 21.4337 5.14829 21.392 5.14829 20.8499C5.14829 20.3078 5.15348 20.2661 5.27817 20.1462C5.38208 20.0368 5.45481 20.0159 5.69379 20.0159H5.97954V20.3026ZM12.6295 20.3026C12.6295 20.6519 12.7802 20.8499 13.0452 20.8499C13.3101 20.8499 13.4608 20.6519 13.4608 20.3026V20.0159H13.8764H14.292V20.3026C14.292 20.6519 14.4427 20.8499 14.7077 20.8499C14.9726 20.8499 15.1233 20.6519 15.1233 20.3026V20.0159H15.5389H15.9545V20.3026C15.9545 20.6519 16.1052 20.8499 16.3702 20.8499C16.6351 20.8499 16.7858 20.6519 16.7858 20.3026V20.0159H17.0715C17.3105 20.0159 17.3832 20.0368 17.4872 20.1462C17.6118 20.2661 17.617 20.3078 17.617 20.8499C17.617 21.392 17.6118 21.4337 17.4872 21.5536L17.3625 21.6839H14.7077H12.0529L11.9282 21.5536C11.8035 21.4337 11.7983 21.392 11.7983 20.8499C11.7983 20.3078 11.8035 20.2661 11.9282 20.1462C12.0321 20.0368 12.1048 20.0159 12.3438 20.0159H12.6295V20.3026ZM5.97954 22.8046C5.97954 23.1539 6.1302 23.3519 6.39516 23.3519C6.66012 23.3519 6.81079 23.1539 6.81079 22.8046V22.5179H7.22641H7.64204V22.8046C7.64204 23.1539 7.7927 23.3519 8.05766 23.3519C8.32262 23.3519 8.47329 23.1539 8.47329 22.8046V22.5179H8.88891H9.30454V22.8046C9.30454 23.1539 9.4552 23.3519 9.72016 23.3519C9.98512 23.3519 10.1358 23.1539 10.1358 22.8046V22.5179H10.4215C10.6605 22.5179 10.7332 22.5388 10.8372 22.6483C10.9618 22.7681 10.967 22.8098 10.967 23.3519C10.967 23.894 10.9618 23.9357 10.8372 24.0556L10.7125 24.1859H8.05766H5.40286L5.27817 24.0556C5.15348 23.9357 5.14829 23.894 5.14829 23.3519C5.14829 22.8098 5.15348 22.7681 5.27817 22.6483C5.38208 22.5388 5.45481 22.5179 5.69379 22.5179H5.97954V22.8046ZM19.2795 22.8046C19.2795 23.1539 19.4302 23.3519 19.6952 23.3519C19.9601 23.3519 20.1108 23.1539 20.1108 22.8046V22.5179H20.5264H20.942V22.8046C20.942 23.1539 21.0927 23.3519 21.3577 23.3519C21.6226 23.3519 21.7733 23.1539 21.7733 22.8046V22.5179H22.1889H22.6045V22.8046C22.6045 23.1539 22.7552 23.3519 23.0202 23.3519C23.2851 23.3519 23.4358 23.1539 23.4358 22.8046V22.5179H23.7215C23.9605 22.5179 24.0332 22.5388 24.1371 22.6483C24.2618 22.7681 24.267 22.8098 24.267 23.3519C24.267 23.894 24.2618 23.9357 24.1371 24.0556L24.0125 24.1859H21.3577H18.7029L18.5782 24.0556C18.4535 23.9357 18.4483 23.894 18.4483 23.3519C18.4483 22.8098 18.4535 22.7681 18.5782 22.6483C18.6821 22.5388 18.7548 22.5179 18.9938 22.5179H19.2795V22.8046Z" fill="#012433"/>
<path d="M20.8693 9.22597C20.542 9.30937 20.0744 9.59084 19.8459 9.83583C19.7316 9.96093 19.5601 10.2216 19.4718 10.4144C19.3211 10.7324 19.3055 10.8106 19.3055 11.2641C19.3055 11.7332 19.3159 11.7801 19.4978 12.1554C19.7316 12.6298 20.0329 12.9217 20.516 13.151C20.833 13.3022 20.9109 13.3178 21.3577 13.3178C21.8045 13.3178 21.8824 13.3022 22.1993 13.151C22.6825 12.9217 22.9838 12.6298 23.2176 12.1554C23.3994 11.7801 23.4098 11.7332 23.4098 11.2589C23.4098 10.7845 23.3994 10.7376 23.2176 10.3623C22.8643 9.65339 22.2409 9.23118 21.472 9.19469C21.2538 9.18427 20.9836 9.1999 20.8693 9.22597ZM21.7421 10.0704C22.0279 10.1538 22.4591 10.5864 22.5422 10.8731C22.6877 11.3631 22.5838 11.754 22.2149 12.1189C21.6902 12.6506 21.0252 12.6506 20.5005 12.1189C19.9705 11.5925 19.9705 10.9253 20.5005 10.3988C20.8641 10.0287 21.2538 9.92966 21.7421 10.0704Z" fill="#012433"/>
<path d="M11.5125 10.1382C11.4034 10.2424 11.3826 10.3154 11.3826 10.5552V10.8419H11.0969C10.7488 10.8419 10.5514 10.993 10.5514 11.2589C10.5514 11.5247 10.7488 11.6759 11.0969 11.6759H11.3826V11.9626C11.3826 12.3118 11.5333 12.5099 11.7983 12.5099C12.0632 12.5099 12.2139 12.3118 12.2139 11.9626V11.6759H12.4996C12.8477 11.6759 13.0451 11.5247 13.0451 11.2589C13.0451 10.993 12.8477 10.8419 12.4996 10.8419H12.2139V10.5552C12.2139 10.2059 12.0632 10.0079 11.7983 10.0079C11.6996 10.0079 11.5905 10.0548 11.5125 10.1382Z" fill="#012433"/>
<path d="M6.94062 10.5552C6.68085 10.8106 6.86269 11.2589 7.22636 11.2589C7.43937 11.2589 7.64198 11.0556 7.64198 10.8419C7.64198 10.6281 7.43937 10.4249 7.22636 10.4249C7.12765 10.4249 7.01855 10.4718 6.94062 10.5552Z" fill="#012433"/>
<path d="M6.1094 14.3082C6.02627 14.3864 5.97952 14.4906 5.97952 14.6001C5.97952 15.236 5.37166 15.8459 4.73784 15.8459C4.51963 15.8459 4.31702 16.044 4.31702 16.2629C4.31702 16.4818 4.51963 16.6799 4.73784 16.6799C5.37166 16.6799 5.97952 17.2898 5.97952 17.9257C5.97952 18.1446 6.17694 18.3479 6.39514 18.3479C6.61334 18.3479 6.81077 18.1446 6.81077 17.9257C6.81077 17.2898 7.41862 16.6799 8.05245 16.6799C8.27065 16.6799 8.47327 16.4818 8.47327 16.2629C8.47327 16.044 8.27065 15.8459 8.05245 15.8459C7.41862 15.8459 6.81077 15.236 6.81077 14.6001C6.81077 14.3812 6.61334 14.1779 6.39514 14.1779C6.29643 14.1779 6.18733 14.2248 6.1094 14.3082ZM6.60295 16.0804L6.77959 16.2629L6.58737 16.461L6.39514 16.6538L6.20291 16.461L6.01069 16.2629L6.18733 16.0804C6.28604 15.9814 6.37956 15.898 6.39514 15.898C6.41073 15.898 6.50424 15.9814 6.60295 16.0804Z" fill="#012433"/>
</svg>
