<svg width="13" height="12" viewBox="0 0 13 12" fill="none" xmlns="http://www.w3.org/2000/svg">
<path fill-rule="evenodd" clip-rule="evenodd" d="M3.15245 0.279805C2.10135 0.641237 1.33682 1.41269 0.980025 2.47173C0.838764 2.89117 0.830078 3.09309 0.830078 5.96747C0.830078 8.75477 0.84215 9.05679 0.969572 9.46622C1.30627 10.5481 2.18048 11.4028 3.26993 11.7153C3.62982 11.8185 4.11234 11.8316 6.87689 11.813L10.0683 11.7917L10.5664 11.5565C11.2688 11.2249 11.8839 10.6174 12.2263 9.91717L12.4975 9.3625L12.5188 6.17108C12.5374 3.40653 12.5243 2.924 12.4211 2.56412C12.1086 1.47467 11.2539 0.600456 10.172 0.263757C9.76187 0.136042 9.46448 0.124485 6.65724 0.126693C3.76276 0.129048 3.56592 0.137661 3.15245 0.279805ZM10.2155 1.22608C10.6887 1.45965 11.248 2.01843 11.4532 2.46253C11.6094 2.8007 11.6148 2.90251 11.6356 5.87354C11.6566 8.87674 11.6538 8.94446 11.4948 9.36957C11.2727 9.96295 10.6688 10.5669 10.0754 10.7889C9.65028 10.948 9.58256 10.9507 6.57935 10.9298L3.5169 10.9083L3.14884 10.7275C2.67993 10.497 2.1648 9.9815 1.93189 9.50973L1.75022 9.14167V5.97638V2.81108L1.9486 2.43515C2.22075 1.91928 2.47949 1.62829 2.86912 1.39995C3.53935 1.00716 3.51263 1.00966 6.79261 1.02762L9.84748 1.04441L10.2155 1.22608ZM10.0479 2.00555C9.85359 2.14159 9.82827 2.4869 9.99993 2.65863C10.1717 2.83029 10.517 2.80497 10.653 2.61064C10.8173 2.37611 10.7952 2.2177 10.5737 2.04354C10.3413 1.86076 10.2627 1.85509 10.0479 2.00555ZM5.72428 2.98031C4.84257 3.28521 4.21812 3.84194 3.82349 4.67492C3.60567 5.1347 3.59051 5.2195 3.59051 5.9802C3.59051 6.77226 3.5978 6.80848 3.86721 7.35365C4.49092 8.61564 5.811 9.31524 7.16192 9.09964C7.83568 8.99216 8.34736 8.73533 8.8577 8.24854C10.9251 6.27664 9.52919 2.83824 6.66614 2.85032C6.31965 2.85172 5.94747 2.9031 5.72428 2.98031ZM7.71275 3.97024C8.45777 4.35383 8.87265 4.99926 8.91578 5.84196C8.95494 6.60575 8.79042 7.04529 8.27146 7.56373C7.78467 8.05001 7.36074 8.22189 6.65069 8.22079C5.47415 8.21902 4.53899 7.34165 4.45478 6.1604C4.4129 5.57284 4.5136 5.17857 4.82453 4.71342C5.07238 4.3425 5.61217 3.92976 6.00975 3.80705C6.43309 3.67646 7.30428 3.75993 7.71275 3.97024Z" fill="#012433"/>
<circle cx="6.67847" cy="5.97437" r="1.71998" fill="#012433"/>
</svg>
