<svg width="11" height="11" viewBox="0 0 11 11" fill="none" xmlns="http://www.w3.org/2000/svg">
<path fill-rule="evenodd" clip-rule="evenodd" d="M2.91327 0.572018C2.80132 0.69099 2.79188 0.758082 2.79188 1.43575V2.17053H1.48366C0.368863 2.17053 0.162543 2.18346 0.0877208 2.25808C0.0164163 2.32929 0 2.49022 0 3.11868C0 3.8543 0.0059746 3.89587 0.124127 3.9784C0.19236 4.0261 0.329944 4.06517 0.429838 4.06517H0.611477L0.626777 7.15342L0.642132 10.2417L0.777482 10.3854L0.912888 10.5292H5.5H10.0871L10.2225 10.3854L10.3579 10.2417L10.3732 7.15342L10.3885 4.06517H10.5702C10.6701 4.06517 10.8076 4.0261 10.8759 3.9784C10.994 3.89587 11 3.8543 11 3.11868C11 2.49022 10.9836 2.32929 10.9123 2.25808C10.8375 2.18346 10.6311 2.17053 9.51634 2.17053H8.20812V1.42795C8.20812 0.723812 8.20142 0.679121 8.07891 0.564217C7.84898 0.348674 7.6909 0.401668 6.58883 1.06395C6.02069 1.40538 5.53071 1.68473 5.5 1.68473C5.46929 1.68473 4.97931 1.40538 4.41117 1.06395C3.29531 0.393365 3.13198 0.339758 2.91327 0.572018ZM4.26789 1.39563C4.84128 1.7356 5.30072 2.04281 5.28888 2.07825C5.27358 2.12395 4.96083 2.14267 4.2111 2.14267H3.15482L3.13885 1.53327C3.12422 0.974795 3.14081 0.777419 3.20234 0.777419C3.21502 0.777419 3.69449 1.0556 4.26789 1.39563ZM7.84518 1.4786V2.14267H6.78426C5.93715 2.14267 5.72335 2.12768 5.72335 2.06833C5.72335 1.98887 7.69548 0.779704 7.78934 0.801548C7.82273 0.809349 7.84518 1.08173 7.84518 1.4786ZM3.85279 3.08999V3.67509H2.09391H0.335025V3.08999V2.50488H2.09391H3.85279V3.08999ZM6.75635 3.08999V3.67509H5.5H4.24365V3.08999V2.50488H5.5H6.75635V3.08999ZM10.665 3.08999V3.67509H8.90609H7.14721V3.08999V2.50488H8.90609H10.665V3.08999ZM4.63452 7.13079V10.1964L2.83376 10.1817L1.03299 10.167L1.01853 7.11608L1.00413 4.06517H2.81929H4.63452V7.13079ZM5.97462 7.13001V10.1949H5.5H5.02538V7.13001V4.06517H5.5H5.97462V7.13001ZM9.98147 7.11608L9.967 10.167L8.16624 10.1817L6.36548 10.1964V7.13079V4.06517H8.18071H9.99587L9.98147 7.11608Z" fill="black"/>
</svg>
