<svg width="7" height="16" viewBox="0 0 7 16" fill="none" xmlns="http://www.w3.org/2000/svg">
<path fill-rule="evenodd" clip-rule="evenodd" d="M2.95664 0.485299C2.36268 0.690415 1.79609 1.32994 1.56897 2.0516C1.44785 2.43644 1.4468 2.46406 1.4468 5.31016V8.18057L1.61487 8.63585C1.82204 9.19704 2.18598 9.67636 2.60549 9.94064C2.89621 10.1238 2.96548 10.1392 3.49964 10.1392C4.0338 10.1392 4.10307 10.1238 4.39378 9.94064C4.8133 9.67636 5.17723 9.19704 5.38441 8.63585L5.55248 8.18057V5.31016C5.55248 2.46406 5.55143 2.43644 5.43031 2.0516C5.04632 0.831504 3.95511 0.140512 2.95664 0.485299ZM4.15939 1.50197C4.30925 1.60665 4.49979 1.79799 4.5828 1.92712C4.74235 2.17553 4.89452 2.66242 4.89452 2.92454C4.89452 3.06739 4.87141 3.08137 4.63518 3.08137C4.41763 3.08137 4.3582 3.11007 4.26672 3.25933C4.12533 3.48991 4.12918 3.59136 4.28683 3.79357C4.3861 3.92101 4.47142 3.95938 4.65528 3.95938H4.89452V4.39838V4.83739H4.6805C4.5628 4.83739 4.41958 4.8696 4.36215 4.90904C4.21361 5.01103 4.14313 5.28375 4.21813 5.46651C4.3052 5.67879 4.36441 5.71323 4.64449 5.71438L4.89452 5.71539V6.18817V6.66094L4.64449 6.66196C4.36441 6.6631 4.3052 6.69755 4.21813 6.90982C4.14313 7.09258 4.21361 7.36531 4.36215 7.46729C4.41958 7.50674 4.5628 7.53895 4.6805 7.53895C4.87899 7.53895 4.89447 7.55239 4.89399 7.72468C4.89268 8.20786 4.43795 8.97713 4.0219 9.20021C3.79435 9.32219 3.20492 9.32219 2.97737 9.20021C2.56133 8.97713 2.1066 8.20786 2.10528 7.72468C2.10481 7.55239 2.12029 7.53895 2.31878 7.53895C2.43648 7.53895 2.5797 7.50674 2.63713 7.46729C2.78567 7.36531 2.85615 7.09258 2.78114 6.90982C2.69408 6.69755 2.63487 6.6631 2.35478 6.66196L2.10476 6.66094V6.18817V5.71539L2.35478 5.71438C2.63487 5.71323 2.69408 5.67879 2.78114 5.46651C2.85615 5.28375 2.78567 5.01103 2.63713 4.90904C2.5797 4.8696 2.43648 4.83739 2.31878 4.83739H2.10476V4.39838V3.95938H2.33578C2.72977 3.95938 2.93779 3.59406 2.73351 3.26082C2.64102 3.10994 2.58218 3.08137 2.3641 3.08137C2.12623 3.08137 2.10476 3.06813 2.10476 2.92103C2.10476 2.83282 2.14076 2.62973 2.18477 2.46973C2.47085 1.42923 3.40189 0.972931 4.15939 1.50197ZM0.0819705 7.17228C-0.0278303 7.31324 -0.0272512 7.96445 0.0832865 8.54772C0.396161 10.199 1.48054 11.5466 2.76356 11.8785L3.13118 11.9736L3.14655 12.4145L3.16197 12.8553L2.80441 12.9007C2.20919 12.9762 1.95937 13.1166 1.60002 13.5777C1.27094 13.9999 1.14955 14.3157 1.0737 14.9466C1.04428 15.1913 1.05776 15.2519 1.17508 15.4025L1.31041 15.5761H3.49964H5.68886L5.82419 15.4025C5.94152 15.2519 5.955 15.1913 5.92557 14.9466C5.84972 14.3157 5.72834 13.9999 5.39926 13.5777C5.0399 13.1166 4.79009 12.9762 4.19487 12.9007L3.83731 12.8553L3.85273 12.4145L3.8681 11.9736L4.23656 11.8806C5.74966 11.4985 7 9.60707 7 7.7003C7 7.22381 6.9231 7.06618 6.69049 7.06618C6.42899 7.06618 6.36093 7.19538 6.31467 7.77973C6.11249 10.3325 4.06075 11.8427 2.28425 10.7463C1.37647 10.1861 0.788886 9.0964 0.684612 7.77973C0.653451 7.38577 0.617131 7.22023 0.547545 7.15499C0.4189 7.0343 0.182718 7.04308 0.0819705 7.17228ZM4.46032 13.8314C4.6287 13.8858 4.77467 14.0004 4.93105 14.2011C5.33035 14.7135 5.37467 14.6981 3.49964 14.6981C1.62381 14.6981 1.66866 14.7138 2.06975 14.1991C2.20808 14.0217 2.37915 13.8788 2.50401 13.8364C2.79099 13.739 4.16366 13.7355 4.46032 13.8314Z" fill="black"/>
</svg>
