<svg width="11" height="13" viewBox="0 0 11 13" fill="none" xmlns="http://www.w3.org/2000/svg">
<path fill-rule="evenodd" clip-rule="evenodd" d="M5.51443 1.29619V1.85201L5.0384 1.8854C2.63887 2.05374 0.59029 3.80212 0.0873745 6.1109C-0.0266027 6.63439 -0.0296075 7.69633 0.0815177 8.19645C0.528412 10.2077 2.02993 11.7617 4.03527 12.2885C5.18966 12.5917 6.41871 12.527 7.51473 12.1053C9.51056 11.3372 10.8168 9.59815 10.9865 7.48317C11.0134 7.14762 11.0032 7.04567 10.9278 6.8997C10.7337 6.52395 10.2575 6.37991 9.90948 6.5917C9.68361 6.72908 9.60768 6.90692 9.56622 7.39555C9.41975 9.12147 8.24454 10.513 6.54333 10.975C5.98974 11.1252 4.98819 11.1252 4.4346 10.975C2.47417 10.4427 1.17866 8.59355 1.43936 6.69981C1.69507 4.8422 3.22053 3.41788 5.12646 3.25707L5.51097 3.22464L5.52543 3.79256L5.53989 4.36048L6.78763 3.55826C7.47389 3.117 8.10922 2.70958 8.19952 2.65281L8.36366 2.54969L6.98355 1.66198C6.22447 1.17375 5.58339 0.766643 5.55894 0.757342C5.53445 0.74799 5.51443 0.990476 5.51443 1.29619Z" fill="black"/>
</svg>
