<svg width="13" height="13" viewBox="0 0 13 13" fill="none" xmlns="http://www.w3.org/2000/svg">
<path fill-rule="evenodd" clip-rule="evenodd" d="M1.21497 0.457825C0.729976 0.569487 0.342069 0.858119 0.119619 1.27274C0.000386579 1.49496 0 1.50758 0 5.16076V8.82585L0.165678 9.12462C0.35571 9.46727 0.714457 9.75518 1.05995 9.84221C1.19282 9.87572 1.89182 9.90057 2.70043 9.90057H4.10941L5.16881 11.026C5.7515 11.6449 6.27449 12.1634 6.33104 12.1782C6.38753 12.193 6.47993 12.193 6.53626 12.1783C6.59259 12.1636 7.04616 11.6452 7.54413 11.0262L8.44956 9.90085L10.0787 9.90041C11.0167 9.90013 11.794 9.8761 11.911 9.84364C12.261 9.74664 12.6226 9.45839 12.8078 9.12898L12.9781 8.82585L12.9938 5.30555C13.0117 1.30923 13.0184 1.38424 12.6025 0.931751C12.475 0.792974 12.2588 0.627467 12.1221 0.563975C11.8757 0.449503 11.829 0.448456 6.59949 0.440465C3.69875 0.436 1.27572 0.443826 1.21497 0.457825ZM11.8792 1.25863C11.9734 1.31011 12.0976 1.42172 12.1553 1.50665C12.2556 1.65424 12.2601 1.81451 12.2601 5.17052C12.2601 8.63328 12.2586 8.68206 12.1458 8.8356C11.8982 9.17241 11.8252 9.18392 9.93138 9.18398C8.98464 9.18403 8.17194 9.1987 8.12533 9.21655C8.07877 9.23441 7.67292 9.70503 7.22349 10.2625L6.40637 11.2759L5.82799 10.6571C5.50994 10.3168 5.07001 9.85235 4.85038 9.625L4.45109 9.21165L2.82315 9.18409C1.28704 9.15808 1.18636 9.15008 1.03941 9.04239C0.679941 8.779 0.690489 8.89402 0.690434 5.23655C0.690379 3.41398 0.705124 1.84896 0.723238 1.75863C0.741297 1.66835 0.809667 1.52786 0.875109 1.44646C1.12744 1.13253 0.981474 1.14008 6.57188 1.15303C11.2867 1.164 11.7219 1.17265 11.8792 1.25863ZM2.37637 3.17484C2.25062 3.31351 2.25062 3.53584 2.37637 3.6745C2.47235 3.78032 2.56662 3.78291 6.35954 3.78291C10.1708 3.78291 10.2465 3.78082 10.3549 3.67268C10.4156 3.61206 10.4653 3.50045 10.4653 3.42467C10.4653 3.34889 10.4156 3.23728 10.3549 3.17666C10.2465 3.06852 10.1708 3.06643 6.35954 3.06643C2.56662 3.06643 2.47235 3.06902 2.37637 3.17484ZM2.37637 4.9936C2.23985 5.14417 2.25156 5.38067 2.40155 5.50192C2.51808 5.59605 2.74202 5.60168 6.38472 5.60168C10.1708 5.60168 10.2465 5.59958 10.3549 5.49145C10.4156 5.43082 10.4653 5.31922 10.4653 5.24343C10.4653 5.16765 10.4156 5.05605 10.3549 4.99542C10.2465 4.88729 10.1708 4.88519 6.35954 4.88519C2.56662 4.88519 2.47235 4.88778 2.37637 4.9936ZM2.37863 6.79054C2.23146 6.93748 2.2467 7.18378 2.41155 7.32399C2.51725 7.41383 2.78719 7.42044 6.34965 7.42044C10.1353 7.42044 10.1758 7.41928 10.3198 7.30619C10.4845 7.17695 10.5056 7.00642 10.3793 6.82648L10.2934 6.70396H6.37942C2.89488 6.70396 2.45589 6.71344 2.37863 6.79054Z" fill="black"/>
</svg>
