<svg width="13" height="14" viewBox="0 0 13 14" fill="none" xmlns="http://www.w3.org/2000/svg">
<path fill-rule="evenodd" clip-rule="evenodd" d="M5.68169 0.240347C3.19767 0.594173 1.07296 2.45619 0.397568 4.87109C-0.0308538 6.40305 0.162264 8.30076 0.877635 9.58818L1.07911 9.95082L0.500996 11.6787C0.183046 12.629 -0.0397606 13.3925 0.00594693 13.3755C0.0516544 13.3584 0.842905 13.104 1.76431 12.8103L3.43953 12.2762L4.00825 12.5175C4.98586 12.9321 5.41352 13.0135 6.61379 13.0135C7.44053 13.0135 7.79259 12.9844 8.16149 12.8852C10.0909 12.3668 11.6964 11.0359 12.4843 9.30167C12.9058 8.37394 12.9995 7.89057 13 6.6416C13.0005 5.30058 12.917 4.90086 12.4172 3.85096C12.0256 3.0283 11.6043 2.45515 10.9599 1.86815C9.54563 0.580048 7.57144 -0.0287947 5.68169 0.240347ZM7.93786 1.37335C9.70581 1.82964 11.1637 3.19319 11.7655 4.95343C12.0347 5.74081 12.0806 7.04848 11.8684 7.88575C11.4232 9.64296 10.208 11.0282 8.55339 11.665C7.1047 12.2226 5.34454 12.1093 4.0271 11.3738L3.61532 11.1438L2.61335 11.4726C2.0623 11.6534 1.5997 11.7896 1.58534 11.7753C1.57098 11.761 1.70645 11.3082 1.88645 10.7693C2.20405 9.81818 2.2102 9.78421 2.09613 9.61085C1.83653 9.2163 1.43151 8.28788 1.32366 7.83999C1.1592 7.15694 1.17577 6.00237 1.36012 5.29796C1.91296 3.18575 3.65544 1.60804 5.81819 1.26152C6.31227 1.18234 7.42541 1.24105 7.93786 1.37335ZM3.97925 3.73037C3.41316 4.23931 3.25712 5.07257 3.57279 5.90088C3.96835 6.93858 5.35117 8.56584 6.26857 9.07305C7.03786 9.49839 7.93758 9.81129 8.38906 9.81053C9.27387 9.80909 9.92793 9.25681 9.92793 8.51126V8.25384L9.13205 7.84502L8.33624 7.43621L7.95277 7.86576C7.7156 8.13146 7.51475 8.29532 7.42617 8.29532C7.20377 8.29532 6.45692 7.84868 6.03347 7.46246C5.66532 7.12669 5.02576 6.25959 5.02576 6.09629C5.02576 6.05288 5.15004 5.8605 5.30194 5.66874C5.45384 5.47697 5.57812 5.25296 5.57812 5.17104C5.57812 4.96239 5.04869 3.59794 4.94139 3.53C4.89285 3.49927 4.72121 3.47364 4.55992 3.47302C4.31744 3.47219 4.21698 3.5167 3.97925 3.73037Z" fill="black"/>
</svg>
