<svg width="15" height="11" viewBox="0 0 15 11" fill="none" xmlns="http://www.w3.org/2000/svg">
<path fill-rule="evenodd" clip-rule="evenodd" d="M1.65356 1.0421C1.3904 1.17514 1.07686 1.45196 0.898591 1.70844L0.59375 2.14713V5.62027V9.09341L0.898591 9.53211C1.07686 9.78858 1.3904 10.0654 1.65356 10.1984C2.10348 10.426 2.10561 10.4261 7.47366 10.4261C12.8417 10.4261 12.8438 10.426 13.2938 10.1984C13.5569 10.0654 13.8705 9.78858 14.0487 9.53211L14.3536 9.09341V5.62027V2.14713L14.0487 1.70844C13.8705 1.45196 13.5569 1.17514 13.2938 1.0421C12.8438 0.814554 12.8417 0.814453 7.47366 0.814453C2.10561 0.814453 2.10348 0.814554 1.65356 1.0421ZM9.95245 5.36845C9.95245 5.42865 6.42123 7.78613 6.19076 7.87981C6.14513 7.89843 6.10779 6.74868 6.10779 5.32484V2.73617L8.03012 4.01725C9.0874 4.72184 9.95245 5.3299 9.95245 5.36845Z" fill="#012433"/>
</svg>
