<svg width="40" height="36" viewBox="0 0 40 36" fill="none" xmlns="http://www.w3.org/2000/svg">
<mask id="path-1-inside-1_22800_2938" fill="white">
<path fill-rule="evenodd" clip-rule="evenodd" d="M20.6453 0.232587C19.5882 0.749846 19.1066 1.85038 19.5168 2.81098C19.6161 3.04327 19.6368 3.23852 19.563 3.24478C19.4892 3.2512 18.68 3.27408 17.7646 3.29598C14.8783 3.36446 13.7885 4.27963 13.7885 6.63479C13.7885 7.69845 13.9178 8.00745 14.3631 8.00745C14.7004 8.00745 14.7132 8.23414 14.7132 14.2113C14.7132 20.1823 14.7278 20.4421 15.1025 21.1312C15.3693 21.6217 15.7165 21.9491 16.2049 22.1709C16.8828 22.4789 17.3305 22.4947 25.3886 22.4947C34.9355 22.4947 34.7394 22.5187 35.5613 21.2428C35.9687 20.61 35.9742 20.5168 35.9774 14.316L35.9803 8.03034L36.3964 7.97782C36.7817 7.92909 36.8166 7.83015 36.8665 6.64763C36.9314 5.11379 36.6113 4.37857 35.6279 3.80237C35.0668 3.47361 34.6607 3.40051 33.0214 3.33318C31.5316 3.27211 31.098 3.20329 31.1586 3.03751C31.2023 2.91881 31.2709 2.52535 31.3114 2.16317C31.4662 0.779973 29.9144 -0.318586 28.3828 0.0900192C27.7681 0.253988 27.4587 0.511466 26.586 1.58583C26.0061 2.29949 25.4485 2.88572 25.3468 2.88852C25.2451 2.89132 24.7604 2.37538 24.2695 1.74206C23.7789 1.1089 23.1844 0.478046 22.9484 0.340418C22.2431 -0.0709866 21.3511 -0.112637 20.6453 0.232587ZM22.5369 1.13425C22.7827 1.33806 23.2888 1.88775 23.6617 2.35579L24.3394 3.20691L22.9012 3.26931C21.3193 3.33779 20.7549 3.16148 20.4117 2.49111C20.0337 1.75243 20.783 0.810265 21.7765 0.775034C21.9488 0.768779 22.291 0.930443 22.5369 1.13425ZM29.9784 1.168C30.5215 1.65135 30.5726 2.3841 30.0995 2.90416C29.8021 3.23111 29.5911 3.27112 28.1115 3.28067C27.2013 3.28643 26.4676 3.23506 26.4815 3.16641C26.5298 2.9277 28.1156 1.06593 28.3946 0.920401C28.8965 0.658478 29.5148 0.755115 29.9784 1.168ZM35.098 4.45397C35.7131 4.81269 35.9803 5.39267 35.9803 6.36891V7.18431H25.3468H14.7132V6.43526C14.7132 5.16368 15.3381 4.40408 16.5259 4.23188C16.902 4.17723 21.1322 4.14512 25.9262 4.16044C33.6006 4.18496 34.6971 4.22003 35.098 4.45397ZM35.0557 14.1892C35.0557 20.8943 35.0307 21.0746 34.0437 21.4748C33.6907 21.618 31.2929 21.6715 25.2271 21.6715H16.8954L16.2666 21.1118L15.6379 20.5521V14.2798V8.00745H25.3468H35.0557V14.1892ZM19.772 11.2205C19.7089 11.367 19.7308 11.552 19.8205 11.6317C19.9103 11.7116 21.9549 11.7992 24.364 11.8265L28.7445 11.8762L29.3123 12.3607C30.0257 12.9697 30.304 13.8033 30.0557 14.5873C29.6302 15.9306 28.9084 16.2778 26.3458 16.3718C25.1498 16.4156 24.3296 16.3827 24.3296 16.2909C24.3296 16.2056 24.5793 15.9229 24.8844 15.6626C25.511 15.1283 25.5826 14.8415 25.1282 14.6861C24.7237 14.5479 22.6629 16.3289 22.6708 16.8099C22.6738 16.9938 23.1714 17.5876 23.7765 18.1296C24.8193 19.0633 24.8935 19.0999 25.1966 18.8302C25.4997 18.5604 25.4795 18.512 24.8125 17.9039L24.1087 17.2622L26.2997 17.2007C28.1644 17.1486 28.6012 17.0834 29.2335 16.7627C30.5781 16.0808 31.3236 14.6913 31.0105 13.4507C30.793 12.5895 30.4272 12.0973 29.5726 11.5168L28.8902 11.0531L24.3885 11.0037C20.3804 10.9597 19.8741 10.9836 19.772 11.2205ZM0.0418295 21.4126C-0.160486 21.8819 0.424638 21.9924 3.35303 22.0377C4.97322 22.0627 6.2781 22.1388 6.25257 22.2066C6.22705 22.2744 6.20634 24.7377 6.20634 27.6804V33.0308H3.17476C0.719604 33.0308 0.123939 33.0755 0.0418295 33.2658C-0.178609 33.7773 0.390426 33.8622 3.73233 33.8168L7.0352 33.7717L7.13082 33.2778L7.22661 32.7839L9.46021 32.738L11.6938 32.6919L15.8387 34.1781C20.3366 35.791 21.0628 35.9217 22.7292 35.4181C23.6128 35.1509 38.2703 26.9658 39.2692 26.1817C40.7653 25.0071 39.8101 22.8239 37.8001 22.8239C37.367 22.8239 36.385 23.3102 32.2355 25.5795C30.4034 26.5816 29.6927 27.058 29.6927 27.2842C29.6927 27.4593 29.8206 27.5981 29.9823 27.5981C30.1415 27.5981 31.9185 26.7091 33.9309 25.6226C35.9435 24.5361 37.7533 23.6471 37.9525 23.6471C38.5045 23.6471 39.1242 24.2534 39.1242 24.7934C39.1242 25.1146 38.9596 25.3845 38.6156 25.6275C37.6871 26.2836 23.5119 34.228 22.685 34.5558C21.3853 35.0712 20.2602 34.9022 16.9324 33.6915C11.8403 31.8389 12.0017 31.8784 9.52679 31.8784H7.31593L7.30595 30.1087C7.28801 26.9269 7.2856 23.7353 7.30095 23.4413C7.31464 23.1794 7.58649 23.1532 10.287 23.1532C12.1606 23.1532 13.4072 23.2228 13.662 23.3417C13.8841 23.4454 14.6494 24.0211 15.3625 24.6208C16.2084 25.3324 16.9229 25.782 17.4182 25.914C17.9216 26.0483 19.5836 26.1165 22.3527 26.1165C26.4791 26.1165 26.5342 26.1211 27.0378 26.5066C27.6965 27.0111 27.7424 27.9256 27.136 28.466C26.7508 28.8096 26.5226 28.8381 23.5391 28.9152C20.5077 28.9935 20.3536 29.0134 20.3536 29.3267C20.3536 29.6392 20.4951 29.6584 23.1276 29.7047C26.3942 29.762 26.9091 29.6981 27.6495 29.1435C28.7523 28.3174 28.7515 26.8022 27.6479 25.8602L27.0803 25.3757L22.3218 25.2933L17.5636 25.211L16.8318 24.6905C16.4294 24.4042 15.8089 23.8978 15.4529 23.5652C14.2965 22.4848 14.0389 22.4211 10.4598 22.33L7.22347 22.2477L7.16558 21.7127L7.10751 21.1777H3.62544C0.779892 21.1777 0.124679 21.2206 0.0418295 21.4126ZM16.8299 29.0941C16.5834 29.4494 17.1223 29.6356 18.2731 29.5926C18.6513 29.5786 18.7817 29.4892 18.7817 29.2444C18.7817 28.9596 18.6583 28.9152 17.8679 28.9152C17.3653 28.9152 16.8984 28.9957 16.8299 29.0941ZM3.999 31.4542C3.71198 31.7621 3.89414 32.0431 4.38088 32.0431C4.65735 32.0431 4.73743 31.9514 4.6936 31.6855C4.61963 31.2389 4.29933 31.132 3.999 31.4542Z"/>
</mask>
<path fill-rule="evenodd" clip-rule="evenodd" d="M20.6453 0.232587C19.5882 0.749846 19.1066 1.85038 19.5168 2.81098C19.6161 3.04327 19.6368 3.23852 19.563 3.24478C19.4892 3.2512 18.68 3.27408 17.7646 3.29598C14.8783 3.36446 13.7885 4.27963 13.7885 6.63479C13.7885 7.69845 13.9178 8.00745 14.3631 8.00745C14.7004 8.00745 14.7132 8.23414 14.7132 14.2113C14.7132 20.1823 14.7278 20.4421 15.1025 21.1312C15.3693 21.6217 15.7165 21.9491 16.2049 22.1709C16.8828 22.4789 17.3305 22.4947 25.3886 22.4947C34.9355 22.4947 34.7394 22.5187 35.5613 21.2428C35.9687 20.61 35.9742 20.5168 35.9774 14.316L35.9803 8.03034L36.3964 7.97782C36.7817 7.92909 36.8166 7.83015 36.8665 6.64763C36.9314 5.11379 36.6113 4.37857 35.6279 3.80237C35.0668 3.47361 34.6607 3.40051 33.0214 3.33318C31.5316 3.27211 31.098 3.20329 31.1586 3.03751C31.2023 2.91881 31.2709 2.52535 31.3114 2.16317C31.4662 0.779973 29.9144 -0.318586 28.3828 0.0900192C27.7681 0.253988 27.4587 0.511466 26.586 1.58583C26.0061 2.29949 25.4485 2.88572 25.3468 2.88852C25.2451 2.89132 24.7604 2.37538 24.2695 1.74206C23.7789 1.1089 23.1844 0.478046 22.9484 0.340418C22.2431 -0.0709866 21.3511 -0.112637 20.6453 0.232587ZM22.5369 1.13425C22.7827 1.33806 23.2888 1.88775 23.6617 2.35579L24.3394 3.20691L22.9012 3.26931C21.3193 3.33779 20.7549 3.16148 20.4117 2.49111C20.0337 1.75243 20.783 0.810265 21.7765 0.775034C21.9488 0.768779 22.291 0.930443 22.5369 1.13425ZM29.9784 1.168C30.5215 1.65135 30.5726 2.3841 30.0995 2.90416C29.8021 3.23111 29.5911 3.27112 28.1115 3.28067C27.2013 3.28643 26.4676 3.23506 26.4815 3.16641C26.5298 2.9277 28.1156 1.06593 28.3946 0.920401C28.8965 0.658478 29.5148 0.755115 29.9784 1.168ZM35.098 4.45397C35.7131 4.81269 35.9803 5.39267 35.9803 6.36891V7.18431H25.3468H14.7132V6.43526C14.7132 5.16368 15.3381 4.40408 16.5259 4.23188C16.902 4.17723 21.1322 4.14512 25.9262 4.16044C33.6006 4.18496 34.6971 4.22003 35.098 4.45397ZM35.0557 14.1892C35.0557 20.8943 35.0307 21.0746 34.0437 21.4748C33.6907 21.618 31.2929 21.6715 25.2271 21.6715H16.8954L16.2666 21.1118L15.6379 20.5521V14.2798V8.00745H25.3468H35.0557V14.1892ZM19.772 11.2205C19.7089 11.367 19.7308 11.552 19.8205 11.6317C19.9103 11.7116 21.9549 11.7992 24.364 11.8265L28.7445 11.8762L29.3123 12.3607C30.0257 12.9697 30.304 13.8033 30.0557 14.5873C29.6302 15.9306 28.9084 16.2778 26.3458 16.3718C25.1498 16.4156 24.3296 16.3827 24.3296 16.2909C24.3296 16.2056 24.5793 15.9229 24.8844 15.6626C25.511 15.1283 25.5826 14.8415 25.1282 14.6861C24.7237 14.5479 22.6629 16.3289 22.6708 16.8099C22.6738 16.9938 23.1714 17.5876 23.7765 18.1296C24.8193 19.0633 24.8935 19.0999 25.1966 18.8302C25.4997 18.5604 25.4795 18.512 24.8125 17.9039L24.1087 17.2622L26.2997 17.2007C28.1644 17.1486 28.6012 17.0834 29.2335 16.7627C30.5781 16.0808 31.3236 14.6913 31.0105 13.4507C30.793 12.5895 30.4272 12.0973 29.5726 11.5168L28.8902 11.0531L24.3885 11.0037C20.3804 10.9597 19.8741 10.9836 19.772 11.2205ZM0.0418295 21.4126C-0.160486 21.8819 0.424638 21.9924 3.35303 22.0377C4.97322 22.0627 6.2781 22.1388 6.25257 22.2066C6.22705 22.2744 6.20634 24.7377 6.20634 27.6804V33.0308H3.17476C0.719604 33.0308 0.123939 33.0755 0.0418295 33.2658C-0.178609 33.7773 0.390426 33.8622 3.73233 33.8168L7.0352 33.7717L7.13082 33.2778L7.22661 32.7839L9.46021 32.738L11.6938 32.6919L15.8387 34.1781C20.3366 35.791 21.0628 35.9217 22.7292 35.4181C23.6128 35.1509 38.2703 26.9658 39.2692 26.1817C40.7653 25.0071 39.8101 22.8239 37.8001 22.8239C37.367 22.8239 36.385 23.3102 32.2355 25.5795C30.4034 26.5816 29.6927 27.058 29.6927 27.2842C29.6927 27.4593 29.8206 27.5981 29.9823 27.5981C30.1415 27.5981 31.9185 26.7091 33.9309 25.6226C35.9435 24.5361 37.7533 23.6471 37.9525 23.6471C38.5045 23.6471 39.1242 24.2534 39.1242 24.7934C39.1242 25.1146 38.9596 25.3845 38.6156 25.6275C37.6871 26.2836 23.5119 34.228 22.685 34.5558C21.3853 35.0712 20.2602 34.9022 16.9324 33.6915C11.8403 31.8389 12.0017 31.8784 9.52679 31.8784H7.31593L7.30595 30.1087C7.28801 26.9269 7.2856 23.7353 7.30095 23.4413C7.31464 23.1794 7.58649 23.1532 10.287 23.1532C12.1606 23.1532 13.4072 23.2228 13.662 23.3417C13.8841 23.4454 14.6494 24.0211 15.3625 24.6208C16.2084 25.3324 16.9229 25.782 17.4182 25.914C17.9216 26.0483 19.5836 26.1165 22.3527 26.1165C26.4791 26.1165 26.5342 26.1211 27.0378 26.5066C27.6965 27.0111 27.7424 27.9256 27.136 28.466C26.7508 28.8096 26.5226 28.8381 23.5391 28.9152C20.5077 28.9935 20.3536 29.0134 20.3536 29.3267C20.3536 29.6392 20.4951 29.6584 23.1276 29.7047C26.3942 29.762 26.9091 29.6981 27.6495 29.1435C28.7523 28.3174 28.7515 26.8022 27.6479 25.8602L27.0803 25.3757L22.3218 25.2933L17.5636 25.211L16.8318 24.6905C16.4294 24.4042 15.8089 23.8978 15.4529 23.5652C14.2965 22.4848 14.0389 22.4211 10.4598 22.33L7.22347 22.2477L7.16558 21.7127L7.10751 21.1777H3.62544C0.779892 21.1777 0.124679 21.2206 0.0418295 21.4126ZM16.8299 29.0941C16.5834 29.4494 17.1223 29.6356 18.2731 29.5926C18.6513 29.5786 18.7817 29.4892 18.7817 29.2444C18.7817 28.9596 18.6583 28.9152 17.8679 28.9152C17.3653 28.9152 16.8984 28.9957 16.8299 29.0941ZM3.999 31.4542C3.71198 31.7621 3.89414 32.0431 4.38088 32.0431C4.65735 32.0431 4.73743 31.9514 4.6936 31.6855C4.61963 31.2389 4.29933 31.132 3.999 31.4542Z" fill="url(#paint0_linear_22800_2938)" stroke="#012433" stroke-width="2" mask="url(#path-1-inside-1_22800_2938)"/>
<defs>
<linearGradient id="paint0_linear_22800_2938" x1="20" y1="0" x2="20" y2="35.679" gradientUnits="userSpaceOnUse">
<stop stop-color="#FF5500"/>
<stop offset="1" stop-color="#FF9900"/>
</linearGradient>
</defs>
</svg>
