<svg width="26" height="23" viewBox="0 0 26 23" fill="none" xmlns="http://www.w3.org/2000/svg">
<path fill-rule="evenodd" clip-rule="evenodd" d="M19.2928 0.219157C19.2082 0.339742 19.0111 0.769873 18.8547 1.17517L18.5704 1.91192L19.0029 3.44047C19.2409 4.28115 19.4355 4.98528 19.4355 5.00525C19.4355 5.02521 18.9643 5.02044 18.3884 4.99473C15.289 4.85603 12.5435 6.40317 11.1558 9.07055C9.71662 11.837 10.1785 15.2497 12.3026 17.5439C12.8464 18.1313 14.0964 19.091 14.3176 19.091C14.445 19.091 15.5394 18.1392 15.5394 18.0284C15.5394 17.9883 15.3092 17.8493 15.028 17.7196C14.7129 17.5743 14.2346 17.2034 13.7819 16.7533C12.6119 15.59 12.1303 14.4538 12.1303 12.8572C12.1303 11.3724 12.5959 10.1886 13.6043 9.10981C14.6333 8.00886 16.0105 7.39405 17.4874 7.37623C19.4358 7.35276 21.0973 8.21458 22.1564 9.79815C23.5248 11.844 23.4075 14.4102 21.8567 16.3579C21.3697 16.9696 20.3316 17.7188 19.5607 18.0148C19.0272 18.2197 18.967 18.2782 18.4301 19.1136L17.863 19.996L18.4832 19.9324C19.4032 19.8382 20.4519 19.5187 21.3322 19.0645C22.4315 18.4973 23.8094 17.1194 24.3765 16.0202C25.6118 13.626 25.5504 10.9168 24.21 8.66049C23.7581 7.89996 22.8585 6.89194 22.2637 6.47973C22.0474 6.32993 21.8708 6.18041 21.871 6.14749C21.8711 6.11457 22.5506 5.74561 23.381 5.32746C25.0411 4.49145 25.0026 4.52982 25.3848 3.33478C25.5822 2.71764 25.593 2.60991 25.4697 2.49128C25.3095 2.33718 19.7835 0 19.5792 0C19.5062 0 19.3773 0.0985718 19.2928 0.219157ZM2.85137 5.98249C1.63325 7.23714 0.636719 8.32932 0.636719 8.40948C0.636719 8.62727 1.6951 9.81013 1.98887 9.92069C2.12913 9.97348 2.94166 10.0642 3.79443 10.1222C4.64729 10.1804 5.35852 10.2413 5.37498 10.2578C5.39144 10.2743 5.20774 10.6796 4.96667 11.1585C4.38274 12.3188 4.14303 13.3079 4.14391 14.553C4.14537 16.6956 4.92644 18.5329 6.44788 19.9727C7.15775 20.6445 7.43622 20.8399 8.30331 21.275C9.7589 22.0056 11.7218 22.2147 13.3834 21.8164C15.6559 21.2715 17.632 19.5496 18.5267 17.3343C19.5833 14.7185 19.0285 11.658 17.1132 9.53575L16.5928 8.95922L16.0297 9.25942C15.72 9.42442 15.332 9.6988 15.1676 9.86906L14.8686 10.1786L15.4178 10.6169C16.0687 11.1364 16.78 12.1425 17.0907 12.9834C17.3671 13.7311 17.4663 15.1861 17.2967 16.0032C16.9834 17.5125 15.7973 19.0564 14.4434 19.7174C12.1421 20.8409 9.80555 20.4709 8.03769 18.703C6.31658 16.9818 5.92083 14.6314 6.9757 12.3949C7.21103 11.8958 7.49194 11.5343 8.13918 10.8971C8.75525 10.2906 9.01181 9.96569 9.06207 9.72822C9.10035 9.54734 9.28035 8.99887 9.46211 8.50932C9.87432 7.39912 9.88075 7.28048 9.52474 7.36552C8.98444 7.49467 7.98061 7.90445 7.61642 8.14454C7.41061 8.28023 7.22846 8.37704 7.21161 8.35961C7.19476 8.34217 7.10798 7.6924 7.01866 6.91561C6.92944 6.13882 6.81255 5.36145 6.75898 5.18807C6.65242 4.84356 5.46596 3.70131 5.21466 3.70131C5.13284 3.70131 4.06939 4.72784 2.85137 5.98249Z" fill="#585454"/>
</svg>
