<?xml version="1.0" encoding="UTF-8"?>
<svg version="1.1" xmlns="http://www.w3.org/2000/svg" width="512" height="512">
<path d="M0 0 C3.6185672 0.30029603 5.3532762 2.02733698 7.875 4.5 C21.60384695 17.05851901 39.62297765 26.527817 58.4375 27.375 C80.04757421 26.34026348 98.13203541 16.06707032 113.28125 1.1171875 C115 0 115 0 116.9765625 0.1171875 C119.39184465 1.17095925 120.91107567 2.48617362 122.875 4.25 C142.31640141 20.19824828 166.51058242 29.91201818 189.80859375 38.640625 C204.82064013 44.29785356 217.90174028 50.27065652 230 61 C231.04800781 61.90492188 231.04800781 61.90492188 232.1171875 62.828125 C255.06058519 84.02082166 263.16009622 119.05974755 265 149 C265.18244386 154.18741729 265.24486171 159.37222558 265.25 164.5625 C265.25100708 165.27599609 265.25201416 165.98949219 265.25305176 166.72460938 C265.20359007 219.09581159 265.20359007 219.09581159 255 231 C251.95973053 232.6640387 248.77608809 233.76279391 245.5 234.875 C244.53094727 235.21378174 243.56189453 235.55256348 242.56347656 235.90161133 C202.75975928 249.44409078 159.87142128 255.43996885 118 258 C117.35542469 258.03959241 116.71084938 258.07918482 116.04674149 258.119977 C104.26766318 258.8295318 92.53353904 259.16249464 80.734375 259.16796875 C79.04217504 259.17120215 77.34997533 259.17456755 75.65777588 259.17805481 C72.13512528 259.18398038 68.61249896 259.1859018 65.08984375 259.18530273 C61.55137979 259.18522192 58.01304654 259.19210458 54.47460938 259.20581055 C32.22301204 259.29057093 10.18493475 258.86470228 -12 257 C-12.91680542 256.92429779 -13.83361084 256.84859558 -14.77819824 256.77059937 C-19.94390536 256.33446427 -25.0977857 255.82299256 -30.25 255.25 C-31.00018402 255.16796326 -31.75036804 255.08592651 -32.52328491 255.00140381 C-114.47633053 245.93893492 -114.47633053 245.93893492 -138 230 C-140.96444098 224.76746324 -141.99384316 219.1890199 -143.0625 213.3125 C-143.23168945 212.3853418 -143.40087891 211.45818359 -143.57519531 210.50292969 C-148.12602427 184.69736199 -149.2877788 156.94106171 -145 131 C-144.79375 129.7315625 -144.5875 128.463125 -144.375 127.15625 C-139.43967538 100.0119646 -128.00721762 70.89759382 -104.59765625 54.54296875 C-94.39229341 47.74951926 -83.97240082 42.81474724 -72.375 38.875 C-47.90684242 30.29442588 -18.76928856 18.76928856 0 0 Z " fill="#010002" transform="translate(197,253)"/>
<path d="M0 0 C1.15556396 0.00966797 1.15556396 0.00966797 2.33447266 0.01953125 C24.06841054 0.68732154 45.8170666 11.3135769 64.625 21.5 C65.26276367 21.84111816 65.90052734 22.18223633 66.55761719 22.53369141 C76.54715172 27.94700051 84.6514279 34.42434803 92.625 42.5 C93.27339844 43.1496875 93.92179688 43.799375 94.58984375 44.46875 C104.12503175 54.75607751 106.01455172 67.57593671 105.9375 81.125 C105.93556641 82.5797876 105.93556641 82.5797876 105.93359375 84.06396484 C105.79654086 94.80377187 104.42605234 105.3834447 102.90039062 116.00244141 C102.62053426 118.54050047 102.48723889 120.94950609 102.625 123.5 C103.91367546 125.15953208 103.91367546 125.15953208 105.625 126.5625 C108.46901756 129.68890228 109.10253742 131.78019175 109.1875 136 C108.50186395 148.46610999 105.53732895 160.26687255 99.66601562 171.30249023 C97.02908746 176.31377109 95.45176332 181.23000598 94 186.6875 C88.11918521 207.3811272 77.69777633 225.31759359 63.625 241.5 C63.07457031 242.13550781 62.52414062 242.77101562 61.95703125 243.42578125 C49.84767325 256.43212873 32.40633485 264.99925974 14.625 265.875 C-2.02266803 264.95796744 -17.21975986 257.72797472 -29.375 246.5 C-30.26574219 245.68917969 -31.15648437 244.87835938 -32.07421875 244.04296875 C-39.25224517 237.20532294 -44.98971144 229.79210744 -50.375 221.5 C-51.07496094 220.42234375 -51.77492187 219.3446875 -52.49609375 218.234375 C-60.36518748 205.28795178 -65.17948005 190.88300904 -69.3828125 176.39453125 C-70.45056748 173.27954526 -71.82822803 170.53000706 -73.375 167.625 C-78.31662237 158.05530998 -80.69142734 148.2695003 -81 137.5625 C-81.03528809 136.87712158 -81.07057617 136.19174316 -81.10693359 135.4855957 C-81.09510683 131.05324771 -80.16576161 128.95658168 -77.265625 125.5859375 C-74.96104453 122.78494353 -74.96104453 122.78494353 -74.16357422 119.34057617 C-74.46984025 116.86842013 -74.95138492 114.4924086 -75.5 112.0625 C-77.14587234 102.8740502 -77.76692513 93.91995917 -77.80291748 84.60739136 C-77.80921445 83.18148898 -77.82349926 81.75559532 -77.84649658 80.3298645 C-78.12984083 61.39525911 -71.77727934 46.63338143 -59.375 32.5 C-58.79363281 31.83484375 -58.21226562 31.1696875 -57.61328125 30.484375 C-48.79016357 21.06794572 -37.83399646 14.00094136 -26.5 8 C-25.72809326 7.59088379 -24.95618652 7.18176758 -24.16088867 6.76025391 C-16.29485109 2.73239756 -8.91534799 -0.08095662 0 0 Z " fill="#010002" transform="translate(241.375,-0.5)"/>
</svg>
