<svg width="13" height="10" viewBox="0 0 13 10" fill="none" xmlns="http://www.w3.org/2000/svg">
<path fill-rule="evenodd" clip-rule="evenodd" d="M0 4.99758V9.86992H6.5H13V4.99758V0.125244H6.5H0V4.99758ZM11.4972 1.0334C11.4969 1.05722 10.4372 2.13397 9.14235 3.42633L6.78808 5.776H6.53114H6.2742L4.83716 4.3489C4.04681 3.56396 2.98307 2.4872 2.47335 1.95597L1.54654 0.990156H6.52219C9.25877 0.990156 11.4975 1.00959 11.4972 1.0334ZM2.9146 3.68286L4.1752 4.96293L4.01521 5.15321C3.92721 5.25792 3.1958 6.0131 2.38986 6.83143L0.924444 8.31936V4.98686V1.65435L1.28925 2.02857C1.48986 2.23442 2.22132 2.97888 2.9146 3.68286ZM12.062 6.65839L12.0467 8.29036L10.4394 6.64905L8.83208 5.00767L10.4394 3.38815L12.0467 1.76858L12.062 3.39749C12.0704 4.29337 12.0704 5.76078 12.062 6.65839ZM5.2869 6.06454C5.75496 6.53522 6.04436 6.67171 6.55778 6.66375C7.03681 6.65637 7.28081 6.53499 7.7718 6.05987L8.19485 5.65048L9.60538 7.08265C10.3812 7.87042 11.1144 8.62514 11.2347 8.75995L11.4535 9.00501H6.50185H1.55029L1.87628 8.64463C2.43892 8.02264 4.76378 5.67706 4.826 5.6687C4.85865 5.66426 5.06601 5.84243 5.2869 6.06454Z" fill="black"/>
</svg>
