<svg width="12" height="13" viewBox="0 0 12 13" fill="none" xmlns="http://www.w3.org/2000/svg">
<path fill-rule="evenodd" clip-rule="evenodd" d="M4.39011 0.813273C4.27323 0.92985 4.23228 1.03982 4.23228 1.23711C4.23228 1.48066 4.27182 1.54424 4.69317 1.97789L5.15406 2.45222L4.77353 2.45318C3.17485 2.45716 1.72242 3.58655 1.30551 5.14979C1.23659 5.40848 1.21203 5.89699 1.21145 7.02189L1.21068 8.54407L1.00174 8.64903C0.704916 8.79808 0.322073 9.17777 0.168036 9.47579C-0.0153172 9.83053 -0.0545337 10.4359 0.0797025 10.8392C0.371576 11.7162 1.3723 12.2435 2.25744 11.9867C3.53333 11.6165 3.99872 10.0822 3.1328 9.10046C2.98635 8.93441 2.75208 8.74033 2.61219 8.66912L2.3578 8.53958L2.37888 7.01971L2.40003 5.49978L2.60409 5.06985C3.00905 4.21685 3.72324 3.727 4.62682 3.68247L5.11774 3.65835L4.67504 4.1099C4.26359 4.52957 4.23228 4.58141 4.23228 4.84298C4.23228 5.29652 4.60927 5.55592 5.01513 5.3816C5.13259 5.33111 5.66992 4.84414 6.20918 4.29943C7.52634 2.96883 7.53341 3.15239 6.11062 1.73255C5.09723 0.72114 5.017 0.655762 4.7898 0.655762C4.61866 0.655762 4.50172 0.701828 4.39011 0.813273ZM9.64576 1.35093C8.42973 1.78374 8.0285 3.25742 8.86767 4.20883C9.01412 4.37488 9.24839 4.56896 9.38828 4.64018L9.64268 4.76971L9.62159 6.28958L9.60044 7.80951L9.39639 8.23944C8.99143 9.09244 8.27724 9.58229 7.37365 9.62682L6.88274 9.65094L7.32543 9.19939C7.73689 8.77973 7.76819 8.72789 7.76819 8.46631C7.76819 8.01277 7.3912 7.75337 6.98534 7.92769C6.86789 7.97819 6.33056 8.46515 5.7913 9.00987C4.47414 10.3405 4.46706 10.1569 5.88985 11.5767C6.90324 12.5882 6.98348 12.6535 7.21068 12.6535C7.55193 12.6535 7.76819 12.428 7.76819 12.0722C7.76819 11.8286 7.72866 11.7651 7.3073 11.3314L6.84641 10.8571L7.22694 10.8561C8.82563 10.8521 10.278 9.72274 10.695 8.1595C10.7639 7.90081 10.7884 7.41224 10.789 6.28701L10.7898 4.76458L11.0309 4.64037C11.3215 4.49069 11.6988 4.10567 11.8519 3.80245C12.0177 3.4744 12.0495 2.857 11.9208 2.47006C11.6184 1.56156 10.5418 1.03193 9.64576 1.35093ZM10.5423 2.52151C10.7101 2.61121 10.8579 2.96613 10.8097 3.16387C10.7146 3.55383 10.3027 3.75497 9.96065 3.57841C9.72156 3.45503 9.63258 3.30021 9.63258 3.00752C9.63258 2.60036 10.1612 2.318 10.5423 2.52151ZM2.04773 9.73493C2.43166 9.93305 2.49383 10.4191 2.17007 10.691C1.83133 10.9754 1.40072 10.8912 1.24077 10.5091C1.10505 10.1851 1.24758 9.82809 1.56427 9.69868C1.75412 9.62117 1.83962 9.62759 2.04773 9.73493Z" fill="black"/>
</svg>
