<svg width="7" height="14" viewBox="0 0 7 14" fill="none" xmlns="http://www.w3.org/2000/svg">
<path fill-rule="evenodd" clip-rule="evenodd" d="M4.36616 0.546055C3.44958 0.700391 2.7291 1.19664 2.31383 1.95968C2.02862 2.4836 1.93617 3.00889 1.93617 4.10481V5.09015H1.03834C0.415771 5.09015 0.119602 5.11106 0.0723235 5.15834C-0.0241078 5.25477 -0.0241078 7.53946 0.0723235 7.63589C0.119602 7.68317 0.415771 7.70408 1.03834 7.70408H1.93617V10.4297C1.93617 13.0662 1.93975 13.1571 2.04607 13.2141C2.11136 13.249 2.61767 13.2729 3.29217 13.2729C4.24927 13.2729 4.44242 13.2588 4.51765 13.1836C4.5963 13.1049 4.60692 12.7735 4.60692 10.3992V7.70408H5.62573C6.47611 7.70408 6.65926 7.6893 6.73381 7.61481C6.86684 7.48172 6.86684 5.3125 6.73381 5.17942C6.65926 5.10492 6.47611 5.09015 5.62573 5.09015H4.60692L4.60704 4.30881C4.60715 3.06122 4.67943 2.98713 5.93861 2.944C6.3782 2.92894 6.76984 2.89109 6.80888 2.8599C6.86133 2.81807 6.87991 2.51531 6.87991 1.70414C6.87991 0.675615 6.87286 0.601232 6.77001 0.546169C6.64175 0.477525 4.77365 0.477411 4.36616 0.546055Z" fill="#012433"/>
</svg>
