<svg width="12" height="13" viewBox="0 0 12 13" fill="none" xmlns="http://www.w3.org/2000/svg">
<path fill-rule="evenodd" clip-rule="evenodd" d="M4.67166 0.804227C2.6255 1.27366 0.985616 2.75664 0.242942 4.80909C0.0254037 5.41023 0 5.60957 0 6.71602C0 7.82247 0.0254037 8.02181 0.242942 8.62294C0.592268 9.58853 1.00524 10.2356 1.74003 10.9688C2.47472 11.7021 3.12312 12.1143 4.09067 12.4629C4.69541 12.6808 4.88837 12.705 6.00146 12.7022C7.09952 12.6996 7.31568 12.6722 7.91226 12.4599C8.87522 12.1171 9.52582 11.7045 10.2629 10.9688C11.0001 10.2332 11.4135 9.58396 11.757 8.62294C11.9697 8.02757 11.9971 7.81185 11.9998 6.71602C12.0026 5.60518 11.9783 5.41261 11.76 4.80909C11.4107 3.8435 10.9977 3.19642 10.2629 2.46321C9.07808 1.28071 7.88795 0.763315 6.23074 0.71023C5.58675 0.689637 5.02291 0.723593 4.67166 0.804227ZM7.71856 1.68305C9.24573 2.21088 10.53 3.50486 11.0611 5.05118C11.3572 5.91261 11.362 7.40081 11.0717 8.32155C10.5683 9.91812 9.21006 11.2736 7.61025 11.776C6.68764 12.0657 5.19643 12.0609 4.33324 11.7655C2.7649 11.2288 1.48214 9.94914 0.940678 8.38086C0.637573 7.50295 0.637573 5.92908 0.940678 5.05118C1.57018 3.22799 3.18328 1.83187 5.08435 1.46476C5.62059 1.36116 7.15528 1.48838 7.71856 1.68305ZM5.35949 3.65331C5.1325 3.7236 4.79574 3.90601 4.61113 4.05868C4.25529 4.35275 3.89211 4.99306 3.89211 5.3263C3.89211 5.49745 3.94329 5.52619 4.24749 5.52619C4.56545 5.52619 4.60838 5.49855 4.65561 5.26324C4.86819 4.20228 6.93361 3.84963 7.42142 4.79097C7.49791 4.93869 7.56055 5.12138 7.56055 5.19698C7.56055 5.4786 7.33576 5.81111 7.01744 6.00047C6.15425 6.51384 5.72835 7.16083 5.65525 8.06958L5.60848 8.65068L5.96551 8.62148C6.32227 8.59228 6.32245 8.59201 6.38078 8.11516C6.46103 7.45948 6.69892 7.09695 7.31788 6.68746C8.12503 6.15341 8.40832 5.55658 8.20757 4.81275C8.07605 4.32538 7.70875 3.89567 7.24332 3.68471C6.7988 3.48317 5.95387 3.46907 5.35949 3.65331ZM5.63462 9.69608V10.1135L5.97853 10.0851C6.31236 10.0575 6.32328 10.0452 6.35061 9.6677L6.37885 9.27872H6.00669H5.63462V9.69608Z" fill="black"/>
</svg>
