<svg width="15" height="17" viewBox="0 0 15 17" fill="none" xmlns="http://www.w3.org/2000/svg">
<path fill-rule="evenodd" clip-rule="evenodd" d="M8.04095 0.646821C6.90422 0.862862 6.2077 1.96233 6.51969 3.04789C6.91137 4.41084 8.55834 4.90364 9.63833 3.98107C10.6295 3.13438 10.4393 1.42709 9.29096 0.862773C8.81118 0.626937 8.46229 0.566663 8.04095 0.646821ZM8.90615 1.44634C9.88518 1.88993 9.78923 3.38198 8.76195 3.68915C8.27083 3.836 7.85761 3.73159 7.5089 3.37253C6.91897 2.76515 7.09238 1.81619 7.86405 1.42931C8.2568 1.23235 8.4404 1.23539 8.90615 1.44634ZM11.26 3.95807C9.6754 4.58916 9.64592 6.8119 11.2127 7.52601C11.9278 7.85199 12.7196 7.68882 13.3373 7.08822C14.5404 5.91822 13.6678 3.84536 11.9804 3.86444C11.7056 3.86757 11.3813 3.90965 11.26 3.95807ZM12.6066 4.71381C13.3138 5.06886 13.3967 6.07417 12.7682 6.67504C12.5296 6.90321 12.4309 6.93495 11.9593 6.93495C11.4541 6.93495 11.4043 6.91533 11.1192 6.60496C10.6382 6.08104 10.5998 5.50308 11.012 4.99218C11.3816 4.53415 12.0249 4.4218 12.6066 4.71381ZM7.76273 7.47064C7.04494 7.69934 6.43374 8.53962 6.43374 9.29777C6.43374 10.4156 7.56787 11.3797 8.67502 11.2031C9.19759 11.1196 9.82103 10.6684 10.0753 10.1894C10.2525 9.85557 10.2829 9.68768 10.2564 9.19015C10.2302 8.69948 10.1761 8.52348 9.95514 8.20936C9.46107 7.50711 8.58023 7.21029 7.76273 7.47064ZM9.1019 8.30904C9.24986 8.41416 9.43489 8.67452 9.5203 8.89769C9.66486 9.27548 9.66486 9.32006 9.5203 9.69784C9.14452 10.6797 7.93829 10.8093 7.35032 9.931C6.95524 9.34092 7.19039 8.54907 7.86405 8.20089C8.24572 8.00357 8.73184 8.0461 9.1019 8.30904ZM0.0617366 11.2275C0.0277859 11.2614 0 12.4379 0 13.8421C0 15.7089 0.0288581 16.4239 0.107213 16.5021C0.180832 16.5756 0.623441 16.6091 1.51885 16.6091C2.8557 16.6091 3.03769 16.5657 3.03769 16.2463C3.03769 16.1436 3.14151 16.0804 3.37273 16.0422C4.05425 15.9298 4.68332 15.9936 6.36405 16.3454C8.88006 16.8721 8.89499 16.871 11.9047 15.9498C13.2639 15.5337 14.4578 15.1495 14.5579 15.0961C14.9876 14.8666 15.1357 14.0922 14.8606 13.5137C14.6922 13.1597 14.2714 12.8644 13.9376 12.8661C13.8148 12.8667 12.9645 13.058 12.0481 13.2913L10.3819 13.7153L10.3348 13.3644C10.2383 12.6464 10.1702 12.6096 7.81008 12.0027C5.22644 11.3384 4.68948 11.2983 3.70777 11.6967L3.08236 11.9505L3.03769 11.5827L2.99302 11.2148L1.55825 11.1903C0.769072 11.177 0.0955979 11.1936 0.0617366 11.2275ZM2.32294 13.8451V15.8958H1.51885H0.714751V13.8451V11.7943H1.51885H2.32294V13.8451ZM7.41554 12.6228C9.53451 13.1587 9.60536 13.1837 9.63127 13.4062C9.64637 13.5358 9.58204 13.7297 9.48376 13.8509L9.30945 14.0657L8.1168 13.7753C7.46084 13.6156 6.85875 13.4857 6.7787 13.4866C6.57026 13.4892 6.40872 13.7182 6.47296 13.9202C6.5171 14.0591 6.79103 14.1584 7.86503 14.4254C8.60042 14.608 9.29257 14.7363 9.40326 14.7103C9.51396 14.6843 10.5457 14.4161 11.6961 14.1143C12.9235 13.7922 13.8735 13.587 13.9954 13.6174C14.2151 13.6725 14.3307 13.9498 14.2801 14.3004C14.253 14.4879 14.0333 14.5727 11.8439 15.2397C10.5203 15.6429 9.25075 15.9984 9.02257 16.0298C8.70951 16.0727 8.10545 15.984 6.5598 15.6681C4.73424 15.295 4.43181 15.2557 3.77478 15.3057L3.03769 15.3619V14.0402V12.7184L3.73011 12.4397C4.47988 12.1379 4.66143 12.086 5.00326 12.0759C5.1261 12.0723 6.21163 12.3183 7.41554 12.6228Z" fill="black"/>
</svg>
