<svg width="11" height="14" viewBox="0 0 11 14" fill="none" xmlns="http://www.w3.org/2000/svg">
<path fill-rule="evenodd" clip-rule="evenodd" d="M3.56804 0.638793C3.47831 0.662478 2.63075 1.64683 2.40819 1.98583C2.25596 2.21765 2.3283 2.45866 2.6494 2.78961C2.79808 2.94284 2.89353 3.0781 2.86156 3.0902C2.63887 3.17421 1.99141 3.6641 1.62805 4.02347C0.895037 4.74855 0.381332 5.64485 0.134974 6.62834C-0.0449913 7.3468 -0.0449913 8.52109 0.134974 9.23955C0.912078 12.3419 4.14173 14.1358 7.19033 13.1583C8.86417 12.6217 10.2177 11.2614 10.7434 9.58762C11.2526 7.9663 10.9973 6.24209 10.0373 4.81681C9.7095 4.33017 9.01629 3.65497 8.52397 3.34274C8.3038 3.20308 8.11149 3.07964 8.09667 3.06846C8.08181 3.05721 8.1896 2.93811 8.33629 2.80376C8.62936 2.53519 8.71543 2.32146 8.61724 2.1063C8.46627 1.77569 7.67161 0.702941 7.54094 0.653346C7.40524 0.601869 3.75824 0.588457 3.56804 0.638793ZM7.23454 1.88048C7.33038 2.01956 7.40884 2.15693 7.40884 2.1858C7.40884 2.21462 6.95547 2.6273 6.40127 3.10287L5.39371 3.96743L4.95732 3.57216C4.71731 3.35478 4.305 2.95899 4.04103 2.69259L3.56118 2.20829L3.78369 1.92037L4.00626 1.6325L5.53324 1.63011L7.06023 1.62765L7.23454 1.88048ZM7.65417 3.74623C8.54347 4.19349 9.34442 5.03545 9.78258 5.98356C10.0527 6.56819 10.1529 6.98943 10.1922 7.7068C10.3452 10.499 7.99774 12.8059 5.18933 12.623C4.27623 12.5635 3.48346 12.284 2.75731 11.7657C0.0472503 9.83108 0.146811 5.77902 2.94888 3.97165C3.54768 3.5854 3.48157 3.56446 4.33942 4.41218C4.75379 4.82166 5.15816 5.17304 5.23799 5.19308C5.31788 5.21305 5.44655 5.20392 5.52392 5.17276C5.60135 5.14154 6.05066 4.78114 6.52245 4.37183C6.99424 3.96247 7.38768 3.627 7.39683 3.62632C7.40592 3.62569 7.52172 3.67962 7.65417 3.74623Z" fill="black"/>
</svg>
